<svg xmlns="http://www.w3.org/2000/svg" width="240" height="80" viewBox="0 50 240 80"><path d="M76.631 81.36c1.867.769 3.358 1.895 4.475 3.377 1.116 1.482 1.674 2.992 1.674 4.529 0 1.392-.219 2.69-.659 3.898-.439 1.208-1.272 2.279-2.498 3.213-1.227.933-2.929 1.666-5.106 2.196-2.178.529-4.988.796-8.428.796-3.514 0-6.369-.267-8.565-.796-2.196-.53-3.917-1.264-5.161-2.196-1.245-.934-2.086-2.005-2.526-3.213-.439-1.208-.659-2.507-.659-3.898 0-.769.146-1.546.439-2.333a8.592 8.592 0 0 1 1.263-2.251 10.125 10.125 0 0 1 2.004-1.949 9.445 9.445 0 0 1 2.663-1.373c-1.428-.549-2.553-1.455-3.377-2.718s-1.235-2.553-1.235-3.871c0-1.244.256-2.416.769-3.514.512-1.098 1.354-2.059 2.526-2.883 1.171-.824 2.727-1.463 4.667-1.922 1.94-.457 4.338-.686 7.193-.686s5.252.229 7.193.686c1.939.458 3.495 1.098 4.667 1.922 1.171.824 2.013 1.785 2.526 2.883a8.216 8.216 0 0 1 .769 3.514c0 1.318-.412 2.608-1.235 3.871s-1.951 2.17-3.379 2.718zM66.528 66.865H65.43v12.738h1.098V66.865zm0 15.374H65.43v16.032h1.098V82.239zm53.067-1.675c-1.007.933-2.772 1.565-5.298 1.894 2.086.549 3.742 1.391 4.969 2.526 1.226 1.135 1.839 2.855 1.839 5.161 0 1.537-.257 2.883-.769 4.036-.513 1.152-1.4 2.113-2.663 2.882-1.263.77-2.965 1.346-5.106 1.729-2.142.385-4.859.577-8.154.577s-6.021-.257-8.181-.769c-2.16-.513-3.871-1.189-5.134-2.032-1.263-.841-2.141-1.82-2.635-2.938a8.522 8.522 0 0 1-.741-3.486c0-1.024.21-1.958.631-2.8a7.378 7.378 0 0 1 1.62-2.169 6.922 6.922 0 0 1 2.196-1.373c.805-.311 1.592-.466 2.361-.466.769 0 1.556.146 2.361.438a6.775 6.775 0 0 1 2.196 1.317 7.063 7.063 0 0 1 1.62 2.142c.42.843.631 1.812.631 2.91 0 1.172-.192 2.188-.577 3.048s-.888 1.592-1.51 2.196c-.623.604-1.345 1.052-2.169 1.345s-1.674.439-2.553.439c.146.037.366.073.659.109.255.037.594.064 1.016.083.42.019.961.027 1.62.027.805 0 1.628-.183 2.471-.55a7.81 7.81 0 0 0 2.279-1.51 7.644 7.644 0 0 0 1.647-2.278c.42-.879.631-1.848.631-2.91 0-1.244-.22-2.297-.659-3.157a6.16 6.16 0 0 0-1.729-2.113 7.957 7.957 0 0 0-2.443-1.264 23.636 23.636 0 0 0-2.855-.713V81.8h7.907c3.624 0 6.424-.155 8.4-.467 1.977-.311 3.432-.704 4.365-1.181.934-.475 1.491-.979 1.675-1.51.183-.53.274-1.016.274-1.455 0 .33-.147.714-.439 1.153-.293.439-.943.851-1.949 1.235-1.007.384-2.471.705-4.393.961-1.921.256-4.494.384-7.714.384h-8.126c-2.05 0-3.679.119-4.887.357-1.208.238-2.142.521-2.8.851-.659.329-1.107.668-1.345 1.015-.238.349-.376.632-.412.852v-10.98c0-.915.155-1.812.466-2.69s.769-1.656 1.373-2.333a6.922 6.922 0 0 1 2.141-1.62c.824-.402 1.766-.604 2.828-.604 2.086 0 4.063.302 5.93.906s3.669 1.263 5.408 1.977c1.738.714 3.44 1.364 5.106 1.949 1.665.586 3.358.879 5.079.879 1.208 0 2.169-.485 2.883-1.455.714-.97 1.071-2.389 1.071-4.255h1.098v10.762c0 1.755-.503 3.1-1.51 4.033zm24.132.138c-3.697 0-6.626-.119-8.785-.357-2.16-.238-3.815-.54-4.969-.906-1.153-.366-1.895-.75-2.224-1.153-.33-.402-.494-.769-.494-1.098v4.393h14.935c2.416 0 4.676.074 6.781.22 2.104.146 3.943.513 5.518 1.098 1.573.586 2.809 1.447 3.706 2.581.896 1.135 1.346 2.69 1.346 4.667 0 1.537-.257 2.883-.769 4.036-.514 1.152-1.4 2.113-2.663 2.882-1.263.77-2.965 1.346-5.106 1.729-2.142.385-4.859.577-8.153.577-3.295 0-6.022-.257-8.182-.769-2.16-.513-3.871-1.189-5.134-2.032-1.263-.841-2.142-1.82-2.636-2.938a8.522 8.522 0 0 1-.741-3.486c0-1.024.211-1.958.632-2.8a7.378 7.378 0 0 1 1.62-2.169 6.911 6.911 0 0 1 2.196-1.373c.805-.311 1.592-.466 2.36-.466s1.556.146 2.361.438a6.775 6.775 0 0 1 2.196 1.317 7.06 7.06 0 0 1 1.619 2.142c.421.843.632 1.812.632 2.91 0 1.172-.192 2.188-.576 3.048a7.02 7.02 0 0 1-1.511 2.196 5.93 5.93 0 0 1-2.168 1.345 7.566 7.566 0 0 1-2.554.439c.146.037.365.073.659.109.256.037.595.064 1.016.083.42.019.961.027 1.62.027.805 0 1.628-.183 2.471-.55a7.791 7.791 0 0 0 2.278-1.51 7.644 7.644 0 0 0 1.647-2.278c.42-.879.631-1.848.631-2.91 0-1.134-.283-2.169-.851-3.103a7.69 7.69 0 0 0-2.251-2.36c-.934-.641-2.032-1.134-3.295-1.483a14.754 14.754 0 0 0-3.926-.521h-6.809v-16.91h1.099c0 1.867.393 3.286 1.181 4.255.786.97 1.784 1.455 2.992 1.455 1.684 0 3.357-.293 5.023-.879a91.015 91.015 0 0 0 5.052-1.949 70.335 70.335 0 0 1 5.326-1.977c1.848-.604 3.815-.906 5.902-.906 1.024 0 1.958.202 2.8.604a6.817 6.817 0 0 1 2.169 1.62 6.967 6.967 0 0 1 1.373 2.333c.311.878.467 1.776.467 2.69v10.981c-.11-.22-.366-.512-.769-.879-.403-.365-1.163-.731-2.279-1.098-1.116-.366-2.69-.677-4.722-.934-2.029-.252-4.71-.381-8.041-.381zm37.446-14.935c3.185 0 5.856.439 8.017 1.318 2.159.878 3.898 2.068 5.216 3.569s2.26 3.267 2.828 5.298c.566 2.032.851 4.2.851 6.506 0 2.38-.22 4.594-.658 6.644-.439 2.05-1.282 3.835-2.526 5.354-1.244 1.52-2.965 2.718-5.161 3.596-2.196.879-5.052 1.318-8.565 1.318-3.478 0-6.296-.439-8.455-1.318-2.161-.878-3.854-2.076-5.079-3.596-1.227-1.519-2.06-3.304-2.498-5.354-.439-2.05-.659-4.264-.659-6.644 0-2.306.283-4.475.851-6.506.567-2.031 1.501-3.797 2.801-5.298 1.299-1.5 3.01-2.69 5.134-3.569 2.119-.879 4.754-1.318 7.903-1.318zm.659 1.098h-1.099v31.406h1.099V66.865zM80.46 107.779c0-.539.083-1.021.25-1.444s.392-.782.675-1.075a2.88 2.88 0 0 1 .99-.67c.376-.153.775-.23 1.195-.23.407 0 .775.086 1.105.256.33.17.605.368.825.595l-.81.91a2.317 2.317 0 0 0-.505-.36c-.17-.086-.369-.13-.595-.13s-.438.048-.635.146a1.512 1.512 0 0 0-.515.414c-.146.181-.262.4-.345.66-.083.26-.125.554-.125.881 0 .673.143 1.194.43 1.564s.67.555 1.15.555c.267 0 .5-.053.7-.16.2-.105.38-.246.54-.42l.81.891a2.69 2.69 0 0 1-.935.72 2.7 2.7 0 0 1-1.135.24 3.26 3.26 0 0 1-1.19-.216 2.763 2.763 0 0 1-.98-.635c-.28-.279-.5-.628-.66-1.045-.16-.417-.24-.9-.24-1.447zm11.13-3.299h1.47v5.279h2.58V111h-4.05v-6.52zm12.47 6.64c-.44 0-.842-.079-1.205-.235s-.675-.381-.935-.675a3.113 3.113 0 0 1-.605-1.069 4.424 4.424 0 0 1-.215-1.431c0-.533.072-1.009.215-1.425.144-.416.345-.767.605-1.051.26-.283.572-.5.935-.649s.765-.226 1.205-.226.842.076 1.205.226.675.368.935.655.462.639.605 1.055c.144.417.215.889.215 1.415 0 .534-.071 1.011-.215 1.431s-.346.775-.605 1.069-.571.519-.935.675-.765.235-1.205.235zm0-1.27c.447 0 .8-.191 1.06-.574.26-.384.39-.905.39-1.565 0-.653-.13-1.163-.39-1.53-.26-.366-.613-.55-1.06-.55s-.8.184-1.06.55c-.26.367-.39.877-.39 1.53 0 .66.13 1.182.39 1.565.26.382.613.574 1.06.574zm10.26-4.129h-1.79v-1.24h5.06v1.24h-1.79V111h-1.479v-5.279zm9.289-1.241h1.471v2.51h2.25v-2.51h1.479V111h-1.479v-2.721h-2.25V111h-1.471v-6.52zm11.741 0h1.471V111h-1.471v-6.52zm8.009 0h1.511l1.7 3.24.64 1.439h.04c-.033-.347-.072-.733-.115-1.16s-.064-.834-.064-1.221v-2.299h1.399V111h-1.51l-1.7-3.25-.64-1.42h-.04c.033.359.071.746.115 1.16.043.413.064.812.064 1.199V111h-1.4v-6.52zm11.34 3.299c0-.539.085-1.021.255-1.444s.4-.782.69-1.075.63-.516 1.02-.67c.391-.153.806-.23 1.245-.23.46 0 .858.088 1.195.261.336.173.611.37.825.59l-.811.91a2.026 2.026 0 0 0-.505-.36c-.177-.086-.405-.13-.685-.13a1.62 1.62 0 0 0-.695.146 1.56 1.56 0 0 0-.545.414c-.153.181-.271.4-.355.66-.083.26-.125.554-.125.881 0 .673.151 1.194.455 1.564s.762.555 1.375.555c.134 0 .264-.016.391-.05a.808.808 0 0 0 .31-.149v-1.121h-1.08v-1.199h2.38v3c-.233.22-.54.406-.92.561-.38.152-.8.229-1.26.229a3.46 3.46 0 0 1-1.235-.216 2.836 2.836 0 0 1-1.005-.635 2.926 2.926 0 0 1-.675-1.045c-.163-.417-.245-.9-.245-1.447z" fill="#333"/></svg>