<svg xmlns="http://www.w3.org/2000/svg" width="240" height="80" viewBox="0 0 240 80"><path fill="#555" d="M109.77 40.727a.524.524 0 0 1-.501-.521c0-15.167-12.329-27.5-27.473-27.5-.282 0-.517-.213-.517-.496s.235-.472.517-.472c15.687 0 28.469 12.78 28.469 28.467 0 .283-.191.522-.495.522z"/><path fill="#555" d="M81.796 68.693c-.282 0-.517-.234-.517-.494s.235-.473.517-.473c15.144 0 27.473-12.355 27.473-27.521 0-.285.24-.474.501-.474.304 0 .496.189.496.474-.001 15.709-12.784 28.488-28.47 28.488z"/><path fill="#555" d="M81.796 68.693c-15.708 0-28.491-12.779-28.491-28.487 0-.285.213-.474.496-.474.24 0 .474.189.474.474 0 15.165 12.331 27.521 27.521 27.521.261 0 .475.213.475.474a.493.493 0 0 1-.475.492z"/><path fill="#555" d="M53.801 40.727a.505.505 0 0 1-.496-.521c0-15.687 12.783-28.467 28.491-28.467a.46.46 0 0 1 .475.472.481.481 0 0 1-.475.496c-15.191 0-27.521 12.333-27.521 27.5-.001.281-.234.52-.474.52z"/><g fill="#555"><path d="M68.595 56.24c-.077 0-.131 0-.207-.026-.291-.13-.421-.444-.32-.708l13.209-34.359c.076-.287.42-.394.704-.313.267.104.396.42.313.708L69.068 55.9a.511.511 0 0 1-.473.34z"/><path d="M94.999 56.24c-.236 0-.473-.156-.521-.34L81.276 21.541a.539.539 0 0 1 .313-.708c.29-.08.604.026.704.313l13.209 34.359c.13.265-.054.578-.344.708-.052.027-.105.027-.159.027zM81.797 43.799h-8.425a.555.555 0 0 1-.551-.551c0-.314.237-.523.551-.523h8.425a.51.51 0 0 1 .527.523c0 .29-.237.551-.527.551z"/></g><text transform="translate(124.166 52.5)" fill="#555" font-family="'Code-Bold'" font-size="38.094">AIR</text></svg>