<svg xmlns="http://www.w3.org/2000/svg" width="240" height="80" viewBox="0 50 240 80"><g fill="#FFF"><path d="M71.708 87.672c5.052 1.73 4.871 6.647 4.871 6.647 0 8.876-9.104 9.284-11.244 9.284H54.958c-.272 0-.454-.184-.454-.365V72.106c0-.182.182-.364.454-.364h10.377s10.787-.227 10.787 9.103c0 3.733-2.001 5.827-4.414 6.827zm-11.151-2.959h4.778s4.689 0 4.689-3.504c0-3.823-4.689-3.777-4.689-3.777h-4.778v7.281zm9.922 9.467c0-3.776-5.144-3.502-5.144-3.502h-4.778v7.1h4.778c2.004-.001 5.144-.547 5.144-3.598zm8.786 9.424c-.364 0-.546-.229-.41-.502L91.28 71.059c.138-.319.683-.319.82 0l12.427 32.042c.136.273-.047.502-.365.502H79.265zm53.01 8.345c-.136 0-.364-.093-.41-.184L116.268 90.63h-2.229v12.607c0 .182-.182.365-.455.365h-5.19c-.272 0-.455-.184-.455-.365v-18.16c0-.182.182-.365.455-.365h4.233c-1.548-2.412-3.141-4.96-4.688-7.372v-5.235c0-.182.182-.364.455-.364h10.379s10.832 0 10.832 9.422c0 5.598-3.596 7.829-6.692 8.784l15.782 21.455c.18.272 0 .546-.32.546h-6.1zm-12.91-27.281c1.729-.045 4.141-.773 4.141-3.503 0-3.506-3.687-3.506-4.732-3.506h-3.824l4.415 7.009z"/><path d="M134.75 83.212c0-6.508 5.418-11.925 12.017-11.925s12.017 5.417 12.017 11.925c0 6.555-5.418 11.926-12.017 11.926s-12.017-5.371-12.017-11.926zm22.621 20.026c0 .182-.181.365-.455.365h-20.527c-.271 0-.455-.184-.455-.365v-5.143c0-.183.184-.363.455-.363h20.527c.274 0 .455.181.455.363v5.143zm-16.566-20.026c0 3.415 2.685 6.054 5.962 6.054 3.321 0 5.962-2.639 5.962-6.054 0-3.367-2.641-6.052-5.962-6.052-3.278 0-5.962 2.685-5.962 6.052zm50.841 20.026c0 .182-.182.365-.456.365h-5.233c-.091 0-.319-.045-.364-.137l-14.656-20.983v20.754c0 .182-.182.365-.453.365h-5.236c-.227 0-.408-.184-.408-.365V72.106c0-.182.182-.364.408-.364h5.28c.091 0 .319.045.362.137l14.703 20.982V72.106c0-.182.182-.364.455-.364h5.143c.274 0 .456.182.456.364v31.132z"/></g></svg>