<svg xmlns="http://www.w3.org/2000/svg" width="240" height="80" viewBox="0 0 240 80"><path fill="#333" d="M29.55 10v59.955h48.157l.02-2.335H32.021V12.508h177.676V67.62h-46.184l-.041 2.335h48.715V10H29.55zm58.913 58.508c.417-.066.697-.365.697-.802 0-.659-.455-1.083-1.463-1.083h-1.912v3.922h2.042c.914 0 1.451-.398 1.451-1.077.001-.561-.354-.864-.815-.96zm-1.65-1.045h.748c.361 0 .504.162.504.367 0 .188-.143.35-.504.35h-.748v-.717zm.848 2.235h-.848v-.729h.841c.373 0 .535.156.535.368s-.162.361-.528.361zm4.076-3.075l-1.562 3.922h1.064l.292-.759h1.532l.292.759h1.127l-1.562-3.922h-1.183zm.099 2.371l.449-1.157h.025l.448 1.157h-.922zm6.355-.117c.479-.062.833-.438.833-1.01 0-.766-.503-1.244-1.519-1.244h-1.979v3.922h1.04v-1.302h.704c.354 0 .548.1.579.548.031.404.081.646.161.754h1.071c-.13-.145-.148-.318-.205-.902-.043-.455-.28-.687-.685-.766zm-.871-.447h-.753v-.959h.753c.447 0 .673.166.673.484 0 .359-.226.475-.673.475zm7.899 1.236c.279-.354.478-.759.597-1.126l-.909-.037a2.86 2.86 0 0 1-.274.585l-.541-.529c.535-.285.765-.548.765-1.063 0-.522-.429-.946-1.213-.946-.697 0-1.313.387-1.313 1.07 0 .367.143.593.367.841-.536.274-.797.572-.797 1.045 0 .742.629 1.115 1.458 1.115.442 0 .827-.124 1.158-.323.348.268.622.299.808.299.299 0 .53-.074.642-.162v-.61a1.296 1.296 0 0 1-.323.045c-.194-.004-.282-.065-.425-.204zm-1.805.182c-.287 0-.504-.117-.504-.397 0-.2.117-.343.304-.461l.729.747a1.352 1.352 0 0 1-.529.111zm.174-1.782c-.144-.137-.293-.293-.293-.479 0-.188.137-.33.349-.33.21 0 .324.143.324.317 0 .219-.093.344-.38.492zm8.017.811c.479-.062.834-.438.834-1.01 0-.766-.504-1.244-1.52-1.244h-1.98v3.922h1.04v-1.302h.704c.355 0 .548.1.579.548.032.404.083.646.163.754h1.072c-.132-.145-.15-.318-.206-.902-.045-.455-.281-.687-.686-.766zm-.871-.447h-.754v-.959h.754c.448 0 .671.166.671.484 0 .359-.223.475-.671.475zm3.957.564h1.538v-.858h-1.538v-.642h1.993v-.871h-3.031v3.922h3.087v-.872h-2.049v-.679zm5.361-.842l-.741-.129c-.242-.043-.393-.112-.393-.293 0-.219.2-.354.548-.354.405 0 .697.188.729.592l.971-.02c-.018-.871-.604-1.4-1.686-1.4-.979 0-1.602.479-1.602 1.276 0 .684.448 1.046 1.091 1.164l.715.123c.299.058.53.095.53.324 0 .219-.237.351-.604.351-.436 0-.815-.17-.854-.661l-.971.029c0 .947.76 1.465 1.824 1.465.915 0 1.638-.417 1.638-1.251 0-.641-.375-1.07-1.195-1.216zm2.283-.658h1.347v3.051h1.051v-3.051h1.363v-.871h-3.761v.871zm6.226-.871l-1.562 3.922h1.064l.293-.759h1.531l.293.759h1.127l-1.562-3.922h-1.184zm.097 2.371l.449-1.157h.024l.448 1.157h-.921zm6.176-.18c0 .597-.182.914-.729.914-.543 0-.729-.317-.729-.914v-2.191h-1.053v2.365c0 1.146.771 1.631 1.779 1.631 1.01 0 1.787-.485 1.787-1.631v-2.365h-1.059v2.191h.004zm5.035.063c.479-.062.835-.438.835-1.01 0-.766-.505-1.244-1.519-1.244h-1.98v3.922h1.04v-1.302h.703c.354 0 .548.1.579.548.031.404.08.646.16.754h1.071c-.13-.145-.149-.318-.206-.902-.04-.455-.279-.687-.683-.766zm-.871-.447h-.753v-.959h.753c.447 0 .673.166.673.484 0 .359-.226.475-.673.475zm4.184-1.807l-1.562 3.922h1.064l.291-.759h1.531l.293.759h1.127l-1.562-3.922h-1.182zm.097 2.371l.449-1.157h.023l.448 1.157h-.92zm6.233-.199l-1.531-2.172h-1.008v3.922h.971v-2.322l1.691 2.322h.848v-3.922h-.971v2.172zm2.172-1.301h1.344v3.051h1.054v-3.051h1.362v-.871h-3.76v.871zM51.513 33.196h5.748v-5.748s.056-9.049-8.195-9.049c-8.252 0-8.196 9.049-8.196 9.049V52.09s-.057 9.049 8.196 9.049c8.251 0 8.195-9.049 8.195-9.049v-5.748h-5.748v5.748s.228 3.073-2.333 3.073c-2.163 0-2.163-3.073-2.163-3.073V27.449s0-3.073 2.163-3.073c2.561 0 2.333 3.073 2.333 3.073v5.747zm11.722 27.49h5.976l1.138-8.537h5.919l1.138 8.537h5.976l-6.318-41.83h-7.511l-6.318 41.83zm9.732-28.229l.17-1.082h.341l.171 1.082 1.765 13.203h-4.211l1.764-13.203zm29.535 10.129h-.342l-.512-1.934-5.977-21.797h-5.462v41.829h5.635v-23.73h.341l.512 1.934 5.976 21.798h5.464V18.855h-5.634l-.001 23.731zm12.007-17.414h5.805v35.512h6.146V25.172h5.804v-6.317h-17.755v6.317zm30.275-6.317h-6.146v41.829h6.146V18.855zm26.462 41.831V18.855h-5.635v23.73h-.342l-.512-1.935-5.976-21.796h-5.464v41.83h5.634v-23.73h.342l.513 1.934 5.976 21.798h5.464zm19.859-8.54l1.14 8.537h5.976l-6.316-41.829h-7.512l-6.317 41.829h5.976l1.139-8.537h5.914zm-3.298-19.689l.172-1.082h.34l.172 1.082 1.764 13.203h-4.211l1.763-13.203z"/></svg>