<svg xmlns="http://www.w3.org/2000/svg" width="240" height="80" viewBox="0 0 240 80"><path d="M94.612 40.186h-3.713V25.764h-4.755v-3.09h13.224v3.09h-4.755l-.001 14.422zm17.536 0h-10.085V22.674h10.085v3.042h-6.373v3.846h5.929v3.042h-5.929v4.516h6.373v3.066zm11.09-14.673c-1.396 0-2.479.525-3.245 1.575-.767 1.05-1.15 2.514-1.15 4.39 0 3.905 1.465 5.857 4.396 5.857 1.229 0 2.722-.308 4.47-.923v3.114c-1.438.6-3.042.898-4.813.898-2.547 0-4.498-.772-5.847-2.317-1.35-1.545-2.024-3.763-2.024-6.654 0-1.82.332-3.415.994-4.785.663-1.369 1.615-2.419 2.857-3.149 1.242-.731 2.695-1.097 4.366-1.097 1.7 0 3.407.412 5.127 1.234l-1.198 3.019a19.176 19.176 0 0 0-1.979-.815 5.885 5.885 0 0 0-1.954-.347zm22.544 14.673h-3.701v-7.559h-6.937v7.559h-3.713V22.674h3.713v6.863h6.937v-6.863h3.701v17.512zm9.87-10.301l3.652-7.211h4.002l-5.812 10.696v6.815h-3.688V33.49l-5.811-10.816h4.023l3.634 7.211zM97.349 59.811l-1.27-4.168h-6.384l-1.27 4.168h-4l6.181-17.584h4.54l6.205 17.584h-4.002zm-2.156-7.284a1213.039 1213.039 0 0 1-1.982-6.407 18.668 18.668 0 0 1-.317-1.175c-.263 1.021-1.018 3.55-2.264 7.582h4.563zm25.416 7.284h-4.229l-2.372-9.199c-.088-.325-.238-1.004-.449-2.028s-.333-1.715-.365-2.065c-.048.433-.167 1.125-.359 2.078a44.989 44.989 0 0 1-.443 2.043l-2.36 9.176h-4.216L101.349 42.3h3.653l2.24 9.56c.391 1.766.675 3.293.851 4.586.048-.453.158-1.157.33-2.111.171-.954.333-1.693.485-2.225l2.551-9.81h3.51l2.551 9.81c.112.439.251 1.111.419 2.015s.295 1.677.383 2.321c.08-.62.208-1.397.383-2.327.176-.933.335-1.685.479-2.259l2.227-9.56h3.653l-4.455 17.511zm17.381 0l-1.27-4.168h-6.386l-1.271 4.168h-4l6.182-17.584h4.54l6.204 17.584h-3.999zm-2.156-7.284a1213.039 1213.039 0 0 1-1.982-6.407 17.628 17.628 0 0 1-.314-1.175c-.266 1.021-1.02 3.55-2.266 7.582h4.562zm12.074.564v6.72h-3.713V42.299h5.103c2.38 0 4.14.434 5.282 1.301 1.143.865 1.713 2.183 1.713 3.945 0 1.03-.283 1.946-.852 2.749-.567.804-1.369 1.433-2.406 1.888 2.635 3.938 4.352 6.479 5.15 7.629h-4.121l-4.182-6.72h-1.974zm0-3.019h1.197c1.174 0 2.041-.195 2.6-.588.559-.392.839-1.006.839-1.844 0-.83-.286-1.423-.856-1.772-.569-.353-1.455-.527-2.651-.527h-1.126l-.003 4.731zm27.011.815c0 2.883-.821 5.092-2.462 6.624-1.641 1.533-4.01 2.3-7.107 2.3h-4.959V42.299h5.496c2.859 0 5.08.756 6.66 2.264 1.582 1.507 2.372 3.617 2.372 6.324zm-3.857.095c0-3.762-1.662-5.644-4.983-5.644h-1.978v11.403h1.594c3.578.003 5.367-1.917 5.367-5.759zm17.823 3.965c0 1.58-.568 2.826-1.707 3.736-1.137.909-2.721 1.364-4.748 1.364-1.869 0-3.521-.351-4.959-1.054v-3.45c1.182.526 2.182.897 3 1.114.818.216 1.566.322 2.246.322.814 0 1.439-.154 1.875-.467.436-.312.652-.773.652-1.391 0-.344-.096-.648-.287-.916s-.475-.525-.846-.771c-.371-.248-1.127-.644-2.271-1.188-1.068-.503-1.873-.984-2.406-1.449a5.462 5.462 0 0 1-1.281-1.615c-.318-.615-.479-1.334-.479-2.156 0-1.551.524-2.769 1.575-3.652 1.05-.887 2.501-1.33 4.354-1.33.91 0 1.778.107 2.604.323.827.216 1.69.521 2.593.909l-1.197 2.889c-.934-.384-1.707-.65-2.316-.803a7.443 7.443 0 0 0-1.805-.229c-.701 0-1.239.163-1.614.491-.378.327-.563.754-.563 1.281 0 .326.076.613.229.854.149.244.393.479.725.707.33.229 1.115.638 2.354 1.229 1.638.781 2.76 1.566 3.365 2.354.604.793.907 1.758.907 2.898zM79.5 60h-23V22.5h23l.003 2.253-17.42 2.5v1.648h17.42v1.918l-17.42 2.5v1.648h17.42v2.024l-17.42 2.5v1.647h17.42v1.918l-17.42 2.5v1.646h17.42L79.5 60z" fill="#555"/></svg>