<svg xmlns="http://www.w3.org/2000/svg" width="240" height="80" viewBox="0 0 240 80"><path d="M94.112 40.186h-3.713V25.764h-4.755v-3.09h13.224v3.09h-4.755v14.422zm17.536 0h-10.085V22.674h10.085v3.042h-6.373v3.846h5.929v3.042h-5.929v4.516h6.373v3.066zm11.091-14.673c-1.397 0-2.479.525-3.246 1.575s-1.15 2.514-1.15 4.39c0 3.905 1.465 5.857 4.396 5.857 1.229 0 2.72-.308 4.468-.923v3.114c-1.438.6-3.042.898-4.814.898-2.548 0-4.497-.772-5.846-2.317-1.35-1.545-2.024-3.763-2.024-6.654 0-1.82.332-3.415.994-4.785.663-1.369 1.615-2.419 2.857-3.149 1.242-.731 2.697-1.097 4.366-1.097 1.701 0 3.409.412 5.127 1.234l-1.198 3.019a19.612 19.612 0 0 0-1.977-.815 5.883 5.883 0 0 0-1.953-.347zm22.543 14.673h-3.701v-7.559h-6.936v7.559h-3.713V22.674h3.713v6.863h6.936v-6.863h3.701v17.512zm9.87-10.301l3.652-7.211h4.002l-5.811 10.696v6.815h-3.688V33.49l-5.81-10.816h4.024l3.631 7.211z" opacity=".6" fill="#FFF"/><path d="M96.849 59.811l-1.27-4.168h-6.384l-1.27 4.168h-4l6.181-17.584h4.54l6.205 17.584h-4.002zm-2.156-7.283a1230.148 1230.148 0 0 1-1.982-6.408 18.672 18.672 0 0 1-.317-1.174c-.263 1.021-1.018 3.549-2.264 7.582h4.563zm25.417 7.283h-4.229l-2.372-9.199c-.088-.327-.238-1.004-.449-2.03s-.333-1.715-.365-2.066c-.048.432-.167 1.124-.359 2.078a44.989 44.989 0 0 1-.443 2.043l-2.36 9.175h-4.216L100.849 42.3h3.653l2.24 9.559c.391 1.765.675 3.294.851 4.587.048-.455.158-1.159.33-2.113.171-.954.333-1.695.485-2.223l2.551-9.81h3.51l2.551 9.81c.112.439.251 1.11.419 2.013.168.902.295 1.677.383 2.323.08-.622.208-1.399.383-2.329.176-.931.335-1.684.479-2.258l2.227-9.559h3.654l-4.455 17.511zm17.38 0l-1.27-4.168h-6.384l-1.271 4.168h-4l6.181-17.584h4.54l6.204 17.584h-4zm-2.156-7.283a1230.148 1230.148 0 0 1-1.982-6.408 18.538 18.538 0 0 1-.316-1.174c-.264 1.021-1.019 3.549-2.264 7.582h4.562zm12.074.563v6.72h-3.713V42.299h5.103c2.38 0 4.14.434 5.282 1.3s1.713 2.182 1.713 3.946c0 1.03-.283 1.946-.851 2.749s-1.37 1.432-2.407 1.887c2.635 3.937 4.352 6.48 5.15 7.63h-4.121l-4.18-6.72h-1.976zm0-3.019h1.197c1.174 0 2.041-.195 2.6-.587.559-.391.839-1.006.839-1.845 0-.83-.286-1.421-.856-1.772-.571-.352-1.455-.527-2.653-.527h-1.126v4.731zm27.011.815c0 2.883-.821 5.091-2.462 6.624s-4.01 2.3-7.108 2.3h-4.959V42.299h5.497c2.859 0 5.08.755 6.66 2.264 1.582 1.508 2.372 3.617 2.372 6.324zm-3.857.095c0-3.761-1.662-5.642-4.983-5.642h-1.977v11.403h1.593c3.578.001 5.367-1.919 5.367-5.761zm17.823 3.965c0 1.581-.568 2.827-1.707 3.737-1.137.91-2.721 1.365-4.748 1.365-1.869 0-3.521-.351-4.959-1.054v-3.45c1.182.527 2.182.898 3 1.114s1.566.323 2.246.323c.814 0 1.439-.155 1.875-.467.435-.312.652-.774.652-1.39 0-.343-.096-.648-.287-.916-.192-.268-.474-.525-.846-.772-.371-.248-1.127-.643-2.27-1.187-1.07-.503-1.873-.985-2.407-1.449a5.457 5.457 0 0 1-1.282-1.616c-.318-.615-.479-1.334-.479-2.156 0-1.55.525-2.768 1.575-3.653 1.05-.887 2.501-1.33 4.354-1.33.91 0 1.778.108 2.604.323a18 18 0 0 1 2.593.911l-1.197 2.887c-.934-.384-1.707-.651-2.318-.803a7.487 7.487 0 0 0-1.803-.228c-.702 0-1.241.163-1.616.491-.376.327-.563.754-.563 1.281 0 .327.076.613.229.856.15.244.393.479.725.707.33.228 1.115.637 2.354 1.228 1.637.782 2.759 1.567 3.365 2.354.607.789.91 1.753.91 2.894zM79 60H56V22.5h23l.003 2.253-17.42 2.5v1.648h17.42v1.918l-17.42 2.5v1.648h17.42v2.024l-17.42 2.5v1.647h17.42v1.918l-17.42 2.5v1.647h17.42L79 60z" fill="#FFF"/></svg>