<svg xmlns="http://www.w3.org/2000/svg" width="240" height="80" viewBox="0 0 240 80"><path fill="none" d="M32 25.951h109.477V72.5H32z"/><path d="M46.169 30.608c-9.756 0-9.756 15.032 0 15.032 2.138 0 3.827-.621 4.758-1.104l.655 5.104c-1.517.62-3.688 1.034-5.413 1.034-16.72 0-16.685-25.029 0-25.029 1.724 0 3.378.31 4.861.965l-.586 5.068c-.931-.483-2.137-1.07-4.275-1.07zm8.829 13.239c2.826 2 5.895 2.068 7.033 1.966 1.448-.104 2.689-1.138 2.551-2.482-.104-1.413-1.172-2.033-2.551-2.517-3.861-1.414-7.309-3.379-7.309-7.516s2.861-7.309 6.964-7.515c1.275-.069 2.964-.069 6.137 1.034l-.621 4.757c-2.724-1.103-4.275-1.069-5.033-1.034-1.759.103-2.551 1.379-2.447 2.757.138 1.379 1.345 2 2.758 2.482 3.827 1.414 7.136 3.62 7.136 7.55 0 4.103-2.827 7.239-7.447 7.481-1.379.104-4.447-.069-7.791-1.793l.62-5.17zm18.24 0c2.827 2 5.896 2.068 7.034 1.966 1.448-.104 2.688-1.138 2.551-2.482-.104-1.413-1.172-2.033-2.551-2.517-3.862-1.414-7.309-3.379-7.309-7.516s2.861-7.309 6.964-7.515c1.275-.069 2.965-.069 6.137 1.034l-.621 4.757c-2.724-1.103-4.275-1.069-5.033-1.034-1.759.103-2.551 1.379-2.448 2.757.138 1.379 1.344 2 2.758 2.482 3.827 1.414 7.136 3.62 7.136 7.55 0 4.103-2.826 7.239-7.447 7.481-1.38.104-4.447-.069-7.791-1.793l.62-5.17zm45.104-16.136c-3.051-2.801-7.998-2.801-11.049 0l-2.072 1.899-2.074-1.899c-3.051-2.801-7.996-2.801-11.046 0-3.433 3.15-3.433 8.246 0 11.396l13.12 12.043 13.121-12.043c3.431-3.149 3.431-8.247 0-11.396zm-1.946 9.524l-11.176 10.43-11.178-10.43c-1.127-1.034-1.562-2.385-1.562-3.821 0-1.436.252-2.615 1.381-3.648.995-.915 2.332-1.417 3.765-1.417 1.429 0 2.768.868 3.763 1.784l3.833 3.331 3.832-3.332c.996-.917 2.332-1.785 3.765-1.785 1.434 0 2.77.504 3.765 1.418 1.128 1.033 1.377 2.212 1.377 3.648-.003 1.435-.436 2.788-1.565 3.822zm13.356-10.504v19.72h7.826v4.93h-12.757v-24.65h4.931zm23.928-.414c16.962 0 16.962 25.408 0 25.408s-16.962-25.408 0-25.408zm0 5.068c-9.859 0-9.859 15.238 0 15.238 9.86 0 9.86-15.238 0-15.238zm25 20.512L168.475 26.73h5.688l3.275 8.205 1.792 5.102 1.759-4.93 3.31-8.377h5.688l-10.204 25.167h-1.103zm14.309-.516v-24.65h12.342v4.93h-7.411v4.93h6.48v4.931h-6.48v4.93h7.825v4.93h-12.756z" fill="#CCC"/></svg>