<svg xmlns="http://www.w3.org/2000/svg" width="240" height="80" viewBox="0 0 240 80"><path d="M58.286 29.32c-2.165 0-3.841.813-5.028 2.44-1.188 1.626-1.781 3.894-1.781 6.8 0 6.049 2.27 9.073 6.81 9.073 1.905 0 4.212-.476 6.921-1.429v4.823c-2.227.929-4.713 1.393-7.459 1.393-3.946 0-6.964-1.197-9.055-3.59-2.091-2.395-3.136-5.829-3.136-10.308 0-2.82.513-5.291 1.54-7.413 1.026-2.121 2.501-3.748 4.425-4.879 1.923-1.132 4.178-1.698 6.763-1.698 2.635 0 5.282.637 7.941 1.911l-1.855 4.676a31.171 31.171 0 0 0-3.062-1.262c-1.026-.357-2.035-.537-3.024-.537zM86.99 44.518c0 2.448-.881 4.379-2.644 5.789-1.763 1.409-4.215 2.114-7.357 2.114-2.895 0-5.455-.544-7.682-1.633v-5.345c1.831.815 3.38 1.393 4.648 1.727s2.427.501 3.479.501c1.262 0 2.229-.241 2.904-.724.674-.482 1.011-1.199 1.011-2.152 0-.531-.148-1.005-.445-1.419-.297-.415-.733-.813-1.308-1.196-.575-.384-1.748-.996-3.516-1.838-1.658-.779-2.901-1.527-3.729-2.245a8.4 8.4 0 0 1-1.985-2.505c-.495-.952-.742-2.065-.742-3.34 0-2.399.813-4.286 2.44-5.659 1.626-1.373 3.875-2.06 6.745-2.06 1.41 0 2.755.167 4.036.501 1.281.334 2.619.804 4.017 1.41l-1.855 4.472c-1.447-.594-2.644-1.008-3.59-1.243a11.605 11.605 0 0 0-2.792-.353c-1.089 0-1.924.254-2.505.761-.582.508-.872 1.169-.872 1.985 0 .508.117.949.353 1.327.235.377.609.742 1.123 1.094.513.354 1.729.987 3.646 1.902 2.536 1.213 4.273 2.428 5.214 3.646.936 1.219 1.406 2.713 1.406 4.483zm20.93 0c0 2.448-.881 4.379-2.644 5.789-1.763 1.409-4.215 2.114-7.357 2.114-2.895 0-5.455-.544-7.682-1.633v-5.345c1.831.815 3.38 1.393 4.648 1.727 1.268.334 2.427.501 3.479.501 1.262 0 2.229-.241 2.904-.724.674-.482 1.011-1.199 1.011-2.152 0-.531-.148-1.005-.445-1.419-.297-.415-.733-.813-1.308-1.196-.575-.384-1.748-.996-3.516-1.838-1.658-.779-2.901-1.527-3.729-2.245a8.4 8.4 0 0 1-1.985-2.505c-.495-.952-.742-2.065-.742-3.34 0-2.399.813-4.286 2.44-5.659 1.626-1.373 3.875-2.06 6.745-2.06 1.41 0 2.755.167 4.036.501 1.281.334 2.619.804 4.017 1.41l-1.855 4.472c-1.447-.594-2.644-1.008-3.59-1.243a11.605 11.605 0 0 0-2.792-.353c-1.089 0-1.924.254-2.505.761-.582.508-.872 1.169-.872 1.985 0 .508.117.949.353 1.327.235.377.609.742 1.123 1.094.513.354 1.729.987 3.646 1.902 2.536 1.213 4.273 2.428 5.214 3.646.936 1.219 1.406 2.713 1.406 4.483zm18.406-2.041h-11.021l-3.785 9.573h-2.097l10.91-27.238h1.206l10.688 27.238h-2.134l-3.767-9.573zm-10.335-1.707h9.704l-3.692-9.777c-.31-.767-.681-1.83-1.112-3.191a29.698 29.698 0 0 1-1.096 3.229l-3.804 9.739zm41.693 11.28h-1.559l-5.956-20.93c-.495-1.719-.866-3.129-1.112-4.23a52.127 52.127 0 0 1-.846 3.711c-.365 1.398-2.359 8.548-5.982 21.449h-1.597l-7.459-27.127h1.985l4.75 17.479c.186.705.357 1.355.52 1.957.16.601.307 1.162.438 1.688s.246 1.032.354 1.521c.104.488.2.979.287 1.476.299-1.683.93-4.235 1.895-7.663l4.639-16.458h2.098l5.437 18.89c.632 2.179 1.082 3.935 1.354 5.271.16-.892.367-1.837.621-2.839s2.161-8.108 5.725-21.319h1.91l-7.502 27.124zm32.878-13.823c0 4.552-1.193 7.994-3.582 10.325-2.389 2.332-5.896 3.498-10.521 3.498h-6.494V24.923h7.329c4.329 0 7.622 1.132 9.88 3.396 2.26 2.264 3.388 5.566 3.388 9.908zm-2.059.074c0-3.884-.987-6.807-2.96-8.767-1.973-1.961-4.87-2.941-8.691-2.941h-4.992V50.38h4.49c8.101 0 12.153-4.026 12.153-12.079z" fill="#555"/></svg>