<svg xmlns="http://www.w3.org/2000/svg" width="240" height="80" viewBox="0 0 240 80"><path d="M56.321 40.627c0 4.466-1.271 7.886-3.813 10.261s-6.213 3.562-11.012 3.562h-7.682V27.323h8.517c4.428 0 7.867 1.169 10.316 3.507s3.674 5.604 3.674 9.797zm-5.974.148c0-5.826-2.573-8.739-7.719-8.739h-3.062V49.7h2.468c5.542 0 8.313-2.974 8.313-8.925zM77.566 54.45H61.943V27.323h15.623v4.713h-9.871v5.956h9.185v4.713h-9.185V49.7h9.871v4.75zm21.672-7.533c0 2.449-.881 4.379-2.644 5.789s-4.215 2.115-7.357 2.115c-2.895 0-5.455-.544-7.682-1.633v-5.344c1.831.816 3.38 1.392 4.648 1.726 1.268.334 2.427.501 3.479.501 1.262 0 2.229-.241 2.904-.724.674-.482 1.011-1.199 1.011-2.152 0-.531-.148-1.005-.445-1.419-.297-.415-.733-.813-1.308-1.197-.575-.383-1.748-.995-3.516-1.837-1.658-.779-2.901-1.527-3.729-2.245a8.4 8.4 0 0 1-1.985-2.505c-.495-.952-.742-2.065-.742-3.34 0-2.399.813-4.286 2.44-5.659 1.626-1.373 3.875-2.06 6.745-2.06 1.41 0 2.755.167 4.036.501s2.619.804 4.017 1.41l-1.855 4.472c-1.447-.594-2.644-1.008-3.59-1.243a11.605 11.605 0 0 0-2.792-.353c-1.089 0-1.924.254-2.505.761-.582.508-.872 1.169-.872 1.985 0 .508.117.949.353 1.327.235.377.609.742 1.123 1.094.513.354 1.729.987 3.646 1.902 2.536 1.213 4.273 2.428 5.214 3.646.936 1.219 1.406 2.713 1.406 4.482zm4.917 7.533V27.323h5.752V54.45h-5.752zm22.878-15.233h10.762v14.064c-1.744.569-3.387.968-4.926 1.196a32.087 32.087 0 0 1-4.723.344c-4.095 0-7.221-1.203-9.379-3.609-2.159-2.405-3.238-5.859-3.238-10.362 0-4.379 1.252-7.793 3.757-10.242 2.504-2.449 5.977-3.674 10.418-3.674 2.783 0 5.467.557 8.053 1.67l-1.911 4.602c-1.979-.989-4.039-1.484-6.179-1.484-2.486 0-4.479.835-5.975 2.505-1.497 1.67-2.245 3.915-2.245 6.735 0 2.944.603 5.192 1.81 6.745 1.205 1.552 2.959 2.328 5.26 2.328 1.199 0 2.418-.123 3.655-.371v-5.659h-5.14v-4.788zm41.284 15.233h-7.311l-11.801-20.521h-.167c.234 3.625.353 6.21.353 7.756V54.45h-5.14V27.323h7.255l11.782 20.317h.13c-.186-3.525-.278-6.018-.278-7.478v-12.84h5.177V54.45zm28.909-27.127v17.553c0 2.004-.448 3.761-1.346 5.27-.896 1.51-2.192 2.666-3.887 3.47-1.695.805-3.699 1.206-6.012 1.206-3.488 0-6.197-.894-8.127-2.682-1.93-1.787-2.895-4.232-2.895-7.338V27.323h5.733V43.93c0 2.091.42 3.625 1.262 4.602.841.978 2.232 1.466 4.175 1.466 1.88 0 3.244-.492 4.092-1.475.847-.984 1.271-2.526 1.271-4.63v-16.57h5.734zm22.655 19.594c0 2.449-.882 4.379-2.644 5.789-1.764 1.41-4.216 2.115-7.357 2.115-2.895 0-5.455-.544-7.682-1.633v-5.344c1.83.816 3.38 1.392 4.648 1.726 1.268.334 2.427.501 3.479.501 1.262 0 2.229-.241 2.904-.724.674-.482 1.011-1.199 1.011-2.152 0-.531-.148-1.005-.445-1.419-.297-.415-.733-.813-1.308-1.197-.576-.383-1.748-.995-3.517-1.837-1.658-.779-2.901-1.527-3.729-2.245a8.4 8.4 0 0 1-1.985-2.505c-.495-.952-.742-2.065-.742-3.34 0-2.399.813-4.286 2.44-5.659 1.626-1.373 3.874-2.06 6.744-2.06 1.41 0 2.756.167 4.035.501 1.281.334 2.619.804 4.018 1.41l-1.855 4.472c-1.447-.594-2.645-1.008-3.59-1.243a11.62 11.62 0 0 0-2.793-.353c-1.089 0-1.924.254-2.505.761-.582.508-.872 1.169-.872 1.985 0 .508.117.949.353 1.327.234.377.609.742 1.122 1.094.514.354 1.729.987 3.646 1.902 2.535 1.213 4.273 2.428 5.214 3.646.939 1.219 1.41 2.713 1.41 4.482zM19.1 21.584l4 1.32v-4.2h3.919v4.16l3.959-1.28 1.24 3.72-3.959 1.319 2.439 3.359-3.16 2.32-2.479-3.359-2.439 3.359-3.199-2.28 2.439-3.399-3.96-1.279 1.2-3.76z" fill="#FFF"/></svg>