<svg xmlns="http://www.w3.org/2000/svg" width="240" height="80" viewBox="0 0 240 80"><path d="M72.654 41.961c0 4.466-1.271 7.887-3.813 10.262s-6.213 3.562-11.012 3.562h-7.682V28.657h8.517c4.428 0 7.867 1.169 10.316 3.507 2.45 2.338 3.674 5.604 3.674 9.797zm-5.973.148c0-5.826-2.573-8.739-7.719-8.739H55.9v17.664h2.468c5.542 0 8.313-2.973 8.313-8.925zm27.218 13.675H78.276V28.657h15.623v4.713h-9.871v5.956h9.185v4.713h-9.185v6.995h9.871v4.75zm21.672-7.533c0 2.449-.881 4.379-2.644 5.789-1.763 1.41-4.215 2.114-7.357 2.114-2.895 0-5.455-.543-7.682-1.633v-5.347c1.831.816 3.38 1.396 4.648 1.729s2.427.5 3.479.5c1.262 0 2.229-.24 2.904-.723.674-.482 1.011-1.199 1.011-2.152 0-.531-.148-1.006-.445-1.42-.297-.414-.733-.812-1.308-1.196-.575-.384-1.748-.995-3.516-1.837-1.658-.779-2.901-1.527-3.729-2.245a8.412 8.412 0 0 1-1.985-2.505c-.495-.952-.742-2.065-.742-3.34 0-2.399.813-4.286 2.44-5.659 1.626-1.373 3.875-2.06 6.745-2.06 1.41 0 2.755.167 4.036.501 1.281.334 2.619.804 4.017 1.41l-1.855 4.473c-1.447-.594-2.644-1.008-3.59-1.243a11.605 11.605 0 0 0-2.792-.353c-1.089 0-1.924.254-2.505.76-.582.509-.872 1.17-.872 1.985 0 .509.117.949.353 1.327.235.377.609.742 1.123 1.094.513.354 1.729.987 3.646 1.902 2.536 1.213 4.273 2.428 5.214 3.646.937 1.22 1.406 2.714 1.406 4.483zm4.917 7.533V28.657h5.752v27.127h-5.752zm22.879-15.233h10.762v14.064c-1.744.568-3.387.968-4.926 1.195a32.087 32.087 0 0 1-4.723.344c-4.1 0-7.225-1.202-9.381-3.608-2.158-2.405-3.238-5.858-3.238-10.362 0-4.375 1.252-7.791 3.758-10.242 2.504-2.448 5.979-3.673 10.418-3.673 2.783 0 5.467.557 8.053 1.67l-1.91 4.602c-1.979-.989-4.039-1.483-6.18-1.483-2.484 0-4.479.834-5.975 2.504-1.498 1.67-2.244 3.916-2.244 6.735 0 2.944.602 5.192 1.809 6.745 1.205 1.552 2.959 2.328 5.262 2.328 1.197 0 2.418-.123 3.654-.371V45.34h-5.141l.002-4.789zm41.283 15.233h-7.312l-11.801-20.521h-.166c.232 3.625.354 6.209.354 7.756v12.765h-5.141V28.657h7.254l11.783 20.317h.129c-.186-3.525-.275-6.021-.275-7.479v-12.84h5.176v27.129h-.001zm3.027-36.549c.191-.618.48-1.158.864-1.62a3.915 3.915 0 0 1 1.447-1.08c.582-.258 1.253-.387 2.009-.387.576 0 1.125.09 1.646.27.522.18.981.438 1.377.774s.711.75.945 1.242c.234.492.352 1.044.352 1.656 0 .636-.103 1.182-.307 1.638-.203.456-.475.861-.811 1.215s-.717.675-1.143.963a92.5 92.5 0 0 1-1.287.854c-.433.282-.853.585-1.261.909a5.699 5.699 0 0 0-1.079 1.134h5.957V29h-9.252c0-.732.104-1.368.315-1.908.209-.54.493-1.022.854-1.449a7.405 7.405 0 0 1 1.269-1.179c.485-.36 1-.726 1.538-1.098.277-.192.57-.387.884-.585.312-.198.597-.417.854-.657s.474-.51.647-.81c.174-.3.261-.642.261-1.026 0-.612-.178-1.089-.531-1.431-.354-.342-.807-.513-1.358-.513-.371 0-.687.087-.944.261a1.93 1.93 0 0 0-.621.684 3.181 3.181 0 0 0-.332.936 5.361 5.361 0 0 0-.101 1.017h-2.447a6.071 6.071 0 0 1 .255-2.007z" fill="#555"/></svg>