<svg xmlns="http://www.w3.org/2000/svg" width="240" height="80" viewBox="0 0 240 80"><path fill="#CCC" d="M168.064 70.498L156.49 58.924h11.574z"/><path fill="#CCC" d="M174.333 59.408H61V9.25h113.333v50.158zM72.535 33.632v-6.667h6.637v-3.982h-6.637V19.49h8.83v-4.039H67.629v18.18l4.906.001zm28.25-18.18h-5.396l-3.665 5.107-3.665-5.107h-5.743l6.464 8.887-6.983 9.293h5.396l4.155-5.801 4.214 5.801h5.742l-6.984-9.581 6.465-8.599zm15.554 0h-4.414l-3.003 11.398h-.114l-2.886-11.398h-4.907l4.762 18.18h5.138l3.029-11.486h.116l3.029 11.486h5.224l4.764-18.18h-4.733l-2.887 11.398h-.115l-3.003-11.398z"/><path d="M71.385 43.087l-.514-1.688h-2.586l-.514 1.688h-1.62l2.503-7.121h1.838l2.513 7.121h-1.62zm-.873-2.949c-.476-1.53-.743-2.396-.803-2.596s-.103-.359-.128-.476c-.106.414-.412 1.438-.917 3.071l1.848.001zm10.294 2.949h-1.712l-.961-3.726c-.036-.133-.096-.406-.182-.822s-.135-.694-.148-.837c-.02.175-.068.455-.146.842-.078.387-.138.662-.18.827l-.956 3.716h-1.708l-1.81-7.093h1.479l.907 3.872c.159.714.273 1.334.344 1.856.02-.185.064-.47.134-.855.069-.386.135-.687.196-.899l1.033-3.974h1.421l1.033 3.974c.045.178.102.449.17.814.068.366.12.68.155.94.032-.252.084-.565.155-.943.071-.376.136-.681.194-.913l.902-3.872h1.479l-1.799 7.093zm7.039 0l-.514-1.688h-2.586l-.514 1.688h-1.62l2.503-7.121h1.838l2.513 7.121h-1.62zm-.873-2.949c-.476-1.53-.743-2.396-.803-2.596s-.103-.359-.128-.476c-.106.414-.412 1.438-.917 3.071l1.848.001zm4.889.227v2.722h-1.504v-7.093h2.066c.964 0 1.677.176 2.14.526.462.352.694.884.694 1.599 0 .417-.115.788-.345 1.113-.23.325-.555.58-.975.765a295.983 295.983 0 0 0 2.086 3.09h-1.668l-1.693-2.722h-.801zm0-1.222h.485c.476 0 .827-.079 1.053-.237.227-.158.34-.407.34-.747 0-.336-.116-.575-.347-.718s-.589-.214-1.074-.214h-.456l-.001 1.916zm10.939.33c0 1.167-.332 2.062-.997 2.683s-1.625.932-2.879.932h-2.008v-7.093h2.227c1.158 0 2.057.306 2.697.917.64.61.96 1.465.96 2.561zm-1.562.039c0-1.523-.672-2.285-2.018-2.285h-.8v4.619h.645c1.449 0 2.173-.78 2.173-2.334zm7.219 1.605c0 .641-.23 1.146-.691 1.514-.461.369-1.102.553-1.923.553-.757 0-1.426-.142-2.008-.427V41.36c.479.214.884.363 1.215.451s.634.131.909.131c.33 0 .583-.062.759-.188.176-.126.265-.313.265-.562a.612.612 0 0 0-.117-.371 1.3 1.3 0 0 0-.342-.313c-.15-.1-.457-.26-.919-.48-.433-.203-.758-.398-.975-.587a2.195 2.195 0 0 1-.519-.654 1.873 1.873 0 0 1-.194-.873c0-.628.212-1.121.638-1.479.425-.359 1.013-.539 1.764-.539.369 0 .72.044 1.055.131.334.088.685.211 1.05.369l-.485 1.169a7.063 7.063 0 0 0-.938-.325 2.999 2.999 0 0 0-.73-.092c-.285 0-.503.066-.655.198a.658.658 0 0 0-.228.52c0 .133.031.248.092.347s.159.194.293.286c.134.093.452.258.953.497.663.317 1.118.635 1.363.954.245.315.368.704.368 1.167z" fill="#8E8E8E"/></svg>