<svg xmlns="http://www.w3.org/2000/svg" width="240" height="80" viewBox="0 0 240 80"><path d="M73.953 27.54H64.21v6.719h9.399v3.966H64.21v13.311h-4.22V23.574h13.963v3.966zm3.748 6.356h4.074v1.576c.749-.785 1.413-1.322 1.992-1.612.591-.302 1.292-.453 2.101-.453 1.075 0 2.197.351 3.369 1.051l-1.865 3.73c-.773-.555-1.527-.833-2.264-.833-2.222 0-3.333 1.678-3.333 5.034v9.146h-4.074V33.896zm12.713 8.693c0-2.547.912-4.714 2.735-6.501s4.044-2.681 6.664-2.681c2.632 0 4.865.9 6.701 2.699 1.811 1.799 2.716 4.008 2.716 6.627 0 2.645-.912 4.86-2.734 6.646-1.835 1.775-4.087 2.662-6.755 2.662-2.644 0-4.859-.905-6.646-2.716-1.788-1.786-2.681-4.031-2.681-6.736zm4.165.072c0 1.763.471 3.157 1.413 4.184.966 1.038 2.239 1.558 3.821 1.558 1.594 0 2.868-.513 3.821-1.539s1.431-2.396 1.431-4.111c0-1.714-.477-3.085-1.431-4.111-.966-1.038-2.24-1.558-3.821-1.558-1.557 0-2.819.52-3.785 1.558-.966 1.038-1.449 2.378-1.449 4.019zm18.128-.072c0-2.547.912-4.714 2.735-6.501s4.044-2.681 6.665-2.681c2.631 0 4.865.9 6.699 2.699 1.812 1.799 2.717 4.008 2.717 6.627 0 2.645-.912 4.86-2.734 6.646-1.836 1.775-4.086 2.662-6.754 2.662-2.645 0-4.86-.905-6.647-2.716-1.788-1.786-2.681-4.031-2.681-6.736zm4.165.072c0 1.763.471 3.157 1.413 4.184.966 1.038 2.239 1.558 3.822 1.558 1.594 0 2.867-.513 3.82-1.539s1.432-2.396 1.432-4.111c0-1.714-.479-3.085-1.432-4.111-.967-1.038-2.24-1.558-3.82-1.558-1.559 0-2.82.52-3.786 1.558-.967 1.038-1.449 2.378-1.449 4.019zm36.021 8.457c0 .834-.027 1.567-.081 2.201a15.37 15.37 0 0 1-.227 1.675c-.29 1.328-.857 2.469-1.702 3.423-1.594 1.835-3.785 2.753-6.574 2.753-2.354 0-4.292-.635-5.813-1.902-1.569-1.304-2.475-3.108-2.716-5.414h4.093c.156.869.416 1.539.778 2.01.845 1.099 2.076 1.648 3.694 1.648 2.982 0 4.474-1.829 4.474-5.487v-2.463c-1.618 1.654-3.483 2.48-5.597 2.48-2.402 0-4.37-.869-5.903-2.607-1.546-1.763-2.318-3.966-2.318-6.61 0-2.571.719-4.756 2.155-6.556 1.545-1.907 3.586-2.861 6.121-2.861 2.222 0 4.068.827 5.542 2.481v-1.992h4.074v17.221zm-3.913-8.366c0-1.714-.459-3.085-1.376-4.111-.93-1.05-2.119-1.576-3.567-1.576-1.546 0-2.765.574-3.658 1.721-.81 1.026-1.214 2.354-1.214 3.984 0 1.605.404 2.922 1.214 3.947.881 1.123 2.101 1.685 3.658 1.685s2.789-.567 3.694-1.702c.833-1.026 1.249-2.343 1.249-3.948zm13.13-21.804v30.587h-4.075V20.948h4.075zm21.224 22.728h-12.641c.108 1.448.58 2.602 1.413 3.459.833.845 1.901 1.268 3.205 1.268 1.014 0 1.854-.241 2.518-.725.651-.482 1.394-1.376 2.228-2.68l3.44 1.919c-.531.905-1.093 1.682-1.685 2.327a8.974 8.974 0 0 1-1.901 1.594 7.603 7.603 0 0 1-2.191.915c-.784.192-1.636.289-2.553.289-2.633 0-4.745-.845-6.339-2.535-1.594-1.702-2.391-3.96-2.391-6.773 0-2.788.772-5.046 2.318-6.772 1.558-1.702 3.622-2.554 6.193-2.554 2.596 0 4.648.827 6.157 2.481 1.497 1.642 2.246 3.918 2.246 6.827l-.017.96zm-4.184-3.332c-.567-2.173-1.938-3.26-4.11-3.26-.495 0-.96.076-1.395.227a4.018 4.018 0 0 0-2.101 1.675 4.743 4.743 0 0 0-.58 1.358h8.186z" fill="#555"/></svg>