<svg xmlns="http://www.w3.org/2000/svg" width="240" height="80" viewBox="0 50 240 80"><g fill="#FFF"><path d="M66.051 98.368h-8.75v-.246h1.91V87.277h-6.747v10.845h1.91v.246H42.882v-.246h2.773V77.048h-2.773v-.247h11.492v.247h-1.91V87h6.747v-9.952h-1.91v-.247h8.75v21.567zm2.773-21.567v.247h-2.773v-.247h2.773zm-2.773 21.321h2.773v.246h-2.773v-.246zm23.137.246c-1.129 0-2.09-.17-2.88-.509-.791-.339-1.479-.816-2.064-1.433s-1.094-1.36-1.525-2.233a42.198 42.198 0 0 1-1.294-2.912h-6.809l-1.602 5.639a.62.62 0 0 0-.031.2v.2c0 .227.062.416.185.57.124.154.329.231.616.231h1.633v.246h-6.439v-.246h1.756c.39 0 .775-.129 1.155-.386a1.82 1.82 0 0 0 .755-1.032l4.714-15.559c-.227-.39-.488-.827-.786-1.31a11.017 11.017 0 0 0-.971-1.34c-.35-.411-.708-.755-1.078-1.032s-.729-.416-1.079-.416v-.247h5.577c.76 0 1.433.139 2.018.416s1.099.627 1.541 1.047a6.74 6.74 0 0 1 1.125 1.402c.308.514.555.997.739 1.448.308.739.642 1.551 1.001 2.434.359.883.739 1.802 1.14 2.757.4.955.806 1.916 1.217 2.881.411.965.801 1.889 1.171 2.773.883 2.095 1.787 4.231 2.711 6.408h-2.496zm-14.48-7.333h6.593l-3.759-9.366-2.834 9.366z"/><path d="M110.754 89.495c.575.657 1.186 1.474 1.833 2.449s1.279 1.926 1.895 2.85a44.227 44.227 0 0 0 1.679 2.373c.503.657.898.985 1.186.985v.216h-5.484c-1.089 0-2.029-.293-2.819-.878a10.227 10.227 0 0 1-2.157-2.203c-.647-.883-1.248-1.828-1.802-2.834s-1.14-1.941-1.756-2.804c-.657-.924-1.089-1.576-1.294-1.957-.206-.379-.38-.58-.523-.601v11.03h3.081v.246H91.622v-.246h3.112V77.048h-3.112v-.247h16.144c1.273.103 2.414.35 3.42.74.432.185.852.406 1.263.662.411.257.781.575 1.109.955.328.38.59.822.786 1.325.195.504.292 1.084.292 1.741 0 1.15-.272 2.049-.816 2.696a5.224 5.224 0 0 1-1.895 1.448 7.374 7.374 0 0 1-2.188.601c-.74.082-1.294.123-1.664.123h-.4l-4.005.031c.986.021 1.931.113 2.834.277.781.165 1.566.406 2.357.724.791.319 1.423.775 1.895 1.371zm-9.242-12.416v9.767h1.879c.78 0 1.433-.056 1.956-.169.524-.112.945-.318 1.263-.616.318-.297.544-.698.678-1.202.134-.503.201-1.155.201-1.956v-.678c0-1.129-.257-2.039-.771-2.727-.514-.688-1.078-1.206-1.694-1.556a7.62 7.62 0 0 0-2.434-.863h-1.078zm38.727-.278v.247h-1.355c-.412 0-.797.154-1.156.462-.359.308-.59.647-.693 1.017l-4.744 19.841h-3.051a81.22 81.22 0 0 1-1.031-2.08 1571.95 1571.95 0 0 1-3.25-6.793 257.184 257.184 0 0 0-1.85-3.805 153.022 153.022 0 0 0-1.787-3.497 41.211 41.211 0 0 0-1.541-2.711c-.369-.596-.718-1.058-1.047-1.387a7.505 7.505 0 0 0-.832-.739c-.267-.185-.514-.288-.74-.308v-.247h5.299c.309 0 .621.016.939.046s.646.123.986.277c.338.154.703.38 1.094.678.389.298.82.724 1.293 1.279.391.452.801 1.042 1.232 1.771s.873 1.515 1.326 2.357c.451.842.896 1.705 1.34 2.588.441.883.852 1.7 1.232 2.449.379.75.729 1.407 1.047 1.972s.57.939.756 1.125l3.049-12.817c.021-.082.031-.205.031-.37 0-.329-.098-.596-.293-.801-.195-.205-.467-.308-.816-.308h-1.602V76.8h6.164zm17.53 18.732a9.81 9.81 0 0 0 .955-1.602c.227-.493.391-.955.493-1.387s.159-.842.17-1.232c.01-.39.016-.77.016-1.14h.276v8.195h-19.44v-.246h2.742V77.048h-2.742v-.247h18.978v7.179h-.277c0-.452-.011-.863-.03-1.232a5.35 5.35 0 0 0-.17-1.078 5.974 5.974 0 0 0-.416-1.094 9.808 9.808 0 0 0-.77-1.279c-.37-.534-.75-.955-1.141-1.263a4.017 4.017 0 0 0-1.247-.678c-.442-.144-.915-.231-1.418-.262s-1.032-.046-1.586-.046h-2.096v10.105h1.325c.369 0 .708-.01 1.017-.031.308-.02.601-.077.878-.169s.528-.231.755-.416a3.71 3.71 0 0 0 .678-.77 8.11 8.11 0 0 0 .832-1.541 4.53 4.53 0 0 0 .308-1.694h.248v9.489h-.248c0-.596-.098-1.15-.292-1.664a7.39 7.39 0 0 0-.848-1.571c-.411-.595-.883-.975-1.417-1.14-.534-.164-1.171-.247-1.91-.247h-1.325v10.722h2.588c.575 0 1.079-.016 1.51-.047.432-.03.842-.123 1.232-.277.39-.153.771-.405 1.14-.755.369-.348.78-.851 1.232-1.509zm17.407-11.029c1.972.966 3.384 2.049 4.236 3.25.852 1.201 1.278 2.552 1.278 4.051 0 1.027-.205 1.956-.616 2.788s-.981 1.552-1.71 2.157-1.576 1.073-2.542 1.401-2.002.493-3.111.493h-.4c-.986 0-1.957-.18-2.912-.539s-1.926-.827-2.911-1.402a.505.505 0 0 0-.277-.062c-.227 0-.442.088-.647.262a4.65 4.65 0 0 0-.585.602 4.538 4.538 0 0 0-.616.862h-.246l-.586-8.781h.247c.062.391.143.812.246 1.263.103.391.241.832.416 1.325a8.13 8.13 0 0 0 .755 1.54c.349.596.755 1.223 1.217 1.88s1.001 1.17 1.617 1.54c.966.575 1.951.955 2.958 1.14a5.17 5.17 0 0 0 1.017.093c.411 0 .837-.021 1.278-.062a4.134 4.134 0 0 0 1.187-.277c.493-.226.862-.487 1.109-.786.246-.297.369-.806.369-1.524 0-.514-.226-1.027-.678-1.541-.451-.513-1.047-1.032-1.786-1.556a35.685 35.685 0 0 0-2.526-1.617 819.634 819.634 0 0 1-2.928-1.726c-1.663-1.006-2.87-2.115-3.62-3.328-.75-1.211-1.124-2.557-1.124-4.036 0-1.746.693-3.055 2.079-3.928 1.387-.873 3.425-1.31 6.116-1.31.924 0 1.849.175 2.772.524.925.349 1.849.76 2.773 1.232a.968.968 0 0 0 .246.062c.226 0 .447-.082.662-.247.216-.164.416-.359.602-.585.226-.247.431-.534.616-.863h.246l.709 6.686h-.247a18.287 18.287 0 0 0-.277-.524c-.103-.205-.262-.478-.478-.816s-.488-.775-.816-1.31c-.082-.123-.2-.287-.354-.493a8.904 8.904 0 0 0-.539-.647 13.933 13.933 0 0 0-.662-.678 30.58 30.58 0 0 0-.662-.616c-.658-.39-1.377-.734-2.157-1.032s-1.602-.457-2.465-.478c-.267 0-.564.036-.894.107a2.659 2.659 0 0 0-.908.385 2.524 2.524 0 0 0-.709.724c-.195.298-.293.663-.293 1.094 0 .719.509 1.5 1.525 2.341 1.016.847 2.684 1.833 5.006 2.962zm26.557-7.703v8.042h-.277c0-.924-.164-1.797-.493-2.619-.328-.821-.821-1.726-1.479-2.711-.369-.534-.729-.96-1.078-1.279a5.099 5.099 0 0 0-1.017-.739 3.158 3.158 0 0 0-.955-.339 5.483 5.483 0 0 0-.894-.077v21.043h3.081v.246h-12.94v-.246h3.081V77.079c-.288 0-.606.026-.955.077-.35.051-.709.159-1.078.323-.37.165-.75.401-1.141.709-.39.308-.76.729-1.108 1.263-.658.986-1.104 1.89-1.341 2.711a9.448 9.448 0 0 0-.354 2.619h-.308v-7.98h19.256z"/></g></svg>