<svg xmlns="http://www.w3.org/2000/svg" width="240" height="80" viewBox="0 0 240 80"><g fill="#555"><path d="M66.051 50.824h-8.75v-.246h1.91V39.733h-6.747v10.845h1.91v.246H42.882v-.246h2.773V29.504h-2.773v-.247h11.492v.247h-1.91v9.952h6.747v-9.952h-1.91v-.247h8.75v21.567zm2.773-21.567v.247h-2.773v-.247h2.773zm-2.773 21.321h2.773v.246h-2.773v-.246zm23.137.246c-1.129 0-2.09-.17-2.88-.509-.791-.34-1.479-.816-2.064-1.434s-1.094-1.359-1.525-2.232a42.198 42.198 0 0 1-1.294-2.912h-6.809l-1.602 5.639a.62.62 0 0 0-.031.2v.2c0 .227.062.416.185.57.124.153.329.23.616.23h1.633v.246h-6.439v-.246h1.756c.39 0 .775-.129 1.155-.387.38-.256.631-.601.755-1.031l4.714-15.559a57.14 57.14 0 0 0-.786-1.311 10.94 10.94 0 0 0-.971-1.34 6.721 6.721 0 0 0-1.078-1.032c-.37-.276-.729-.416-1.079-.416v-.247h5.577c.76 0 1.433.139 2.018.416s1.099.627 1.541 1.047c.441.422.816.889 1.125 1.402.308.514.555.997.739 1.447.308.74.642 1.552 1.001 2.435.359.884.739 1.802 1.14 2.757.4.955.806 1.916 1.217 2.881.411.965.801 1.89 1.171 2.773.883 2.095 1.787 4.23 2.711 6.408h-2.496v.005zm-14.48-7.333h6.593l-3.759-9.366-2.834 9.366z"/><path d="M110.754 41.951c.575.657 1.186 1.474 1.833 2.448.647.976 1.279 1.927 1.895 2.851a44.227 44.227 0 0 0 1.679 2.373c.503.657.898.985 1.186.985v.216h-5.484c-1.089 0-2.029-.293-2.819-.878a10.227 10.227 0 0 1-2.157-2.203c-.647-.883-1.248-1.828-1.802-2.834s-1.14-1.941-1.756-2.805c-.657-.924-1.089-1.575-1.294-1.957-.206-.379-.38-.58-.523-.601v11.03h3.081v.246H91.622v-.246h3.112V29.504h-3.112v-.247h16.144c1.273.104 2.414.35 3.42.74a9.46 9.46 0 0 1 1.263.662c.411.257.781.574 1.109.955.328.38.59.822.786 1.324.195.504.292 1.084.292 1.742 0 1.149-.272 2.049-.816 2.695s-1.176 1.13-1.895 1.448a7.374 7.374 0 0 1-2.188.601c-.74.082-1.294.123-1.664.123h-.4l-4.005.031c.986.021 1.931.113 2.834.277a14.07 14.07 0 0 1 2.357.724c.791.32 1.423.775 1.895 1.372zm-9.242-12.416v9.767h1.879c.78 0 1.433-.056 1.956-.169.524-.112.945-.317 1.263-.616.318-.297.544-.697.678-1.201.134-.504.201-1.155.201-1.957v-.678c0-1.129-.257-2.039-.771-2.727-.514-.688-1.078-1.206-1.694-1.557a7.642 7.642 0 0 0-2.434-.862h-1.078zm38.726-.278v.247h-1.354c-.411 0-.797.154-1.155.462-.359.309-.59.647-.693 1.018l-4.744 19.841h-3.051a82.934 82.934 0 0 1-1.031-2.08 1400.912 1400.912 0 0 1-3.25-6.793 262.29 262.29 0 0 0-1.85-3.806 154.972 154.972 0 0 0-1.787-3.496 40.717 40.717 0 0 0-1.542-2.711c-.369-.597-.718-1.059-1.047-1.387s-.606-.576-.832-.74c-.267-.185-.514-.287-.74-.308v-.247h5.299c.309 0 .621.016.939.047.317.029.646.123.986.276.338.153.702.38 1.094.678.389.298.819.724 1.293 1.279.391.452.801 1.042 1.231 1.771.431.729.873 1.516 1.326 2.357.451.842.896 1.705 1.34 2.588.44.883.853 1.7 1.231 2.449.38.75.729 1.406 1.048 1.972.317.565.569.939.756 1.125l3.049-12.817c.021-.082.031-.205.031-.369 0-.329-.099-.596-.293-.801-.195-.205-.468-.309-.816-.309h-1.602v-.247l6.164.001zm17.532 18.732c.41-.574.729-1.108.955-1.602.227-.494.391-.955.492-1.388s.159-.842.17-1.231c.01-.391.016-.771.016-1.141h.277v8.195h-19.441v-.246h2.742V29.504h-2.742v-.247h18.978v7.18h-.277c0-.453-.01-.863-.029-1.232a5.35 5.35 0 0 0-.17-1.078c-.092-.35-.23-.713-.416-1.094s-.441-.807-.77-1.279c-.371-.533-.75-.955-1.142-1.263a4.041 4.041 0 0 0-1.247-.679c-.441-.144-.915-.23-1.418-.262s-1.032-.046-1.586-.046h-2.096v10.104h1.324c.369 0 .709-.01 1.018-.03a3.54 3.54 0 0 0 .878-.169c.276-.092.528-.23.755-.416s.451-.441.678-.77c.35-.514.627-1.027.832-1.541s.309-1.08.309-1.694h.248v9.489h-.248c0-.597-.098-1.15-.293-1.664a7.322 7.322 0 0 0-.848-1.571c-.41-.595-.883-.976-1.417-1.14s-1.171-.248-1.909-.248h-1.326v10.723h2.588c.576 0 1.08-.016 1.511-.047.433-.03.842-.123 1.231-.277.391-.152.771-.404 1.141-.755.368-.349.778-.851 1.232-1.509zm17.406-11.029c1.973.967 3.385 2.049 4.236 3.25s1.277 2.553 1.277 4.051c0 1.027-.205 1.956-.615 2.788a6.535 6.535 0 0 1-1.711 2.157 7.904 7.904 0 0 1-2.541 1.4 9.614 9.614 0 0 1-3.111.494h-.4a8.244 8.244 0 0 1-2.912-.539 19.223 19.223 0 0 1-2.91-1.402.505.505 0 0 0-.277-.062c-.227 0-.441.088-.646.262-.205.176-.4.375-.586.603a4.491 4.491 0 0 0-.615.862h-.246l-.586-8.781h.246c.062.391.144.812.246 1.264.104.391.242.832.416 1.324s.427 1.006.756 1.54c.349.597.755 1.224 1.217 1.88.462.657 1.001 1.17 1.617 1.54.966.575 1.951.955 2.957 1.14.31.062.647.094 1.018.094.411 0 .837-.021 1.277-.062a4.134 4.134 0 0 0 1.188-.277c.493-.226.862-.486 1.109-.785.246-.297.369-.807.369-1.524 0-.514-.227-1.026-.678-1.541-.451-.513-1.047-1.032-1.787-1.556a36.011 36.011 0 0 0-2.525-1.617 695.192 695.192 0 0 1-2.928-1.727c-1.663-1.006-2.87-2.114-3.62-3.327-.75-1.211-1.124-2.558-1.124-4.036 0-1.746.693-3.055 2.078-3.928 1.388-.873 3.426-1.311 6.117-1.311.924 0 1.849.176 2.771.524.925.349 1.85.76 2.773 1.231a.925.925 0 0 0 .246.062c.226 0 .446-.082.662-.247.215-.164.416-.358.602-.585.226-.247.431-.534.615-.863h.246l.709 6.686h-.246a20.022 20.022 0 0 0-.277-.523 9.57 9.57 0 0 0-.479-.816 90.641 90.641 0 0 1-.815-1.31c-.082-.123-.2-.287-.354-.493a8.451 8.451 0 0 0-.539-.646 13.494 13.494 0 0 0-.662-.678 26.535 26.535 0 0 0-.662-.617 14.055 14.055 0 0 0-2.156-1.031 7.358 7.358 0 0 0-2.465-.479c-.268 0-.564.036-.895.107a2.659 2.659 0 0 0-.908.385 2.554 2.554 0 0 0-.709.725c-.194.297-.293.662-.293 1.094 0 .719.51 1.5 1.525 2.341 1.015.844 2.683 1.83 5.005 2.959zm26.556-7.703v8.042h-.276c0-.924-.164-1.797-.493-2.618-.328-.822-.82-1.727-1.479-2.711-.369-.535-.729-.961-1.078-1.279a5.075 5.075 0 0 0-1.018-.739c-.328-.175-.646-.288-.955-.339s-.605-.077-.894-.077v21.043h3.081v.246h-12.939v-.246h3.08V29.535c-.287 0-.605.026-.955.077s-.709.158-1.078.322c-.369.166-.75.401-1.141.709-.391.309-.76.729-1.107 1.264-.658.986-1.104 1.89-1.342 2.711a9.448 9.448 0 0 0-.354 2.619h-.309v-7.98h19.257z"/></g></svg>