<svg xmlns="http://www.w3.org/2000/svg" width="240" height="80" viewBox="0 0 240 80"><path d="M83.848 25.07v26.98h-5.206V40.536H66.406V52.05h-5.244V25.07h5.244v10.906h12.236V25.07h5.206zm25.801 4.598h-8.588V52.05h-5.244V29.668h-8.626V25.07h22.458v4.598zm25.384 22.382V34.19l-6.954 13.301h-2.851l-6.953-13.301v17.86h-5.244V25.07h5.624l7.979 15.352 8.057-15.352h5.586v26.98h-5.244zm10.867 0V25.07h5.244v22.382H164.9v4.598h-19zm30.553-12.122c1.266 0 2.443.209 3.533.627s2.033 1.007 2.832 1.768a7.962 7.962 0 0 1 1.861 2.735c.443 1.064.665 2.242.665 3.534 0 1.368-.254 2.609-.76 3.724-.507 1.115-1.204 2.071-2.091 2.869s-1.938 1.419-3.153 1.862c-1.216.442-2.534.665-3.952.665-1.977 0-3.743-.418-5.301-1.254-1.559-.836-2.742-1.977-3.553-3.42l2.926-3.04a8.345 8.345 0 0 0 2.679 2.355c1.051.583 2.147.874 3.287.874 1.368 0 2.489-.412 3.362-1.234.875-.823 1.312-1.919 1.312-3.287 0-1.317-.412-2.381-1.235-3.192-.823-.811-1.868-1.216-3.135-1.216-.836 0-1.615.19-2.337.57s-1.298.899-1.729 1.558h-4.445c0-.076.051-.361.152-.854a259.45 259.45 0 0 0 .873-4.484c.178-.95.367-1.919.57-2.907.456-2.33.963-4.939 1.52-7.828h13.301v4.637h-9.614l-1.063 6.042c.304-.329.746-.596 1.33-.799.581-.204 1.304-.305 2.165-.305z"/></svg>