<svg xmlns="http://www.w3.org/2000/svg" width="240" height="80" viewBox="0 50 240 80"><g fill="#333"><path d="M19.826 60.481H27.1v23.554h13.595v6.753H19.826V60.481zm32.648 25.286l-1.818 5.021h-7.664l11.689-30.307h8.27l11.733 30.307h-7.793l-1.818-5.021H52.474zm8.053-12.643c-.954-2.512-1.646-4.416-1.689-4.46h-.13c-.044.044-.736 1.905-1.688 4.417l-2.164 6.061h7.836l-2.165-6.018zm28.016 4.892l-3.594 4.026v8.746h-7.273V60.481h7.273v13.075h.13l3.29-3.896 7.664-9.18h8.659L93.911 72.734l11.387 18.054h-8.486l-8.269-12.772zm19.66-17.535h22.081v6.755h-14.809v5.194h10.912v6.062h-10.912v5.542H130.5v6.753h-22.298V60.481zm32.215 20.869c.606 2.295 2.728 3.637 6.019 3.637 2.771 0 4.459-.951 4.459-2.9 0-2.9-3.637-2.728-7.36-3.636-4.113-.997-9.223-2.901-9.223-9.31 0-6.191 4.677-9.265 11.475-9.265 6.191 0 10.606 2.511 12.295 7.923l-6.927 1.862c-.735-2.209-2.468-3.421-5.499-3.421-2.771 0-3.939 1.082-3.939 2.684 0 2.556 2.901 2.944 7.145 3.811 4.459.865 9.395 2.771 9.395 9.308 0 6.236-4.373 9.354-11.777 9.354-5.282 0-11.256-1.603-12.988-8.184l6.925-1.863zm21.478-20.869h7.272v30.307h-7.272V60.481zm25.028 0c9.049 0 15.976 6.147 15.976 15.283 0 9.18-6.971 15.023-15.933 15.023h-12.945V60.481h12.902zm-.39 23.554c4.503 0 9.049-2.296 9.049-8.271 0-5.931-4.546-8.528-9.049-8.528h-5.238v16.799h5.238zm20.006-23.554h22.082v6.755h-14.808v5.194h10.91v6.062h-10.91v5.542h15.023v6.753H206.54V60.481zM19.955 98.035h209.329v1.735H19.955zm31.941 17.609H50.07v-3.729h-3.421v3.729h-1.832v-8.638h1.832v3.385h3.421v-3.385h1.825v8.638zm7.467 0l-.626-2.056h-3.148l-.626 2.056h-1.974l3.049-8.673h2.238l3.061 8.673h-1.974zm-1.063-3.592a614.936 614.936 0 0 1-.977-3.161 8.668 8.668 0 0 1-.157-.579c-.13.505-.502 1.751-1.116 3.74h2.25zm11.788 3.592H67.76l-3.758-6.534h-.054c.075 1.153.113 1.977.113 2.47v4.064h-1.638v-8.638h2.311l3.751 6.469h.042a52.645 52.645 0 0 1-.089-2.38v-4.089h1.649v8.638zm9.34-4.403c0 1.423-.405 2.512-1.213 3.269-.811.756-1.979 1.134-3.507 1.134h-2.446v-8.638h2.711c1.411 0 2.506.372 3.285 1.116.78.744 1.17 1.784 1.17 3.119zm-1.903.048c0-1.855-.818-2.782-2.458-2.782h-.975v5.624h.786c1.766 0 2.647-.947 2.647-2.842zm7.362-2.884c-.688 0-1.223.26-1.601.777-.378.519-.567 1.24-.567 2.165 0 1.927.724 2.89 2.168 2.89.607 0 1.342-.151 2.204-.455v1.536c-.709.295-1.5.443-2.375.443-1.257 0-2.218-.38-2.883-1.144-.666-.761-.999-1.855-.999-3.282 0-.897.163-1.685.491-2.358a3.55 3.55 0 0 1 1.408-1.556c.613-.359 1.331-.54 2.153-.54.839 0 1.683.202 2.529.608l-.591 1.489a9.773 9.773 0 0 0-.975-.402 2.93 2.93 0 0 0-.962-.171zm5.873 3.924v3.314h-1.832v-8.638h2.518c1.174 0 2.042.214 2.605.641.563.428.845 1.076.845 1.947 0 .508-.14.959-.419 1.356-.28.395-.676.705-1.188.93a356.32 356.32 0 0 0 2.541 3.764h-2.032l-2.062-3.314h-.976zm0-1.489h.591c.579 0 1.007-.097 1.282-.289.275-.193.414-.496.414-.91 0-.41-.141-.701-.422-.874-.283-.174-.719-.26-1.31-.26h-.555v2.333z"/><path d="M102.204 115.644l-.626-2.056h-3.149l-.626 2.056h-1.974l3.049-8.673h2.239l3.061 8.673h-1.974zm-1.063-3.592c-.579-1.864-.905-2.917-.978-3.161s-.125-.438-.156-.579c-.13.505-.503 1.751-1.117 3.74h2.251zm5.925 3.592h-1.802v-8.638h4.951v1.501h-3.149v2.227h2.931v1.495h-2.931v3.415zm8.172 0h-1.832v-7.113h-2.346v-1.524h6.522v1.524h-2.345v7.113zm8.65 0h-4.975v-8.638h4.975v1.501h-3.144v1.896h2.926v1.501h-2.926v2.228h3.144v1.512zm8.968-4.403c0 1.423-.405 2.512-1.213 3.269-.812.756-1.979 1.134-3.508 1.134h-2.445v-8.638h2.711c1.41 0 2.505.372 3.285 1.116s1.17 1.784 1.17 3.119zm-1.902.048c0-1.855-.818-2.782-2.458-2.782h-.975v5.624h.785c1.766 0 2.648-.947 2.648-2.842zm10.114-.496h3.427v4.479a9.817 9.817 0 0 1-1.567.382c-.491.072-.992.108-1.505.108-1.303 0-2.299-.383-2.985-1.148-.688-.767-1.032-1.866-1.032-3.301 0-1.395.398-2.481 1.198-3.262.796-.779 1.902-1.169 3.316-1.169.886 0 1.741.177 2.563.531l-.607 1.465a4.362 4.362 0 0 0-1.969-.473c-.791 0-1.425.267-1.902.799-.476.531-.714 1.246-.714 2.144 0 .938.191 1.653.577 2.147.382.495.94.742 1.673.742.383 0 .771-.039 1.165-.118v-1.802h-1.638v-1.524zm10.772 4.851l-.626-2.056h-3.149l-.627 2.056h-1.973l3.048-8.673h2.24l3.061 8.673h-1.974zm-1.064-3.592a681.086 681.086 0 0 1-.978-3.161 9.332 9.332 0 0 1-.157-.579c-.13.505-.502 1.751-1.117 3.74h2.252zm5.955.277v3.314H154.9v-8.638h2.517c1.173 0 2.042.214 2.605.641.563.428.845 1.076.845 1.947 0 .508-.14.959-.42 1.356-.279.395-.676.705-1.187.93 1.3 1.942 2.147 3.196 2.54 3.764h-2.032l-2.062-3.314h-.975zm0-1.489h.591c.579 0 1.007-.097 1.282-.289.275-.193.413-.496.413-.91 0-.41-.141-.701-.421-.874-.282-.174-.719-.26-1.31-.26h-.556v2.333zm9.814 4.804l-2.08-6.777h-.053c.074 1.38.112 2.299.112 2.76v4.018h-1.636v-8.638h2.493l2.044 6.605h.035l2.168-6.605h2.493v8.638h-1.707v-4.088c0-.193.002-.416.01-.669.005-.251.031-.921.078-2.009h-.052l-2.229 6.766h-1.676zm12.726 0h-4.975v-8.638h4.975v1.501h-3.144v1.896h2.925v1.501h-2.925v2.228h3.144v1.512zm9.465 0h-2.328l-3.758-6.534h-.053c.074 1.153.112 1.977.112 2.47v4.064h-1.637v-8.638h2.31l3.753 6.469h.041a51.157 51.157 0 0 1-.089-2.38v-4.089h1.648v8.638zm5.506 0h-1.831v-7.113h-2.345v-1.524h6.522v1.524h-2.347v7.113zm8.775-2.399c0 .78-.28 1.395-.842 1.844-.561.448-1.342.673-2.343.673-.922 0-1.737-.174-2.446-.52v-1.702c.583.261 1.076.443 1.48.55.403.105.773.159 1.107.159.401 0 .71-.077.925-.23s.322-.382.322-.686a.755.755 0 0 0-.142-.452 1.579 1.579 0 0 0-.417-.38c-.183-.123-.556-.317-1.119-.586-.528-.248-.924-.486-1.188-.714a2.68 2.68 0 0 1-.632-.799 2.291 2.291 0 0 1-.236-1.063c0-.764.259-1.364.777-1.801.518-.438 1.234-.656 2.147-.656.448 0 .877.054 1.285.159.407.106.834.256 1.278.449l-.591 1.424a8.654 8.654 0 0 0-1.143-.396 3.675 3.675 0 0 0-.89-.113c-.346 0-.611.081-.797.243a.795.795 0 0 0-.278.632c0 .162.039.303.112.422.074.12.193.236.358.351.163.11.55.312 1.16.604.808.386 1.362.772 1.66 1.16.302.389.453.864.453 1.428z"/></g></svg>