<svg xmlns="http://www.w3.org/2000/svg" width="240" height="80" viewBox="0 50 240 80"><g fill="#333"><path d="M23.712 56.639c0-.131.067-.437.198-.437h7.318c.132 0 .196.306.196.437v1.188c0 .198-.064.264-.196.33l-.461.328a.511.511 0 0 0-.132.33v37.451c0 .13.066.196.198.196H43.69a.363.363 0 0 0 .329-.196l.331-.463a.506.506 0 0 1 .328-.13H45.8c.132 0 .198.065.198.198v6.527c0 .133-.065.195-.198.195H23.91c-.131 0-.198-.062-.198-.195v-1.188c0-.131.067-.263.133-.329l.462-.328c.132-.066.197-.13.197-.328V58.816a.363.363 0 0 0-.197-.33l-.462-.328a.508.508 0 0 1-.133-.33v-1.189zm41.138 6.595c.065 0 .197.064.265.197l8.569 36.396.199.328.988.726a.509.509 0 0 1 .132.329v1.187c0 .132-.066.197-.198.197h-8.109c-.133 0-.199-.065-.199-.197v-1.187c0-.131.066-.265.133-.329l.856-.726c.065-.066.065-.13.065-.328l-.855-4.221c0-.13-.066-.196-.199-.196h-9.099c-.132 0-.198.066-.198.196l-.856 4.221c0 .132.065.262.131.328l.792.726a.509.509 0 0 1 .132.329v1.187c0 .132-.066.197-.198.197h-8.11c-.133 0-.198-.065-.198-.197v-1.187a.49.49 0 0 1 .133-.329l.988-.726.198-.328 8.637-36.396c0-.133.066-.197.199-.197h5.802zm.593 27.098c.133 0 .198-.065.198-.198l-3.627-16.747c0-.065 0-.065-.066-.065l-.065.065-3.626 16.747c0 .133.064.198.197.198h6.989zm20.83-25.054a.502.502 0 0 0-.133.329V78.86c0 .198.066.198.066 0l8.771-13.451c.065-.131 0-.263-.066-.33l-.132-.131a.511.511 0 0 1-.132-.33v-1.187c0-.133.066-.197.197-.197h7.583c.131 0 .198.064.198.197v1.187a.511.511 0 0 1-.132.33c-.463.264-1.318 1.054-1.78 1.385-.133.132-.198.197-.198.263L92.867 78.86c-.066.064-.066.198-.066.396l9.296 20.638c0 .065.067.195.199.329l.856.658a.509.509 0 0 1 .132.329v1.187c0 .132-.066.197-.199.197h-7.581c-.132 0-.199-.065-.199-.197v-1.187a.5.5 0 0 1 .133-.329l.462-.461c.067-.067.132-.197.067-.265l-6.925-14.043c0-.131-.066-.131-.131-.066l-2.704 4.55c0 .197-.066.197-.066.395v9.232c0 .13.066.264.133.327l.461.329a.361.361 0 0 1 .199.328v1.189c0 .132-.066.195-.199.195h-7.317c-.132 0-.198-.063-.198-.195v-1.189c0-.13.066-.262.132-.328l.461-.329c.132-.065.198-.13.198-.327V65.607a.36.36 0 0 0-.198-.329l-.461-.33a.506.506 0 0 1-.132-.33v-1.187c0-.134.066-.197.198-.197h7.317c.133 0 .199.063.199.197v1.187c0 .198-.066.264-.199.33l-.462.33zm21.491 37.316c-.132 0-.199-.062-.199-.195v-1.188c0-.066.065-.196.133-.263l.461-.395c.132-.066.198-.133.198-.265V65.607a.358.358 0 0 0-.198-.329l-.461-.33a.502.502 0 0 1-.133-.33v-1.187c0-.134.065-.197.199-.197h21.891c.13 0 .196.063.196.197v6.527c0 .132-.066.199-.196.199h-1.123a.497.497 0 0 1-.327-.132l-.33-.461a.363.363 0 0 0-.33-.199h-12.856c-.133 0-.198.067-.198.199v9.098c0 .132.065.197.198.197h8.967a.357.357 0 0 0 .329-.197l.33-.461a.502.502 0 0 1 .329-.134h1.187c.131 0 .197.066.197.199v6.855c0 .133-.066.198-.197.198h-1.187a.503.503 0 0 1-.329-.131l-.33-.462a.5.5 0 0 0-.329-.132h-8.967c-.133 0-.198.065-.198.196v11.473c0 .13.065.196.198.196h12.856a.363.363 0 0 0 .33-.196l.33-.463a.503.503 0 0 1 .327-.13h1.123c.13 0 .196.065.196.198v6.527c0 .133-.066.195-.196.195h-21.891zm42.058-13.249c0-.329-.195-1.057-1.054-1.65l-11.342-6.725c-2.833-1.582-2.966-4.087-2.966-4.747v-4.22c.066-1.714.396-3.23 1.121-4.615 1.122-2.309 3.429-4.615 8.11-4.615h3.101c8.504 0 9.229 7.978 9.229 9.1v1.055c0 .198-.066.265-.196.329l-6.001 2.967-.593.266c-.065.063-.131.063-.131-.133V74.84c0-.199 0-.265.065-.33l.593-.923c.065-.066.065-.197.065-.396v-1.187a5.624 5.624 0 0 0-.394-1.517c-.461-.79-1.123-1.582-2.638-1.582h-3.1c-1.582 0-2.241.792-2.702 1.582a5.69 5.69 0 0 0-.396 1.517v2.836c.065.329.13 1.186 1.251 1.912l11.211 6.593c2.834 1.582 2.967 4.089 2.967 4.748v5.734c-.133 1.714-.529 3.231-1.187 4.616-1.252 2.307-3.43 4.612-8.043 4.612h-3.1c-4.683 0-6.989-2.306-8.111-4.612-.726-1.387-1.054-2.902-1.121-4.616V90.07c0-.066.067-.198.199-.264l5.934-2.966.595-.331c.13 0 .195.065.195.132v1.517c0 .197-.065.197-.065.396l-.595.924a.503.503 0 0 0-.13.329v4.021c.065.595.197 1.121.396 1.584.461.789 1.12 1.516 2.702 1.516h3.1c1.515 0 2.177-.727 2.638-1.516.198-.463.328-.989.394-1.584v-4.481h-.001zm18.855 13.053c0 .133-.066.195-.196.195h-7.32c-.13 0-.197-.062-.197-.195v-1.188c0-.131.067-.263.132-.329l.462-.328c.132-.066.197-.13.197-.328V65.607a.358.358 0 0 0-.197-.329l-.462-.33a.501.501 0 0 1-.132-.33v-1.187c0-.134.067-.197.197-.197h7.32c.13 0 .196.063.196.197v1.187c0 .198-.066.264-.196.33l-.463.33a.5.5 0 0 0-.13.329v34.615c0 .13.064.264.13.327l.463.329c.13.066.196.198.196.328v1.192zm19.252-39.164c8.306.197 8.965 7.913 8.965 9.098v21.163c0 1.123-.592 9.099-9.231 9.099h-12.856c-.133 0-.197-.062-.197-.195v-1.188c0-.066.064-.196.131-.263l.463-.395c.13-.066.197-.133.197-.265V65.607a.362.362 0 0 0-.197-.329l-.463-.33a.506.506 0 0 1-.131-.33v-1.187c0-.134.064-.197.197-.197h13.122zm-6.398 33.032c0 .13.066.196.197.196h5.934c1.517 0 2.244-.724 2.702-1.518.199-.461.33-.984.396-1.581v-20.9a5.575 5.575 0 0 0-.396-1.515c-.461-.791-1.186-1.583-2.702-1.583h-5.934c-.131 0-.197.065-.197.199v26.702zm20.829 6.328c-.132 0-.197-.062-.197-.195v-1.188c0-.066.065-.196.131-.263l.464-.395c.13-.066.196-.133.196-.265V65.607a.361.361 0 0 0-.196-.329l-.464-.33a.506.506 0 0 1-.131-.33v-1.187c0-.134.065-.197.197-.197h21.892c.13 0 .196.063.196.197v6.527c0 .132-.066.199-.196.199h-1.123a.501.501 0 0 1-.328-.132l-.329-.461a.362.362 0 0 0-.329-.199h-12.856c-.131 0-.198.067-.198.199v9.098c0 .132.067.197.198.197h8.966a.361.361 0 0 0 .33-.197l.328-.461a.498.498 0 0 1 .329-.134h1.187c.132 0 .197.066.197.199v6.855c0 .133-.065.198-.197.198h-1.187a.499.499 0 0 1-.329-.131l-.328-.462a.506.506 0 0 0-.33-.132h-8.966c-.131 0-.198.065-.198.196v11.473c0 .13.067.196.198.196h12.856a.362.362 0 0 0 .329-.196l.329-.463a.51.51 0 0 1 .328-.13h1.123c.13 0 .196.065.196.198v6.527c0 .133-.066.195-.196.195H202.36z"/><path d="M26.026 56.203h198.452v4.244H26.026zm31.763 53.079c0-.035.019-.052.053-.052h1.878c.035 0 .052.017.052.052v.305a.129.129 0 0 1-.034.083l-.118.085a.094.094 0 0 0-.051.083v10.635c0 .047.017.066.051.082l.118.086a.122.122 0 0 1 .034.085v.302c0 .036-.017.053-.052.053h-1.878c-.034 0-.053-.017-.053-.053v-.302c0-.033.019-.07.053-.085l.118-.086a.13.13 0 0 0 .033-.082v-4.978c0-.035-.018-.051-.051-.051h-2.269c-.033 0-.052.016-.052.051v4.978c0 .031.019.066.034.082l.119.086c.033.017.05.052.05.085v.302c0 .036-.017.053-.05.053h-1.88c-.033 0-.05-.017-.05-.053v-.302c0-.033.017-.07.033-.085l.119-.086c.032-.018.05-.035.05-.082v-10.635a.093.093 0 0 0-.05-.083l-.119-.085a.123.123 0 0 1-.033-.083v-.305c0-.035.017-.052.05-.052h1.88c.033 0 .05.017.05.052v.305c0 .05-.017.067-.05.083l-.119.085a.131.131 0 0 0-.034.083v4.082c0 .033.019.052.052.052h2.269c.033 0 .051-.019.051-.052v-4.082a.134.134 0 0 0-.033-.083l-.118-.085c-.034-.016-.053-.033-.053-.083v-.305zm9.401 11.749c0 .035-.018.052-.052.052h-2.084c-.032 0-.05-.017-.05-.052v-.303c0-.034.018-.071.034-.085l.204-.188c.017-.016.033-.033.033-.082l-.223-1.085c0-.034-.017-.052-.05-.052h-2.337c-.033 0-.05.018-.05.052l-.221 1.085c0 .033.017.066.033.082l.203.188a.127.127 0 0 1 .033.085v.303c0 .035-.018.052-.05.052h-2.084c-.033 0-.051-.017-.051-.052v-.303c0-.02.018-.034.033-.085l.255-.188a.166.166 0 0 0 .051-.082l2.218-11.092c0-.032.018-.05.051-.05h1.488c.034 0 .052.018.052.05l2.217 11.092c0 .016.018.033.053.066l.254.203c.017.051.032.068.032.085v.303h.008zm-4.301-3.132c0 .017.019.032.052.032h1.795c.033 0 .052-.016.052-.032l-.934-4.673c-.017-.018-.017-.018-.033 0l-.932 4.673zm10.164-8.245c-.018-.018-.035-.05-.035-.067v-.305c0-.035.019-.052.052-.052h1.88c.032 0 .05.017.05.052v.305c0 .031-.018.05-.05.067l-.118.101a.125.125 0 0 0-.034.068v10.666c0 .017.018.05.034.069l.118.101c.032.018.05.053.05.069v.305c0 .033-.018.052-.05.052h-1.677c-.052 0-.068-.019-.068-.052l-3.133-7.636c-.016-.02-.016 0-.016.017v7.078c0 .016.016.049.032.068l.12.099c.032.02.05.053.05.071v.303c0 .035-.018.052-.05.052h-1.88c-.033 0-.052-.017-.052-.052v-.303c0-.019.019-.052.034-.071l.118-.099c.034-.02.051-.035.051-.068v-10.669c0-.016-.017-.049-.051-.065l-.118-.102a.132.132 0 0 1-.034-.069v-.305c0-.032.019-.05.052-.05h1.677c.016 0 .051.018.066.05l3.133 7.637c0 .019.017.035.017-.018v-7.078c0-.016-.017-.051-.05-.068l-.118-.101zm6.893-.424c2.134.052 2.303 2.068 2.303 2.338v7.179c0 .287-.154 2.338-2.371 2.338h-3.302c-.032 0-.051-.019-.051-.052v-.305c0-.017.019-.052.033-.069l.118-.101c.034-.02.053-.033.053-.069v-10.648a.1.1 0 0 0-.053-.086l-.118-.085a.117.117 0 0 1-.033-.083v-.305c0-.032.019-.05.051-.05h3.371v-.002zm-1.64 10.226c0 .033.017.051.05.051h1.523c.39 0 .577-.185.695-.388.05-.12.082-.256.101-.407v-7.11a1.585 1.585 0 0 0-.101-.39c-.119-.201-.306-.405-.695-.405h-1.523c-.033 0-.05.018-.05.051v8.598zm5.132-8.059c.051-.422.271-2.287 2.371-2.287h.779c2.218 0 2.37 2.051 2.37 2.34v1.81c0 .033-.017.05-.05.05H87.23c-.033 0-.05-.017-.05-.05v-.305c0-.033.017-.068.05-.085l.121-.083a.132.132 0 0 0 .033-.085v-1.219a1.468 1.468 0 0 0-.104-.388c-.118-.206-.304-.409-.692-.409h-.778c-.407 0-.575.203-.695.409-.05.118-.084.252-.102.388v7.347c.018.153.052.289.102.407.121.203.288.39.695.39h.779c.389 0 .575-.187.692-.39.052-.118.085-.254.104-.407v-2.387a.14.14 0 0 0-.033-.083l-.137-.238c-.018-.05-.033-.083-.033-.102v-.388c0-.053.017-.068.051-.035l.153.068 1.524.763c.033.018.05.05.05.083v2.472c-.05.542-.39 2.22-2.37 2.22h-.779c-2.1 0-2.319-1.862-2.37-2.285v-7.521h-.003zm6.624-2.115c0-.035.019-.052.052-.052h3.606c1.032.052 1.558.591 1.811 1.135.151.321.236.678.253 1.065v2.543c0 .168-.017.336-.067.525a2.548 2.548 0 0 1-.438 1.016c-.019.017-.019.05 0 .083.253.341.372.711.438.982.051.152.067.304.067.457v3.452c0 .033.017.05.051.069l.12.101a.136.136 0 0 1 .033.069v.305c0 .033-.018.052-.052.052h-1.675c-.034 0-.052-.019-.052-.052v-3.996a1.465 1.465 0 0 0-.101-.388c-.12-.203-.306-.407-.695-.407h-1.522c-.033 0-.05.018-.05.051v4.199c0 .016.017.049.033.068l.119.099c.033.02.051.053.051.071v.303c0 .035-.018.052-.051.052h-1.88c-.033 0-.052-.017-.052-.052v-.303c0-.019.019-.052.034-.071l.119-.099c.032-.02.05-.035.05-.068V109.84a.092.092 0 0 0-.05-.083l-.119-.086a.126.126 0 0 1-.034-.082v-.307zm3.352 5.487c.39 0 .576-.188.695-.391.05-.118.084-.253.101-.406v-2.709a.513.513 0 0 0-.084-.222c-.085-.118-.204-.234-.525-.234h-1.709c-.033 0-.05.018-.05.051v3.858c0 .033.017.053.05.053h1.522zm10.332 6.262c0 .035-.019.052-.051.052h-2.083c-.033 0-.052-.017-.052-.052v-.303c0-.034.019-.071.035-.085l.203-.188c.017-.016.033-.033.033-.082l-.222-1.085c0-.034-.016-.052-.051-.052h-2.336c-.034 0-.051.018-.051.052l-.22 1.085c0 .033.016.066.033.082l.202.188a.123.123 0 0 1 .034.085v.303c0 .035-.018.052-.051.052h-2.084c-.033 0-.05-.017-.05-.052v-.303c0-.02.017-.034.032-.085l.254-.188a.173.173 0 0 0 .052-.082l2.217-11.092c0-.032.018-.05.052-.05h1.49c.033 0 .05.018.05.05l2.219 11.092c0 .016.018.033.051.066l.253.203c.018.051.034.068.034.085v.303h.007zm-4.3-3.132c0 .017.018.032.051.032h1.794c.033 0 .051-.016.051-.032l-.932-4.673c-.017-.018-.017-.018-.033 0l-.931 4.673zm11.059-8.669c.033 0 .052.017.052.052v1.676c0 .033-.019.053-.052.053h-.288a.13.13 0 0 1-.082-.035l-.085-.118c-.033-.033-.068-.051-.085-.051h-3.303c-.032 0-.05.018-.05.051v3.064c0 .031.018.05.05.05h2.303a.15.15 0 0 0 .086-.034l.082-.12c.033-.033.068-.049.084-.049h.307c.032 0 .049.016.049.049v1.78c0 .035-.017.052-.049.052h-.307c-.051 0-.066-.017-.084-.052l-.082-.103a.096.096 0 0 0-.086-.051h-2.303c-.032 0-.05.016-.05.051v4.994c0 .017.018.05.033.069l.12.101c.032.018.05.053.05.069v.305c0 .033-.018.052-.05.052h-1.882c-.032 0-.05-.019-.05-.052v-.305c0-.017.018-.052.033-.069l.119-.101c.032-.02.051-.033.051-.069V109.84a.101.101 0 0 0-.051-.086l-.119-.085a.122.122 0 0 1-.033-.083v-.305c0-.032.018-.05.05-.05h5.621v-.001zm2.967 0h3.504c.035 0 .052.017.052.052v1.675c0 .033-.017.053-.052.053h-.304a.136.136 0 0 1-.084-.035l-.085-.118c-.032-.033-.067-.051-.084-.051h-1.32c-.033 0-.051.018-.051.051v9.632c0 .017.018.05.032.069l.119.101c.033.018.052.053.052.069v.305c0 .033-.019.052-.052.052h-1.879c-.033 0-.051-.019-.051-.052v-.305c0-.017.018-.052.033-.069l.12-.101c.033-.02.051-.033.051-.069v-9.632c0-.033-.018-.051-.051-.051h-1.338c-.018 0-.032.018-.067.051l-.102.118c-.017.016-.051.035-.067.035h-.306c-.034 0-.051-.02-.051-.053v-1.675c0-.035.017-.052.051-.052h1.93zm10.467 11.801c0 .035-.018.052-.053.052h-5.622c-.032 0-.049-.017-.049-.052v-.303c0-.02.017-.052.032-.071l.119-.099c.033-.02.05-.036.05-.069v-10.651a.091.091 0 0 0-.05-.083l-.119-.085a.128.128 0 0 1-.032-.083v-.305c0-.035.017-.052.049-.052h5.622c.035 0 .053.017.053.052v1.675c0 .033-.018.053-.053.053h-.286a.147.147 0 0 1-.085-.035l-.082-.118c-.036-.033-.069-.051-.085-.051h-3.303c-.034 0-.051.018-.051.051v3.064c0 .031.017.05.051.05h2.303a.132.132 0 0 0 .083-.034l.085-.12c.034-.033.068-.049.084-.049h.305c.034 0 .05.016.05.049v1.78c0 .035-.016.052-.05.052h-.305c-.05 0-.067-.017-.084-.052l-.085-.103a.089.089 0 0 0-.083-.051h-2.303c-.034 0-.051.016-.051.051v3.961c0 .033.017.051.051.051h3.303a.098.098 0 0 0 .085-.051l.082-.118a.143.143 0 0 1 .085-.035h.287c.035 0 .053.02.053.053v1.676h-.001zm4.862-11.801c2.134.052 2.303 2.068 2.303 2.338v7.179c0 .287-.151 2.338-2.371 2.338h-3.301c-.033 0-.05-.019-.05-.052v-.305c0-.017.017-.052.033-.069l.119-.101c.031-.02.049-.033.049-.069v-10.648a.101.101 0 0 0-.049-.086l-.119-.085a.113.113 0 0 1-.033-.083v-.305c0-.032.017-.05.05-.05h3.37v-.002zm-1.643 10.226c0 .033.018.051.053.051h1.522c.389 0 .576-.185.695-.388.049-.12.084-.256.102-.407v-7.11a1.586 1.586 0 0 0-.102-.39c-.119-.201-.307-.405-.695-.405h-1.522c-.035 0-.053.018-.053.051v8.598zm9.91 1.745c-2.252 0-2.371-2.151-2.371-2.354v-7.515c0-.321.187-2.338 2.371-2.338h.796c2.233 0 2.371 2.132 2.371 2.354v1.778c0 .032-.019.052-.053.052h-1.677c-.033 0-.051-.02-.051-.052v-.289a.14.14 0 0 1 .033-.083l.119-.085a.12.12 0 0 0 .034-.085v-1.219a1.339 1.339 0 0 0-.104-.388c-.116-.206-.286-.409-.676-.409h-.796c-.407 0-.576.203-.695.409-.05.118-.083.252-.1.388v7.468c.017.15.05.288.1.404.12.203.288.392.695.392h.796c.389 0 .56-.188.676-.392.053-.116.088-.254.104-.404v-3.335c0-.036-.016-.052-.051-.052h-.916c-.049 0-.065-.02-.065-.035l-.694-1.388c-.018-.033-.018-.05.033-.05h3.234c.033 0 .051.017.051.05v7.01c0 .035-.018.052-.051.052h-.288c-.052 0-.068-.017-.068-.052l-.254-.423c-.019-.034-.034-.034-.052-.017-.355.354-.863.609-1.658.609h-.794v-.001zm10.788-.17c0 .035-.018.052-.049.052h-2.085c-.034 0-.051-.017-.051-.052v-.303c0-.034.017-.071.034-.085l.202-.188c.017-.016.034-.033.034-.082l-.222-1.085c0-.034-.016-.052-.05-.052h-2.337c-.034 0-.05.018-.05.052l-.223 1.085c0 .033.016.066.033.082l.204.188a.119.119 0 0 1 .034.085v.303c0 .035-.02.052-.051.052h-2.084c-.032 0-.051-.017-.051-.052v-.303c0-.02.019-.034.034-.085l.252-.188c.021-.016.036-.033.053-.082l2.218-11.092c0-.032.017-.05.051-.05h1.488c.035 0 .052.018.052.05l2.219 11.092c0 .016.017.033.05.066l.256.203c.016.051.032.068.032.085v.303h.007zm-4.299-3.132c0 .017.018.032.05.032h1.795c.035 0 .051-.016.051-.032l-.933-4.673c-.017-.018-.017-.018-.032 0l-.931 4.673zm5.216-8.617c0-.035.018-.052.052-.052h3.605c1.033.052 1.558.591 1.812 1.135.152.321.236.678.253 1.065v2.543c0 .168-.017.336-.067.525a2.523 2.523 0 0 1-.439 1.016c-.018.017-.018.05 0 .083.254.341.374.711.439.982.051.152.067.304.067.457v3.452c0 .033.019.05.052.069l.12.101a.126.126 0 0 1 .032.069v.305c0 .033-.017.052-.049.052h-1.679c-.032 0-.05-.019-.05-.052v-3.996a1.43 1.43 0 0 0-.103-.388c-.118-.203-.304-.407-.692-.407h-1.524c-.033 0-.051.018-.051.051v4.199c0 .016.018.049.032.068l.12.099c.033.02.051.053.051.071v.303c0 .035-.018.052-.051.052h-1.881c-.033 0-.05-.017-.05-.052v-.303c0-.019.017-.052.033-.071l.118-.099c.035-.02.053-.035.053-.068V109.84a.09.09 0 0 0-.053-.083l-.118-.086a.12.12 0 0 1-.033-.082v-.307h.001zm3.355 5.487c.389 0 .575-.188.692-.391a1.48 1.48 0 0 0 .104-.406v-2.709c-.02-.084-.033-.153-.086-.222-.085-.118-.203-.234-.525-.234h-1.709c-.034 0-.051.018-.051.051v3.858c0 .033.017.053.051.053h1.524zm5.742 6.262c0 .035-.016.052-.05.052h-1.879c-.033 0-.05-.017-.05-.052v-.303c0-.02.017-.052.033-.071l.118-.099c.032-.02.05-.036.05-.069v-10.651a.093.093 0 0 0-.05-.083l-.118-.085a.123.123 0 0 1-.033-.083v-.305c0-.035.017-.052.05-.052h1.676c.019 0 .051.017.068.052l1.931 4.352c.016.017.033.017.051 0l1.931-4.352c.018-.035.031-.052.067-.052h1.678c.033 0 .051.017.051.052v.305a.134.134 0 0 1-.034.083l-.12.085a.13.13 0 0 0-.032.083v10.651c0 .017.018.05.032.069l.12.099c.017.02.034.052.034.071v.303c0 .035-.018.052-.051.052h-1.864c-.033 0-.05-.017-.05-.052v-.303c0-.02.017-.052.033-.071l.118-.099a.126.126 0 0 0 .035-.069v-7.501c0-.016 0-.016-.018 0l-1.931 4.351c-.018.02-.035.02-.051 0l-1.931-4.351c-.018-.016-.018-.016-.018 0v7.501c0 .017.018.05.035.069l.117.099c.034.02.05.052.05.071v.303h.002zm12.771 0c0 .035-.016.052-.049.052h-5.623c-.033 0-.049-.017-.049-.052v-.303c0-.02.016-.052.033-.071l.119-.099c.031-.02.049-.036.049-.069v-10.651a.094.094 0 0 0-.049-.083l-.119-.085c-.019-.016-.033-.052-.033-.083v-.305c0-.035.016-.052.049-.052h5.623c.033 0 .049.017.049.052v1.675c0 .033-.016.053-.049.053h-.289a.141.141 0 0 1-.084-.035l-.084-.118c-.035-.033-.068-.051-.085-.051h-3.301c-.033 0-.052.018-.052.051v3.064c0 .031.019.05.052.05h2.302a.14.14 0 0 0 .085-.034l.084-.12c.034-.033.066-.049.084-.049h.305c.032 0 .051.016.051.049v1.78c0 .035-.019.052-.051.052h-.305c-.05 0-.069-.017-.084-.052l-.084-.103a.094.094 0 0 0-.085-.051h-2.302c-.033 0-.052.016-.052.051v3.961c0 .033.019.051.052.051h3.301a.096.096 0 0 0 .085-.051l.084-.118a.143.143 0 0 1 .084-.035h.289c.033 0 .049.02.049.053v1.676zm6.218-11.377a.113.113 0 0 1-.035-.067v-.305c0-.035.019-.052.053-.052h1.88c.031 0 .049.017.049.052v.305c0 .031-.018.05-.049.067l-.12.101a.132.132 0 0 0-.034.068v10.666c0 .017.017.05.034.069l.12.101c.031.018.049.053.049.069v.305c0 .033-.018.052-.049.052h-1.677c-.053 0-.069-.019-.069-.052l-3.132-7.636c-.017-.02-.017 0-.017.017v7.078c0 .016.017.049.032.068l.118.099c.034.02.053.053.053.071v.303c0 .035-.019.052-.053.052h-1.88c-.031 0-.049-.017-.049-.052v-.303a.16.16 0 0 1 .032-.071l.12-.099c.033-.02.049-.035.049-.068v-10.669c0-.016-.016-.049-.049-.065l-.12-.102a.12.12 0 0 1-.032-.069v-.305c0-.032.018-.05.049-.05h1.676c.021 0 .054.018.07.05l3.132 7.637c0 .019.017.035.017-.018v-7.078c0-.016-.017-.051-.051-.068l-.117-.101zm5.119-.424h3.505c.033 0 .052.017.052.052v1.675c0 .033-.019.053-.052.053h-.304a.137.137 0 0 1-.086-.035l-.083-.118c-.033-.033-.07-.051-.085-.051h-1.321c-.033 0-.05.018-.05.051v9.632c0 .017.017.05.033.069l.118.101c.034.018.052.053.052.069v.305c0 .033-.018.052-.052.052h-1.88c-.031 0-.05-.019-.05-.052v-.305c0-.017.019-.052.034-.069l.119-.101c.033-.02.05-.033.05-.069v-9.632c0-.033-.017-.051-.05-.051h-1.338c-.016 0-.033.018-.068.051l-.101.118c-.019.016-.051.035-.068.035h-.305c-.034 0-.051-.02-.051-.053v-1.675c0-.035.017-.052.051-.052h1.93zm8.432 7.384c0-.085-.05-.272-.271-.426l-2.91-1.728c-.731-.405-.764-1.033-.764-1.22v-1.761c.018-.439.103-.827.287-1.185.289-.593.881-1.186 2.084-1.186h.795c2.185 0 2.371 2.051 2.371 2.34v.691c0 .033-.019.051-.052.069l-1.524.764-.15.065c-.035.017-.053.017-.053-.017v-.39c0-.052.018-.085.018-.102l.151-.236c.019-.017.034-.05.034-.102v-.711a1.428 1.428 0 0 0-.101-.388c-.118-.206-.306-.409-.694-.409h-.795c-.39 0-.561.203-.679.409-.05.118-.085.252-.102.388v1.406c0 .085 0 .304.324.488l2.859 1.712c.729.405.763 1.032.763 1.219v2.521a3.28 3.28 0 0 1-.307 1.185c-.321.593-.882 1.187-2.064 1.187h-.795c-1.203 0-1.794-.594-2.084-1.187-.185-.354-.272-.742-.287-1.185v-2.049c0-.031.018-.066.053-.083l1.538-.76.153-.069c.016-.017.034-.017.034.017v.407c0 .049 0 .067-.02.085l-.152.236c-.017.016-.017.049-.017.101v2.115c.017.153.052.289.102.407.118.203.288.39.68.39h.794c.389 0 .577-.187.694-.39.05-.118.083-.254.101-.407l-.014-2.211z"/></g></svg>