<svg xmlns="http://www.w3.org/2000/svg" width="240" height="80" viewBox="0 50 240 80"><path d="M53.658 84.498c0 .824.454 1.69-.412 2.556 0 .371.412.371.412.825-3.01 2.556-8.493 4.246-12.822 6.391-1.237.412-2.515.865-4.247 0-1.69-2.145.866-6.391 1.319-8.535 1.237-3.793 1.69-8.04 2.556-11.915 1.237-2.144.825-7.668 2.927-8.534 2.144-.866 4.288 1.278 3.463 4.7 0 1.69-1.69 4.247-2.144 6.39-.866 3.422-2.556 6.803-3.01 10.678 3.01-.412 6.844-2.185 9.4-3.875.454 0 .454-.413.866 0v-.413c.372.413.826 1.278 1.692 1.732zm22.633-6.844c.124.412.619.701.866 1.525-.412.083-.701.577-.701.577-1.649.454-4.041 1.113-5.483 2.35-.124 2.68 3.669 8.782 4.576 10.267-.948-.165-.453.123-.866.206.619.742.33 1.236.454 1.648-.825.165-.825.165-1.36-.082 0 0-.371.124-.289.495-.371.082-.783.206-1.237.329-2.309-.659-4.205-7.668-4.989-10.554l-.082-.33c-1.484.784-3.463 1.732-4.536 2.515-1.896.907-1.195.165-1.566 2.021-.248.536-.701.659-.866 1.525-1.443 1.319-1.402 3.01-3.34 3.958l.124.412c-2.309 1.03-4.371-.165-4.824-1.772.413-.124.33-.495.33-.495.165-2.68 3.092-4.247 4.329-6.391 1.69-2.927 4.535-3.752 4.123-7.091.412-.124.124.412.247.783.371-.124-.247-.783.577-.989.083.412-.289.536-.577.989.783-.206.66-.577.577-.989-.124-.413 0 0 0 0 .619-1.031.66-2.35 1.278-3.422.454.33-.289.536-.083 1.361.289-.495.206-.948.536-1.031 0 0 .33-.536.742-.66-.495 1.484-1.03 2.474-1.649 3.504.495.33.289-.495 1.196-.33-.33-1.237-.042-1.69.783-1.938.742-.619-.206-.825.495-1.443l.124.412s.371-.124.289-.536c-.124-.33-.413.124-.495-.247-.453.083.083.371-.33.495-.248-.783.866-1.525.66-2.35.783-.248.412-1.855.618-2.391-.041-.371-.33.124-.33.124l-.124-.412c.412-1.814.866-3.216 1.319-4.659.824-.248.742-.66 1.113-.783.454-.083 1.031.618 1.319.083l.124.412c1.113-.701 1.278 1.402 1.608 1.319.618 3.71-.907 7.627-.33 11.379 1.196-.33 2.556-.248 3.092-1.237.413-.124.083.371.083.371.866-.207 1.237-.33 1.814 0 .083.371-.866.206-.33.495.083.371.783-.248.907.165.495.33-.371.083-.824.206.125.453.578.329.908.206zm-14.1.783c-.083-.412.577-1.031.453-1.443l-.371.083c.124.453-.618 1.071-.082 1.36zm2.556-.247c.165-.948 1.237-1.608.66-2.35-.33.494-.784 1.937-.66 2.35zm1.855-.99c-.577 1.072-1.237 1.69-1.319 2.969.742-.206 1.196-.33 1.484-.825-.082-.371.083-1.278-.165-2.144zm-.33-2.927c.124.413-.701.619-.577 1.072l.124.371c-.124-.371.701-.618.371-.082.412-.124.495-1.444.082-1.361zm11.501 9.318c0-2.598 1.773-3.958 3.958-4.783 1.319-4.453 1.319-9.647 3.092-13.193 1.773-.907 3.051-.907 4.783-.412 2.68 2.597.907 6.968-.413 10.06.413 0 .866 0 1.319-.413.866-.495 1.278-.907 2.185-1.319.454 0 .866-.454 1.773-.907 1.773-.866 3.463-3.051 4.783-3.051 1.36 0 2.185.866 3.546.866v3.092c-.907.413-1.361.825-1.361 2.185-3.01 1.319-9.07 4.165-12.163 5.442 4.371 1.732 9.4 5.03 12.905 7.628.866 1.319.866 3.092.454 4.37l-1.319 1.772c-1.36.412-2.185-1.278-3.958-1.278-3.092-3.545-6.391-6.102-12.534-6.555-1.319 1.772-.907 5.235-3.092 6.555v1.361c0-.454-1.278-.454-1.278.412-.495-.412-1.319-1.319-1.773-.412-.454 0-.907-.907-1.319-1.361 0-3.504 1.319-5.689 2.597-8.287-.412-.906-1.277-1.36-2.185-1.772zm39.537 8.328c-2.144.866-3.917 2.186-5.648 2.598-2.556.866-4.741 1.731-6.473-.412-.412-4.329 1.732-5.607 1.732-9.112-.866-.865-2.144-.865-2.144-2.556-.866-3.463 2.144-3.917 3.917-5.195.824-3.01.824-6.061.412-7.751.866-1.731 2.144-3.01 3.834-3.504 4.37.907 8.699-2.144 13.853-1.278 0 .412.453.866.453 1.772 0 .866-.453.866-.453 2.144-3.464 2.144-7.792 3.01-11.627 4.742-.454.866-.454 1.319-.454 2.144 3.01 0 6.926-3.051 10.349-1.278 0 .454-.413.454-.413.866.825.866.413 1.278.825 2.556-.412.866-1.69 1.731-2.557.866-3.463 2.185-6.885 3.504-10.802 5.195-.454 1.278-.866 2.639-.866 3.917 1.69 0 4.329-2.639 6.885-2.639h.454c1.278-.412 3.05-1.278 4.329-1.69 1.731-.454 3.422-.454 4.783.412-.454.866 0 .866 0 1.278-.907 0-.454.866-1.361 1.361 0 0 .907.412.907 0 0 0 0 .865.866.865-3.049 1.689-7.338 2.968-10.801 4.699zm12.285-13.234c.453 0 .453 0 .865.454 0-.454-.412-.866-.412-1.319 0-2.639 1.731-4.824 3.505-6.143 1.277-1.278 3.463-2.186 4.782-3.051s3.051-1.731 4.37-1.731c1.731-1.319 4.37-.454 6.103 0 1.772 1.278 3.504 9.606-.866 8.287-1.772 0-2.186-2.185-1.772-4.783-1.278-.907-2.598.412-4.371.412-2.556 1.319-5.648 2.639-7.38 5.69 3.505.866 8.699 0 12.204 1.773.453.866 1.319 1.731 2.186 2.185.453 0 0-.454 0-.454 1.772 1.319 2.185 3.504 1.772 6.968-.453 2.186-2.186 3.505-3.092 5.236-.866.453-1.319.907-2.186 1.772-.412-.453-.412-.453-.866-.453-1.319.865-3.051 1.319-4.329 1.319-3.092 0-6.143-2.186-8.328-2.639 0-.412 0-.412.454-.412-1.319-.907-2.186-1.773-2.639-3.093.453.454 1.319.454 1.731 0 .453.454.907 1.319 1.319.454-.412-.454-1.731 0-1.319-1.319.453 0 .453.453.907.865 0-.412-.454-.865-.454-1.731.454.453.866 0 1.773 0 .865.453 1.731 1.319 2.597 1.731 3.958 2.186 10.473 1.319 10.02-5.195-2.598-2.639-10.885.825-14.39-1.773-.453-.866-.453-1.278-.865-1.731-.866 0-.866-.454-1.319-1.319zm32.032 3.339c0 .907-.453 1.361-.453 2.268-.907 2.268-1.402 5.03-1.814 7.339 0 .948-.948 2.268-.948 3.669-.907 0 0-.907-.907-.907-.495.454.907.907 0 .907 0-.453-.495 0-.907 0v-.907c-.907 1.361-1.401-.494-1.855 0-.906-4.576.948-8.74 1.855-12.369.412-2.762.907-6.019 1.36-8.74.907-3.216.907-6.391 2.763-7.792 4.576-1.855 4.576 4.576 3.216 9.194-.494 1.814-1.401 4.082-2.309 6.432l-.001.906zm14.553 6.885c-.701.454-1.443.825-1.814.825 0 0-.371.453 0 .453-1.113.412-1.855 1.237-2.969 1.69-.742.824-1.484 2.062-2.597 2.515-.371-.824-1.113-.824-1.113-1.69-.371 0-.371.413-.742.413-.371-.825-.701-.825-1.113-1.237 0-.824.412-.824.412-1.278v.454c.33-.454 0-.866 0-1.319.701-.371 1.443-.825 2.186-1.649 1.112-5.03 2.968-9.648 3.71-15.956-.371-.371-.371-1.237-.371-1.237-1.484-5.896 4.824-4.618 7.793-5.483 2.968 1.319 7.009.454 7.009 5.483 0 .413.742.413.742 1.237-.742 0-1.072 2.969-.742 3.793 0 .866-.33 1.69-.742 2.103l.742-.412c0 .824-.742 1.69-1.072 2.061 0 .454 0 .454 0 0-.742 2.144-2.639 2.969-3.711 4.659-1.896.824-3.38 2.515-4.864 3.34v.412s0-.412.412-.412c-.002.864-.744.864-1.156 1.235zm2.967-7.545c1.484-1.237 3.381-2.515 4.453-4.205 1.154-1.237 2.227-2.515 2.227-5.03-1.814-1.69-5.938-1.69-8.163-.371-.742 2.062-1.484 4.577-2.186 6.679-.742 2.515-1.484 4.618-2.227 7.132 2.228-.412 4.413-2.514 5.896-4.205zm20.656 10.555c-2.145.866-3.917 2.186-5.648 2.598-2.557.866-4.742 1.731-6.474-.412-.412-4.329 1.731-5.607 1.731-9.112-.865-.865-2.144-.865-2.144-2.556-.866-3.463 2.144-3.917 3.917-5.195.824-3.01.824-6.061.412-7.751.866-1.731 2.144-3.01 3.834-3.504 4.371.907 8.699-2.144 13.854-1.278 0 .412.453.866.453 1.772 0 .866-.453.866-.453 2.144-3.464 2.144-7.793 3.01-11.627 4.742-.453.866-.453 1.319-.453 2.144 3.01 0 6.926-3.051 10.349-1.278 0 .454-.413.454-.413.866.825.866.413 1.278.825 2.556-.412.866-1.69 1.731-2.557.866-3.463 2.185-6.885 3.504-10.802 5.195-.453 1.278-.866 2.639-.866 3.917 1.69 0 4.329-2.639 6.886-2.639h.453c1.278-.412 3.051-1.278 4.329-1.69 1.731-.454 3.422-.454 4.783.412-.454.866 0 .866 0 1.278-.907 0-.454.866-1.361 1.361 0 0 .907.412.907 0 0 0 0 .865.866.865-3.05 1.689-7.338 2.968-10.801 4.699zM78.7 101.044c0-.032.016-.048.048-.048h1.776c.032 0 .048.016.048.048v.288a.13.13 0 0 1-.031.08l-.112.08a.088.088 0 0 0-.048.08v10.052c0 .048.016.064.048.08l.112.08a.122.122 0 0 1 .031.08v.288c0 .032-.016.048-.048.048h-1.776c-.032 0-.048-.016-.048-.048v-.288c0-.032.016-.064.048-.08l.111-.08a.117.117 0 0 0 .032-.08v-4.706c0-.032-.016-.048-.048-.048h-2.145c-.032 0-.048.016-.048.048v4.706c0 .032.016.064.031.08l.112.08a.088.088 0 0 1 .048.08v.288c0 .032-.016.048-.048.048h-1.776c-.032 0-.048-.016-.048-.048v-.288c0-.032.016-.064.031-.08l.112-.08c.032-.016.048-.032.048-.08v-10.052a.088.088 0 0 0-.048-.08l-.112-.08a.124.124 0 0 1-.031-.08v-.288c0-.032.016-.048.048-.048h1.776c.032 0 .048.016.048.048v.288c0 .048-.016.063-.048.08l-.112.08a.122.122 0 0 0-.031.08v3.857c0 .032.016.048.048.048h2.145c.032 0 .048-.016.048-.048v-3.857a.122.122 0 0 0-.032-.08l-.111-.08c-.032-.017-.048-.032-.048-.08v-.288zm10.96 11.108c0 .032-.016.048-.048.048h-1.969c-.032 0-.048-.016-.048-.048v-.288c0-.032.016-.064.031-.08l.192-.176c.017-.017.032-.032.032-.08l-.208-1.024c0-.032-.017-.049-.048-.049h-2.209c-.032 0-.048.017-.048.049l-.208 1.024c0 .031.016.063.031.08l.192.176a.122.122 0 0 1 .032.08v.288c0 .032-.017.048-.048.048H83.37c-.032 0-.049-.016-.049-.048v-.288c0-.017.017-.032.032-.08l.24-.176c.016-.017.032-.032.048-.08l2.097-10.484c0-.032.017-.048.049-.048h1.408c.032 0 .048.016.048.048l2.097 10.484c0 .016.017.031.048.063l.24.192c.017.048.032.063.032.08v.289zm-4.065-2.961c0 .016.016.031.048.031h1.696c.032 0 .049-.016.049-.031l-.881-4.418c-.016-.017-.016-.017-.032 0l-.88 4.418zm11.681-7.795a.115.115 0 0 1-.032-.063v-.288c0-.032.016-.048.048-.048h1.776c.032 0 .049.016.049.048v.288c0 .032-.017.048-.049.063l-.111.097a.115.115 0 0 0-.032.063v10.084c0 .017.016.049.032.064l.111.096c.032.017.049.048.049.064v.288c0 .032-.017.048-.049.048h-1.584c-.048 0-.064-.016-.064-.048l-2.961-7.219c-.016-.017-.016 0-.016.016v6.69a.12.12 0 0 0 .031.064l.112.096c.032.017.048.048.048.064v.288c0 .032-.016.048-.048.048H92.81c-.032 0-.048-.016-.048-.048v-.288c0-.017.016-.048.031-.064l.112-.096c.032-.016.048-.032.048-.064v-10.084c0-.016-.016-.048-.048-.063l-.112-.097a.12.12 0 0 1-.031-.063v-.288c0-.032.016-.048.048-.048h1.584c.017 0 .049.016.064.048l2.961 7.219c0 .016.017.032.017-.016v-6.691c0-.016-.017-.048-.049-.063l-.111-.097zm8.591-.4c2.018.048 2.178 1.952 2.178 2.208v6.787c0 .272-.145 2.209-2.241 2.209h-3.121c-.032 0-.048-.016-.048-.048v-.288c0-.017.016-.048.031-.064l.112-.096c.032-.016.048-.032.048-.064v-10.067a.088.088 0 0 0-.048-.08l-.112-.08a.124.124 0 0 1-.031-.08v-.288c0-.032.016-.048.048-.048h3.184zm-1.552 9.667c0 .032.016.049.048.049h1.44c.368 0 .544-.177.656-.368.048-.112.08-.24.096-.385v-6.723a1.384 1.384 0 0 0-.096-.368c-.112-.191-.288-.384-.656-.384h-1.44c-.032 0-.048.016-.048.048v8.131zm6.927-7.618c.048-.4.256-2.161 2.24-2.161h.736c2.098 0 2.241 1.937 2.241 2.209v1.713c0 .031-.016.048-.048.048h-1.585c-.032 0-.048-.017-.048-.048v-.289c0-.031.016-.063.048-.079l.112-.08a.127.127 0 0 0 .032-.08v-1.152a1.365 1.365 0 0 0-.097-.368c-.111-.192-.288-.385-.656-.385h-.736c-.384 0-.544.192-.656.385-.048.111-.08.239-.096.368v6.946c.016.145.048.272.096.384.112.192.272.368.656.368h.736c.368 0 .545-.176.656-.368.049-.111.08-.239.097-.384v-2.257a.128.128 0 0 0-.032-.08l-.128-.224c-.017-.049-.032-.08-.032-.097v-.368c0-.048.016-.063.048-.032l.145.064 1.44.721a.088.088 0 0 1 .048.08v2.337c-.048.512-.368 2.097-2.241 2.097h-.736c-1.984 0-2.192-1.761-2.24-2.161v-7.107zm8.336-2.001c0-.032.016-.048.048-.048h3.409c.977.048 1.473.56 1.713 1.072.144.304.224.64.24 1.008v2.401c0 .16-.017.32-.064.496a2.353 2.353 0 0 1-.416.96c-.016.017-.016.049 0 .08.24.32.353.673.416.929.048.145.064.288.064.433v3.265c0 .032.016.049.048.064l.112.096a.123.123 0 0 1 .031.064v.288c0 .032-.016.048-.048.048h-1.584c-.032 0-.049-.016-.049-.048v-3.777a1.374 1.374 0 0 0-.096-.368c-.112-.192-.288-.385-.656-.385h-1.44c-.032 0-.048.017-.048.048v3.97a.12.12 0 0 0 .031.064l.112.096c.032.017.048.048.048.064v.288c0 .032-.016.048-.048.048h-1.776c-.032 0-.048-.016-.048-.048v-.288c0-.017.016-.048.031-.064l.112-.096c.032-.016.048-.032.048-.064v-10.067a.088.088 0 0 0-.048-.08l-.112-.08a.124.124 0 0 1-.031-.08v-.289zm3.169 5.185c.368 0 .544-.176.656-.368.048-.111.08-.24.096-.384v-2.562a.46.46 0 0 0-.08-.208c-.08-.111-.191-.224-.496-.224h-1.616c-.032 0-.048.016-.048.048v3.649c0 .032.016.048.048.048h1.44zm11.841 5.923c0 .032-.016.048-.048.048h-1.969c-.032 0-.048-.016-.048-.048v-.288c0-.032.016-.064.031-.08l.192-.176c.017-.017.032-.032.032-.08l-.208-1.024c0-.032-.017-.049-.048-.049h-2.209c-.032 0-.048.017-.048.049l-.208 1.024c0 .031.016.063.031.08l.192.176a.122.122 0 0 1 .032.08v.288c0 .032-.017.048-.048.048h-1.969c-.032 0-.049-.016-.049-.048v-.288c0-.017.017-.032.032-.08l.24-.176c.016-.017.032-.032.048-.08l2.097-10.484c0-.032.017-.048.049-.048h1.408c.032 0 .048.016.048.048l2.097 10.484c0 .016.017.031.048.063l.24.192c.017.048.032.063.032.08v.289zm-4.066-2.961c0 .016.016.031.048.031h1.696c.032 0 .049-.016.049-.031l-.881-4.418c-.016-.017-.016-.017-.032 0l-.88 4.418zm12.529-8.195c.032 0 .049.016.049.048v1.584c0 .032-.017.049-.049.049h-.271a.128.128 0 0 1-.08-.032l-.08-.112c-.032-.032-.064-.048-.08-.048h-3.121c-.032 0-.048.016-.048.048v2.897c0 .032.016.048.048.048h2.177a.124.124 0 0 0 .08-.032l.08-.112c.032-.031.063-.048.08-.048h.288c.032 0 .048.017.048.048v1.681c0 .032-.016.049-.048.049h-.288c-.048 0-.064-.017-.08-.049l-.08-.096a.09.09 0 0 0-.08-.048h-2.177c-.032 0-.048.016-.048.048v4.722a.12.12 0 0 0 .031.064l.112.096c.032.017.048.048.048.064v.288c0 .032-.016.048-.048.048h-1.776c-.032 0-.048-.016-.048-.048v-.288c0-.017.016-.048.031-.064l.112-.096c.032-.016.048-.032.048-.064v-10.067a.088.088 0 0 0-.048-.08l-.112-.08a.124.124 0 0 1-.031-.08v-.288c0-.032.016-.048.048-.048h5.313zm4.879 0h3.313c.032 0 .048.016.048.048v1.584c0 .032-.016.049-.048.049h-.288a.132.132 0 0 1-.08-.032l-.08-.112c-.031-.032-.063-.048-.08-.048h-1.248c-.032 0-.048.016-.048.048v9.107c0 .017.016.049.032.064l.111.096c.032.017.048.048.048.064v.288c0 .032-.016.048-.048.048h-1.777c-.032 0-.048-.016-.048-.048v-.288c0-.017.016-.048.032-.064l.111-.096c.032-.016.048-.032.048-.064v-9.107c0-.032-.016-.048-.048-.048h-1.265c-.016 0-.031.016-.063.048l-.096.112a.129.129 0 0 1-.064.032h-.288c-.032 0-.048-.017-.048-.049v-1.584c0-.032.016-.048.048-.048h1.826zm11.97 11.156c0 .032-.017.048-.049.048h-5.313c-.032 0-.048-.016-.048-.048v-.288c0-.017.016-.048.031-.064l.112-.096c.032-.016.048-.032.048-.064v-10.067a.088.088 0 0 0-.048-.08l-.112-.08a.124.124 0 0 1-.031-.08v-.288c0-.032.016-.048.048-.048h5.313c.032 0 .049.016.049.048v1.584c0 .032-.017.049-.049.049h-.271a.128.128 0 0 1-.08-.032l-.08-.112c-.032-.032-.064-.048-.08-.048h-3.121c-.032 0-.048.016-.048.048v2.897c0 .032.016.048.048.048h2.177a.124.124 0 0 0 .08-.032l.08-.112c.032-.031.063-.048.08-.048h.288c.032 0 .048.017.048.048v1.681c0 .032-.016.049-.048.049h-.288c-.048 0-.064-.017-.08-.049l-.08-.096a.09.09 0 0 0-.08-.048h-2.177c-.032 0-.048.016-.048.048v3.745c0 .032.016.049.048.049h3.121a.089.089 0 0 0 .08-.049l.08-.111a.117.117 0 0 1 .08-.032h.271c.032 0 .049.016.049.048v1.582zm6.67-11.156c2.018.048 2.178 1.952 2.178 2.208v6.787c0 .272-.145 2.209-2.241 2.209h-3.121c-.032 0-.048-.016-.048-.048v-.288c0-.017.016-.048.031-.064l.112-.096c.032-.016.048-.032.048-.064v-10.067a.088.088 0 0 0-.048-.08l-.112-.08a.124.124 0 0 1-.031-.08v-.288c0-.032.016-.048.048-.048h3.184zm-1.551 9.667c0 .032.016.049.048.049h1.44c.368 0 .544-.177.656-.368.048-.112.08-.24.096-.385v-6.723a1.384 1.384 0 0 0-.096-.368c-.112-.191-.288-.384-.656-.384h-1.44c-.032 0-.048.016-.048.048v8.131z" fill="#333"/></svg>