<svg xmlns="http://www.w3.org/2000/svg" width="240" height="80" viewBox="0 50 240 80"><g fill="#FFF"><path d="M80.146 103.267c0-.029.015-.044.044-.044h1.61c.029 0 .044.015.044.044v.261c0 .03-.015.059-.029.072l-.102.073a.081.081 0 0 0-.044.073v9.113c0 .044.015.058.044.072l.102.073a.107.107 0 0 1 .029.071v.262c0 .029-.015.044-.044.044h-1.61c-.029 0-.044-.015-.044-.044v-.262c0-.027.015-.058.044-.071l.101-.073a.105.105 0 0 0 .029-.072v-4.267c0-.029-.014-.044-.043-.044h-1.945c-.028 0-.043.015-.043.044v4.267c0 .028.015.058.029.072l.101.073c.03.014.044.044.044.071v.262c0 .029-.014.044-.044.044h-1.61c-.029 0-.044-.015-.044-.044v-.262a.11.11 0 0 1 .029-.071l.102-.073c.029-.015.044-.028.044-.072v-9.113a.08.08 0 0 0-.044-.073l-.102-.073a.104.104 0 0 1-.029-.072v-.261c0-.029.015-.044.044-.044h1.61c.03 0 .044.015.044.044v.261c0 .044-.014.059-.044.072l-.101.073a.11.11 0 0 0-.029.073v3.497c0 .029.015.043.043.043h1.945c.029 0 .043-.014.043-.043v-3.497a.109.109 0 0 0-.029-.073l-.101-.073c-.029-.014-.044-.028-.044-.072v-.261zm10.96 10.071c0 .029-.014.044-.043.044h-1.785c-.029 0-.043-.015-.043-.044v-.262c0-.027.014-.058.029-.071l.174-.159c.014-.017.029-.03.029-.074l-.189-.929c0-.028-.014-.044-.043-.044h-2.003c-.029 0-.043.016-.043.044l-.189.928c0 .03.015.058.029.074l.174.159a.107.107 0 0 1 .029.071v.262c0 .029-.015.044-.043.044h-1.786c-.028 0-.043-.015-.043-.044v-.262c0-.014.015-.027.029-.071l.217-.159c.016-.017.029-.03.044-.074l1.901-9.505c0-.029.015-.044.043-.044h1.277c.029 0 .043.015.043.044l1.901 9.505c0 .015.016.03.044.058l.218.176c.015.044.028.058.028.071v.262zm-3.685-2.685c0 .014.014.029.043.029h1.539c.029 0 .043-.016.043-.029l-.798-4.005c-.015-.016-.015-.016-.029 0l-.798 4.005zm11.614-7.067a.107.107 0 0 1-.028-.059v-.261c0-.029.014-.044.044-.044h1.61c.028 0 .044.015.044.044v.261c0 .03-.016.044-.044.059l-.102.087a.107.107 0 0 0-.028.058v9.143c0 .015.014.044.028.059l.102.087c.028.015.044.044.044.058v.262c0 .029-.016.044-.044.044h-1.437c-.044 0-.058-.015-.058-.044l-2.686-6.546c-.015-.014-.015 0-.015.017v6.064c0 .015.015.044.029.059l.101.087c.03.015.044.044.044.058v.262c0 .029-.014.044-.044.044h-1.61c-.028 0-.044-.015-.044-.044v-.262c0-.014.016-.043.029-.058l.103-.087c.028-.015.044-.028.044-.059v-9.143c0-.014-.016-.043-.044-.058l-.103-.087a.116.116 0 0 1-.029-.059v-.261c0-.029.016-.044.044-.044h1.438c.015 0 .043.015.058.044l2.686 6.545c0 .015.014.028.014-.014v-6.067c0-.014-.014-.043-.043-.058l-.103-.087zm8.816-.363c1.828.044 1.974 1.771 1.974 2.003v6.153c0 .246-.132 2.003-2.031 2.003h-2.831c-.029 0-.044-.015-.044-.044v-.262c0-.014.015-.043.029-.058l.102-.087c.029-.015.044-.028.044-.059v-9.127a.08.08 0 0 0-.044-.073l-.102-.073a.104.104 0 0 1-.029-.072v-.261c0-.029.015-.044.044-.044h2.888zm-1.409 8.765c0 .03.015.044.044.044h1.307c.333 0 .492-.16.595-.334.043-.103.072-.218.086-.348v-6.097a1.264 1.264 0 0 0-.086-.333c-.103-.174-.262-.348-.595-.348h-1.307c-.029 0-.044.015-.044.043v7.373zm7.305-6.907c.043-.363.231-1.959 2.031-1.959h.668c1.9 0 2.031 1.755 2.031 2.002v1.554c0 .028-.014.043-.044.043h-1.437c-.028 0-.043-.015-.043-.043v-.262c0-.03.015-.058.043-.073l.103-.072a.113.113 0 0 0 .029-.072v-1.044a1.262 1.262 0 0 0-.089-.335c-.101-.174-.261-.349-.594-.349h-.668c-.348 0-.493.175-.595.349a1.342 1.342 0 0 0-.088.335v6.298c.016.13.045.246.088.347.102.176.247.334.595.334h.668c.333 0 .493-.158.594-.334.045-.101.073-.217.089-.347v-2.046a.117.117 0 0 0-.029-.073l-.117-.203c-.014-.043-.028-.073-.028-.087v-.334c0-.043.015-.059.043-.029l.132.058 1.305.653a.08.08 0 0 1 .044.072v2.119c-.044.464-.334 1.901-2.031 1.901h-.668c-1.8 0-1.988-1.596-2.031-1.959v-6.444zm8.581-1.814c0-.029.015-.044.043-.044h3.092c.885.044 1.335.508 1.553.974.131.274.203.58.217.914v2.176c0 .146-.014.291-.058.45a2.14 2.14 0 0 1-.377.87c-.014.016-.014.044 0 .073.218.29.319.61.377.841.044.131.058.262.058.394v2.959c0 .03.016.044.044.059l.102.087c.014.015.03.044.03.058v.262c0 .029-.017.044-.044.044h-1.438c-.028 0-.043-.015-.043-.044v-3.424a1.31 1.31 0 0 0-.087-.335c-.102-.173-.263-.348-.596-.348h-1.305c-.03 0-.044.015-.044.042v3.6a.12.12 0 0 0 .027.059l.103.087c.028.015.044.044.044.058v.262c0 .029-.016.044-.044.044h-1.611c-.028 0-.043-.015-.043-.044v-.262c0-.014.015-.043.028-.058l.103-.087c.029-.015.043-.028.043-.059v-9.127a.08.08 0 0 0-.043-.073l-.103-.073a.108.108 0 0 1-.028-.072v-.263zm2.873 4.702c.333 0 .494-.16.596-.333.043-.103.072-.22.087-.35v-2.321a.43.43 0 0 0-.072-.188c-.074-.103-.175-.203-.45-.203h-1.465c-.03 0-.044.015-.044.043v3.309c0 .029.014.044.044.044h1.304zm11.76 5.369c0 .029-.015.044-.043.044h-1.786c-.028 0-.043-.015-.043-.044v-.262c0-.027.015-.058.028-.071l.175-.159c.015-.017.028-.03.028-.074l-.188-.929c0-.028-.015-.044-.043-.044h-2.003c-.028 0-.043.016-.043.044l-.188.929c0 .03.014.058.028.074l.175.159a.112.112 0 0 1 .028.071v.262c0 .029-.015.044-.043.044h-1.785c-.029 0-.044-.015-.044-.044v-.262c0-.014.015-.027.029-.071l.218-.159c.014-.017.029-.03.043-.074l1.901-9.505c0-.029.015-.044.044-.044h1.276c.03 0 .044.015.044.044l1.901 9.505c0 .015.014.03.043.058l.218.176c.015.044.029.058.029.071v.261zm-3.687-2.685c0 .014.016.029.044.029h1.538c.03 0 .044-.016.044-.029l-.799-4.005c-.015-.016-.015-.016-.028 0l-.799 4.005zm12.384-7.43c.028 0 .044.015.044.044v1.438c0 .027-.016.043-.044.043h-.247a.116.116 0 0 1-.072-.029l-.073-.102c-.028-.028-.058-.043-.072-.043h-2.83c-.029 0-.043.015-.043.043v2.627c0 .029.014.043.043.043h1.974a.115.115 0 0 0 .073-.028l.072-.103c.029-.028.059-.044.072-.044h.262c.028 0 .043.016.043.044v1.524c0 .029-.015.044-.043.044h-.262c-.043 0-.059-.015-.072-.044l-.072-.087a.083.083 0 0 0-.073-.044h-1.974c-.029 0-.043.015-.043.044v4.28c0 .015.014.044.029.059l.102.087c.028.015.044.044.044.058v.262c0 .029-.016.044-.044.044h-1.612c-.028 0-.042-.015-.042-.044v-.262c0-.014.014-.043.028-.058l.102-.087c.029-.015.044-.028.044-.059v-9.127a.08.08 0 0 0-.044-.073l-.102-.073a.103.103 0 0 1-.028-.072v-.261c0-.029.014-.044.042-.044h4.818zm5.447 0h3.003c.03 0 .044.015.044.044v1.438c0 .027-.014.043-.044.043h-.261a.119.119 0 0 1-.072-.029l-.073-.102c-.027-.028-.058-.043-.071-.043h-1.133c-.028 0-.044.015-.044.043v8.257c0 .015.016.044.03.059l.103.087c.027.015.041.044.041.058v.262c0 .029-.014.044-.041.044h-1.614c-.027 0-.041-.015-.041-.044v-.262c0-.014.014-.043.027-.058l.103-.087c.028-.015.043-.028.043-.059v-8.257c0-.028-.015-.043-.043-.043h-1.146c-.015 0-.03.015-.058.043l-.089.102a.11.11 0 0 1-.058.029h-.261c-.029 0-.043-.016-.043-.043v-1.438c0-.029.014-.044.043-.044h1.655zm11.875 10.115c0 .029-.015.044-.043.044h-4.817c-.03 0-.044-.015-.044-.044v-.262c0-.014.014-.043.028-.058l.102-.087c.029-.015.044-.028.044-.059v-9.127a.08.08 0 0 0-.044-.073l-.102-.073a.103.103 0 0 1-.028-.072v-.261c0-.029.014-.044.044-.044h4.817c.028 0 .043.015.043.044v1.438c0 .027-.015.043-.043.043h-.247a.116.116 0 0 1-.072-.029l-.073-.102c-.028-.028-.059-.043-.072-.043h-2.83c-.029 0-.044.015-.044.043v2.627c0 .029.015.043.044.043h1.974a.113.113 0 0 0 .073-.028l.072-.103c.029-.028.058-.044.072-.044h.262c.028 0 .043.016.043.044v1.524c0 .029-.015.044-.043.044h-.262c-.043 0-.059-.015-.072-.044l-.072-.087a.081.081 0 0 0-.073-.044h-1.974c-.029 0-.044.015-.044.044v3.396c0 .03.015.044.044.044h2.83a.077.077 0 0 0 .072-.044l.073-.101a.104.104 0 0 1 .072-.03h.247c.028 0 .043.015.043.044v1.437zm7.072-10.115c1.829.044 1.975 1.771 1.975 2.003v6.153c0 .246-.131 2.003-2.032 2.003h-2.83c-.028 0-.042-.015-.042-.044v-.262c0-.014.014-.043.027-.058l.103-.087c.028-.015.043-.028.043-.059v-9.127a.081.081 0 0 0-.043-.073l-.103-.073a.108.108 0 0 1-.027-.072v-.261c0-.029.014-.044.042-.044h2.887zm-1.407 8.765c0 .03.015.044.043.044h1.307c.334 0 .494-.16.595-.334.045-.103.072-.218.089-.348v-6.097a1.308 1.308 0 0 0-.089-.333c-.101-.174-.261-.348-.595-.348h-1.307c-.028 0-.043.015-.043.043v7.373zM74.54 62.535c-1.485 0-2.963.471-4.431 1.411-1.469.94-2.863 2.096-4.183 3.465a33.386 33.386 0 0 0-3.564 4.381c-1.056 1.552-1.93 2.954-2.623 4.208l-.247.594a129.065 129.065 0 0 1-3.465 6.385 36.98 36.98 0 0 1-4.06 5.693A28.098 28.098 0 0 1 46.82 93.3c-1.915 1.337-4.142 2.401-6.684 3.192v.1c.99 0 2.129.025 3.416.075 1.287.049 2.508.247 3.663.593 1.154.347 2.145.883 2.97 1.609.825.726 1.287 1.748 1.386 3.068a182.965 182.965 0 0 1 4.184-4.355 235.278 235.278 0 0 1 4.604-4.529 265.057 265.057 0 0 1 4.653-4.356 171.69 171.69 0 0 1 4.331-3.836l.297.347a1011.817 1011.817 0 0 0-4.381 3.959 311.271 311.271 0 0 0-4.925 4.579 215.945 215.945 0 0 0-4.777 4.678 117.467 117.467 0 0 0-3.985 4.208 7.77 7.77 0 0 1-.594 1.708 5.174 5.174 0 0 1-2.302 2.376 3.25 3.25 0 0 1-1.51.371c-.165 0-.388-.017-.668-.05-.281-.033-.421-.182-.421-.446 0-.197.066-.354.198-.47.132-.116.288-.272.471-.47.181-.199.338-.479.47-.841.132-.364.198-.892.198-1.585 0-1.32-.272-2.385-.817-3.192a5.79 5.79 0 0 0-2.029-1.881 7.54 7.54 0 0 0-2.623-.866 19.11 19.11 0 0 0-2.648-.198c-.43 0-1.007.099-1.732.297l-2.352.643c-.841.231-1.699.447-2.574.645-.873.198-1.69.297-2.45.297-.594 0-1.154-.042-1.683-.124-.527-.082-.792-.37-.792-.866 0-.329.116-.594.347-.792.231-.197.718-.354 1.46-.47s1.799-.198 3.168-.248c1.369-.049 3.209-.074 5.52-.074 1.551 0 3.02-.552 4.405-1.658 1.386-1.104 2.747-2.599 4.084-4.479 1.336-1.881 2.673-4.051 4.009-6.51 1.337-2.457 2.73-5.04 4.184-7.746l.346-.545c.892-1.782 2.038-3.481 3.44-5.099a27.297 27.297 0 0 1 4.728-4.307 23.746 23.746 0 0 1 5.644-2.994 17.753 17.753 0 0 1 6.188-1.114"/><path d="M83.648 80.554l5.147-.297c-.299.594-.726 1.312-1.287 2.153-.562.841-1.173 1.749-1.832 2.722-.66.974-1.328 1.98-2.005 3.02a65.674 65.674 0 0 0-1.856 3.02 23.376 23.376 0 0 0-1.361 2.724c-.347.841-.519 1.559-.519 2.153 0 .825.411 1.237 1.238 1.237.79 0 1.862-.462 3.216-1.387 1.354-.923 2.771-2.146 4.258-3.663a46.659 46.659 0 0 0 1.906-2.029c.643-.726 1.261-1.443 1.856-2.153.593-.709 1.139-1.369 1.633-1.98.494-.609.892-1.113 1.188-1.509l.346.197a132.5 132.5 0 0 1-2.969 3.837c-1.124 1.403-2.475 2.896-4.061 4.479-1.583 1.585-3.144 2.881-4.677 3.887-1.534 1.006-3.062 1.511-4.579 1.511-1.057 0-1.873-.273-2.449-.817a2.652 2.652 0 0 1-.867-2.006c0-.263.017-.51.049-.741.032-.23.084-.412.148-.546h-.099a15.336 15.336 0 0 1-3.465 2.922 7.8 7.8 0 0 1-4.157 1.188c-.793 0-1.47-.149-2.03-.447a3.684 3.684 0 0 1-1.36-1.212 5.459 5.459 0 0 1-.768-1.732 8.047 8.047 0 0 1-.247-2.006c0-1.615.445-3.233 1.336-4.851a18.384 18.384 0 0 1 3.366-4.38 17.486 17.486 0 0 1 4.53-3.168c1.665-.809 3.257-1.213 4.775-1.213 1.154 0 2.062.247 2.723.742.659.495 1.205 1.271 1.635 2.326l1.238-1.981zM68.797 93.226c0 .957.157 1.791.471 2.5.313.71.981 1.063 2.005 1.063.692-.032 1.419-.321 2.178-.866.758-.543 1.493-1.229 2.204-2.054a23.933 23.933 0 0 0 2.028-2.748 26.377 26.377 0 0 0 1.684-3.043 22.662 22.662 0 0 0 1.137-2.896c.281-.907.421-1.674.421-2.302 0-.891-.165-1.584-.494-2.079-.33-.494-.973-.742-1.931-.742-.759 0-1.525.231-2.302.693-.775.462-1.519 1.072-2.228 1.831-.709.76-1.386 1.608-2.029 2.549s-1.196 1.906-1.658 2.896-.825 1.938-1.089 2.846c-.265.909-.397 1.691-.397 2.352z"/><path d="M106.615 63.229l5.445-.297a6470.605 6470.605 0 0 0-8.316 13.241 416.988 416.988 0 0 1-8.514 13.044l.099.099c.759-.892 1.634-1.897 2.624-3.02s2.054-2.194 3.192-3.218a19.896 19.896 0 0 1 3.564-2.574c1.237-.693 2.499-1.039 3.786-1.039 1.022 0 1.807.28 2.352.842.545.561.816 1.271.816 2.128 0 .858-.19 1.576-.569 2.153s-.933 1.081-1.657 1.51c-.727.43-1.609.816-2.649 1.163a77.577 77.577 0 0 1-3.489 1.064v.099c.561.099 1.048.438 1.46 1.015.413.578.619 1.164.619 1.758 0 .958-.166 1.874-.495 2.747-.33.876-.494 1.692-.494 2.45 0 .595.263.892.791.892.857 0 1.881-.438 3.069-1.312s2.417-1.946 3.688-3.217 2.508-2.624 3.713-4.06a112.835 112.835 0 0 0 3.094-3.836l.444.247a628.098 628.098 0 0 1-3.415 4.257 49.925 49.925 0 0 1-3.959 4.356c-1.387 1.354-2.822 2.484-4.307 3.391-1.485.906-2.971 1.362-4.456 1.362-1.056 0-1.84-.29-2.351-.867-.512-.577-.768-1.312-.768-2.203 0-.792.239-1.74.718-2.847a121.907 121.907 0 0 1 1.855-4.034c-.561.166-1.154.34-1.78.521-.628.182-1.139.272-1.535.272-.595 0-.891-.248-.891-.742 0-.264.115-.479.346-.645.231-.164.677-.247 1.336-.247.462 0 .991.05 1.585.148s1.007.148 1.237.148c.231 0 .594-.099 1.09-.297a5.904 5.904 0 0 0 1.484-.891 5.8 5.8 0 0 0 1.287-1.461c.362-.576.544-1.262.544-2.054 0-.594-.141-1.081-.421-1.46a1.317 1.317 0 0 0-1.113-.569c-.726 0-1.543.306-2.45.915-.908.611-1.864 1.403-2.871 2.377a39.656 39.656 0 0 0-3.02 3.291 77.15 77.15 0 0 0-5.173 7.054c-.692 1.073-1.221 1.955-1.584 2.648l-4.802.148 20.841-34.45z"/><path d="M139.632 84.712a67.957 67.957 0 0 1-3.292 4.108c-1.172 1.354-2.566 2.771-4.183 4.256-2.277 2.048-4.464 3.458-6.56 4.232-2.096.776-4.066 1.165-5.915 1.165-1.881 0-3.366-.563-4.454-1.685-1.09-1.121-1.634-2.574-1.634-4.354 0-1.585.478-3.152 1.435-4.703s2.161-2.938 3.614-4.158a19.62 19.62 0 0 1 4.776-2.97c1.733-.759 3.373-1.139 4.926-1.139 1.418 0 2.524.272 3.316.816.791.545 1.188 1.312 1.188 2.302 0 .792-.271 1.519-.816 2.178-.544.661-1.246 1.255-2.104 1.782-.858.528-1.822.99-2.895 1.386a42.458 42.458 0 0 1-3.193 1.04 48.345 48.345 0 0 1-2.97.742c-.925.198-1.684.363-2.277.495-.165.661-.247 1.255-.247 1.782 0 1.419.396 2.574 1.188 3.465.791.892 1.896 1.336 3.315 1.336 1.386 0 2.913-.411 4.579-1.237 1.666-.824 3.342-2.028 5.023-3.614a62.888 62.888 0 0 0 3.713-3.835 70.2 70.2 0 0 0 3.118-3.737l.349.347zm-10.741-3.366c0-.462-.125-.792-.372-.99s-.569-.297-.966-.297c-.825 0-1.716.347-2.673 1.039-.957.693-1.855 1.543-2.697 2.55s-1.584 2.062-2.228 3.168-1.064 2.071-1.263 2.896c1.353-.264 2.641-.7 3.861-1.312a17.047 17.047 0 0 0 3.243-2.079c.939-.775 1.69-1.601 2.251-2.475s.844-1.708.844-2.5z"/><path d="M141.858 97.532a14.986 14.986 0 0 0 4.678-1.856 24.755 24.755 0 0 0 4.034-3.068 37.13 37.13 0 0 0 3.539-3.812 184.573 184.573 0 0 0 3.242-4.133l.396.297c-1.32 1.716-2.641 3.391-3.961 5.024s-2.764 3.078-4.331 4.331a20.725 20.725 0 0 1-5.147 3.021c-1.865.758-4.002 1.139-6.41 1.139-.859 0-1.708-.093-2.549-.273a7.305 7.305 0 0 1-2.277-.892c-.676-.412-1.221-.956-1.634-1.633s-.619-1.51-.619-2.5c0-.526.074-1.056.224-1.584.148-.527.371-1.006.668-1.435s.668-.784 1.113-1.065c.445-.279.966-.42 1.56-.42.759 0 1.344.215 1.758.644.412.429.618.924.618 1.484 0 .693-.198 1.222-.594 1.585a1.986 1.986 0 0 1-1.386.544c-.43 0-.793-.082-1.089-.247a5.616 5.616 0 0 0-.422.964 3.403 3.403 0 0 0-.173 1.065c0 .925.354 1.683 1.064 2.277.709.594 1.542.89 2.5.89a5.87 5.87 0 0 0 1.807-.296 5.156 5.156 0 0 0 1.633-.866c.479-.38.867-.833 1.164-1.362a3.465 3.465 0 0 0 .445-1.731c0-.858-.206-1.642-.619-2.353a21.389 21.389 0 0 0-1.36-2.053c-.495-.66-.95-1.329-1.362-2.006a4.072 4.072 0 0 1-.619-2.153c0-.923.215-1.731.644-2.425s.99-1.278 1.684-1.757a7.487 7.487 0 0 1 2.327-1.065 10.118 10.118 0 0 1 2.623-.346c1.584 0 2.912.339 3.985 1.015 1.072.677 1.607 1.643 1.607 2.896 0 .957-.313 1.741-.939 2.352-.627.611-1.42.915-2.376.915-.298 0-.569-.024-.816-.074a3.428 3.428 0 0 1-.619-.173c.362-.66.619-1.312.768-1.955a8.54 8.54 0 0 0 .222-1.906c0-.659-.189-1.237-.569-1.732-.379-.494-.948-.742-1.708-.742-.924 0-1.633.289-2.128.866-.495.578-.742 1.296-.742 2.153 0 .925.205 1.741.619 2.45.412.71.865 1.395 1.36 2.054.495.661.949 1.354 1.361 2.079.412.727.619 1.585.619 2.574 0 .628-.107 1.237-.321 1.832a5.64 5.64 0 0 1-.867 1.583 5.69 5.69 0 0 1-1.213 1.164 3.66 3.66 0 0 1-1.41.619v.096z"/><path d="M164.133 80.257c-1.551 2.442-2.887 4.529-4.009 6.262s-2.037 3.21-2.746 4.43c-.711 1.222-1.238 2.221-1.585 2.995-.347.775-.52 1.41-.52 1.906 0 .396.074.717.222.965a.732.732 0 0 0 .67.371c.659 0 1.591-.379 2.796-1.138 1.204-.76 2.715-2.062 4.529-3.911.726-.76 1.436-1.51 2.129-2.252.692-.743 1.344-1.461 1.955-2.153.61-.693 1.154-1.32 1.634-1.881a62.64 62.64 0 0 1 1.163-1.337l.445.297a38.079 38.079 0 0 1-1.46 1.807c-.578.677-1.197 1.387-1.856 2.129a85.406 85.406 0 0 1-2.029 2.202c-.694.727-1.371 1.419-2.03 2.079-1.914 1.914-3.556 3.25-4.926 4.01-1.369.76-2.632 1.139-3.786 1.139-1.089 0-1.931-.298-2.524-.891-.594-.595-.891-1.369-.891-2.326 0-.66.124-1.346.371-2.055.248-.71.668-1.592 1.262-2.648s1.387-2.368 2.376-3.936c.99-1.566 2.229-3.506 3.713-5.816l5.097-.248z"/><path d="M195.021 63.525l5.544-.297a261.704 261.704 0 0 1-3.737 5.915 2208.992 2208.992 0 0 1-4.307 6.608c-1.47 2.245-2.913 4.464-4.331 6.658a184.704 184.704 0 0 0-3.788 6.088c-1.105 1.865-1.997 3.49-2.672 4.876-.677 1.387-1.015 2.393-1.015 3.02 0 .363.082.652.247.866.164.215.429.322.792.322.692 0 1.642-.346 2.847-1.04 1.204-.692 2.549-1.814 4.033-3.366a70.974 70.974 0 0 0 3.516-3.886 115.445 115.445 0 0 0 3.663-4.628l.495.248a100.726 100.726 0 0 1-2.971 3.81 99.456 99.456 0 0 1-1.856 2.203 64.39 64.39 0 0 1-1.905 2.104c-1.585 1.651-3.103 2.971-4.555 3.961-1.452.989-3.003 1.485-4.652 1.485-.76 0-1.378-.125-1.856-.372-.479-.247-.858-.569-1.139-.966s-.454-.823-.52-1.286a3.601 3.601 0 0 1 .049-1.337l-.099-.1a16.203 16.203 0 0 1-3.365 2.674c-1.222.725-2.623 1.089-4.208 1.089-.792 0-1.46-.141-2.005-.421a3.72 3.72 0 0 1-1.336-1.138 4.604 4.604 0 0 1-.743-1.635 8.048 8.048 0 0 1-.223-1.906c0-1.648.429-3.291 1.287-4.925a16.766 16.766 0 0 1 3.316-4.38 17.506 17.506 0 0 1 4.505-3.119c1.649-.792 3.283-1.188 4.9-1.188 2.21 0 3.695 1.057 4.455 3.168l11.634-19.105zm-22.918 32.967c1.056 0 2.153-.502 3.292-1.51 1.139-1.006 2.177-2.227 3.118-3.663a23.499 23.499 0 0 0 2.302-4.479c.595-1.551.891-2.887.891-4.009 0-.957-.247-1.658-.742-2.104-.495-.445-1.122-.668-1.881-.668-1.023 0-2.087.471-3.192 1.411-1.106.94-2.122 2.087-3.045 3.44a21.028 21.028 0 0 0-2.277 4.355c-.594 1.551-.89 2.938-.89 4.158 0 .791.18 1.503.544 2.128.361.628.988.941 1.88.941z"/><path d="M216.603 84.712a67.57 67.57 0 0 1-3.292 4.108c-1.172 1.354-2.565 2.771-4.183 4.256-2.277 2.048-4.463 3.458-6.56 4.232-2.096.776-4.066 1.165-5.914 1.165-1.881 0-3.367-.563-4.455-1.685-1.089-1.121-1.634-2.574-1.634-4.354 0-1.585.479-3.152 1.436-4.703s2.161-2.938 3.613-4.158 3.044-2.211 4.777-2.97c1.732-.759 3.373-1.139 4.925-1.139 1.418 0 2.524.272 3.316.816.792.545 1.188 1.312 1.188 2.302 0 .792-.272 1.519-.816 2.178-.545.661-1.246 1.255-2.104 1.782a16.24 16.24 0 0 1-2.896 1.386c-1.073.396-2.138.743-3.193 1.04s-2.047.545-2.97.742c-.925.198-1.683.363-2.277.495-.165.661-.247 1.255-.247 1.782 0 1.419.396 2.574 1.188 3.465.792.892 1.897 1.336 3.316 1.336 1.386 0 2.912-.411 4.578-1.237 1.666-.824 3.342-2.028 5.024-3.614a62.873 62.873 0 0 0 3.712-3.835 70.251 70.251 0 0 0 3.119-3.737l.349.347zm-10.742-3.366c0-.462-.125-.792-.372-.99s-.569-.297-.966-.297c-.824 0-1.715.347-2.672 1.039a14.964 14.964 0 0 0-2.697 2.55c-.843 1.007-1.585 2.062-2.229 3.168s-1.064 2.071-1.262 2.896c1.353-.264 2.64-.7 3.86-1.312a17.015 17.015 0 0 0 3.243-2.079c.939-.775 1.69-1.601 2.252-2.475.562-.874.843-1.708.843-2.5zm9.995-6.306H50.124l1.1-1.56 164.632-.658z"/></g></svg>