<svg xmlns="http://www.w3.org/2000/svg" width="240" height="80" viewBox="0 50 240 80"><path fill="#FFF" d="M44.239 103.189a7.054 7.054 0 0 0 5.318-2.418l1.121-1.188s.901 1.141 1.852 1.904c1.378 1.107 2.897 1.702 4.596 1.702a7.068 7.068 0 0 0 7.06-7.06 7.066 7.066 0 0 0-7.06-7.059 7.048 7.048 0 0 0-5.352 2.457l-1.087 1.149-1.208-1.278a6.853 6.853 0 0 0-.219-.231l-.45-.417a7.038 7.038 0 0 0-4.571-1.68 7.066 7.066 0 0 0-7.059 7.059c0 3.893 3.167 7.06 7.059 7.06zm-.043-9.604c.652 0 1.27.243 1.742.689l1.755 1.857-1.722 1.821a2.524 2.524 0 0 1-1.775.722 2.549 2.549 0 0 1-2.546-2.544 2.549 2.549 0 0 1 2.546-2.545zm11.233.688a2.527 2.527 0 0 1 1.74-.688 2.549 2.549 0 0 1 2.547 2.546 2.55 2.55 0 0 1-2.547 2.544 2.524 2.524 0 0 1-1.775-.722l-1.72-1.82 1.755-1.86zm17.942-20.648h7.108v23.018h13.286v6.601H73.371V73.625zm30.426 0h7.108v29.619h-7.108V73.625zm40.919 22.384c0-7.024.085-10.494.085-10.536h-.085c-.042.042-1.48 2.708-2.92 5.247l-2.877 5.204h-3.978l-2.877-5.119c-1.481-2.624-2.877-5.29-2.92-5.332h-.127c0 .042.085 3.512.085 10.536v7.235h-7.108V73.625h7.531l7.447 13.244h.127l7.489-13.244h7.235v29.619h-7.108v-7.235zm18.2-22.384h7.109v29.619h-7.109V73.625zm33.303 6.601v23.018h-7.109V80.226h-9.055v-6.601h25.219v6.601h-9.055zM40.276 79.212h-.05c0 .017.034 1.46.034 2.988v4.028h-2.82v-11.75h2.854l5.001 6.882h.051c0-.017-.017-1.527-.017-2.803v-4.079h2.82v11.75h-2.87l-5.003-7.016zm17.996-4.968c3.592 0 6.193 2.518 6.193 6.11s-2.602 6.109-6.193 6.109-6.194-2.518-6.194-6.109 2.602-6.11 6.194-6.11zm0 9.55c1.947 0 3.357-1.343 3.357-3.441 0-2.115-1.41-3.458-3.357-3.458-1.947 0-3.357 1.343-3.357 3.458 0 2.099 1.41 3.441 3.357 3.441z"/></svg>