<svg xmlns="http://www.w3.org/2000/svg" width="240" height="80" viewBox="0 0 240 80"><path fill="#555" d="M102.626 52.507h5.34L97.762 26.533h-4.098L83.422 52.507h5.341l2.377-6.476h9.109l2.377 6.476zM91.981 42.483l3.731-10.499 3.621 10.499h-7.352zm20.65 6.018a12.998 12.998 0 0 0 3.877 3.055c1.5.78 3.151 1.171 4.956 1.171 1.024 0 2.062-.135 3.109-.403a13.197 13.197 0 0 0 3-1.171 10.889 10.889 0 0 0 2.543-1.884 7.6 7.6 0 0 0 1.7-2.578l-4.134-2.379a5.977 5.977 0 0 1-1.134 1.812 6.528 6.528 0 0 1-3.218 1.919 7.14 7.14 0 0 1-1.719.219 6.137 6.137 0 0 1-2.963-.73 7.546 7.546 0 0 1-2.322-1.937 8.897 8.897 0 0 1-1.5-2.8 10.393 10.393 0 0 1-.53-3.311c0-1.024.152-2.055.457-3.092.305-1.036.756-1.963 1.354-2.78s1.347-1.482 2.249-1.994c.901-.513 1.952-.769 3.146-.769.536 0 1.098.068 1.683.202a6.872 6.872 0 0 1 1.701.64 5.792 5.792 0 0 1 1.518 1.189c.463.5.842 1.115 1.135 1.848l3.877-2.671c-.804-1.682-2.056-3.049-3.75-4.097-1.693-1.048-3.701-1.574-6.016-1.574-1.976 0-3.732.378-5.268 1.134-1.537.756-2.835 1.744-3.896 2.963a12.995 12.995 0 0 0-2.432 4.152 13.681 13.681 0 0 0-.842 4.7c0 1.659.299 3.286.897 4.884a13.897 13.897 0 0 0 2.522 4.282zm30.234-21.968l-10.244 25.974h5.342l2.378-6.476h9.108l2.379 6.476h5.34l-10.207-25.974h-4.096zm-1.682 15.95l3.733-10.499 3.619 10.499h-7.352zm49.128-15.95l-7.353 20.193-3.293-8.304 4.427-11.816h-4.683l-2.927 8.597-2.926-8.597h-4.646l4.354 11.816-3.219 8.304-7.391-20.193h-5.449l10.537 25.974h4.242l4.499-10.901 4.499 10.901h4.244l10.572-25.974h-5.487zM83.598 52.508L73.026 26.534h-4.243l-4.5 10.901-4.499-10.901h-4.243L45.005 52.508h5.45l7.389-20.194 3.219 8.304-4.353 11.817h4.647l2.925-8.599 2.927 8.599h4.682l-4.427-11.817 3.293-8.304 7.352 20.194h5.489z"/></svg>