<svg xmlns="http://www.w3.org/2000/svg" width="240" height="80" viewBox="0 0 240 80"><path fill="#FFF" d="M88.677 68.363h61.024v-5.65H88.677v5.65zM53.675 32.122l-9.038-17.387h-6.369v30.557h5.939V25.064l7.875 15.062h3.228l7.876-15.062v20.228h5.939V14.735h-6.326l-9.124 17.387zm41.314 13.17h6.283L89.266 14.735h-4.82l-12.05 30.557h6.283l2.797-7.618h10.717l2.796 7.618zM82.466 33.5l4.39-12.352 4.26 12.352h-8.65zm24.294 7.079a15.28 15.28 0 0 0 4.562 3.594c1.765.918 3.708 1.377 5.831 1.377 1.205 0 2.425-.157 3.658-.474a15.548 15.548 0 0 0 3.529-1.377 12.816 12.816 0 0 0 2.991-2.217 8.948 8.948 0 0 0 2.001-3.033l-4.863-2.798c-.344.833-.789 1.543-1.334 2.13a7.664 7.664 0 0 1-3.786 2.259 8.38 8.38 0 0 1-2.022.258c-1.263 0-2.425-.286-3.486-.86a8.874 8.874 0 0 1-2.732-2.28c-.761-.947-1.35-2.045-1.765-3.293a12.234 12.234 0 0 1-.624-3.895c0-1.205.179-2.417.538-3.637.358-1.219.889-2.31 1.592-3.271.703-.961 1.585-1.743 2.646-2.346s2.296-.904 3.701-.904c.631 0 1.292.08 1.98.237a8.102 8.102 0 0 1 2.001.753c.646.345 1.24.811 1.786 1.398.545.589.989 1.312 1.334 2.174l4.562-3.142c-.946-1.979-2.418-3.587-4.411-4.82-1.994-1.233-4.354-1.851-7.079-1.851-2.324 0-4.39.445-6.197 1.334-1.808.89-3.336 2.052-4.584 3.486s-2.202 3.062-2.861 4.885a16.105 16.105 0 0 0-.99 5.53c0 1.951.352 3.866 1.055 5.745a16.307 16.307 0 0 0 2.967 5.038zm35.569-25.844l-12.052 30.557h6.285l2.797-7.618h10.716l2.798 7.618h6.283l-12.008-30.557h-4.819zM140.35 33.5l4.391-12.352L149 33.5h-8.65zm57.796-18.765l-8.649 23.757-3.874-9.77 5.208-13.901h-5.509l-3.443 10.114-3.441-10.114h-5.467l5.121 13.901-3.787 9.77-8.693-23.757H159.2l12.396 30.557h4.991l5.293-12.825 5.294 12.825h4.992l12.438-30.557h-6.458z"/></svg>