<svg xmlns="http://www.w3.org/2000/svg" width="240" height="80" viewBox="0 0 240 80"><path d="M50.54 55.771c1.229-1.229 1.229-2.515 1.872-4.328 1.872-6.842 4.972-13.744 7.486-21.172 1.229-3.158 1.813-6.901 2.457-10.646 2.515-1.228 4.387 1.287 6.258 2.515.643 6.2 1.228 12.517 1.872 18.717 2.515-3.159 3.743-6.902 5.556-10.002 2.573-3.744 6.258-6.844 8.13-11.873 0 .643.643.643 1.228.643 1.228-1.229 1.228.645 2.515.645 1.228 7.485-2.515 18.071-3.743 24.916v1.871l-.585.584c-1.287 3.803-1.287 6.258-1.93 9.358 0 .644.644.644.644 1.228-.644 0-.644.645-.644 1.287-.585 0-.585 1.229-1.228 1.229-1.229 0-1.229 0-2.457.643-.702 0-.702-.643-1.287-.643-1.229-5.558 1.287-14.33 2.515-20.53-3.158 4.387-4.386 10.586-8.714 13.686-4.972-1.228-4.972-8.713-6.843-14.271-.643.585-.643 2.457-1.287 3.685 0 .586-.643 1.287-1.228 1.873v3.1c-.644 2.515-1.872 5.613-2.457 8.13-.644 1.812-.644 3.101-2.515 4.328-3.1 0-4.971-1.872-5.615-4.973zm57.435 1.113c-3.041 1.229-5.556 3.101-8.013 3.685-3.626 1.229-6.726 2.457-9.182-.584-.585-6.142 2.457-7.955 2.457-12.926-1.229-1.229-3.042-1.229-3.042-3.627-1.228-4.914 3.042-5.557 5.556-7.369 1.17-4.271 1.17-8.599.585-10.996 1.228-2.457 3.042-4.271 5.439-4.973 6.199 1.287 12.341-3.041 19.651-1.812 0 .585.645 1.229.645 2.515 0 1.228-.645 1.228-.645 3.041-4.913 3.042-11.054 4.271-16.493 6.726-.644 1.229-.644 1.873-.644 3.043 4.27 0 9.826-4.328 14.68-1.813 0 .644-.584.644-.584 1.228 1.169 1.229.584 1.813 1.169 3.627-.585 1.228-2.398 2.455-3.626 1.228-4.913 3.101-9.768 4.972-15.324 7.37-.644 1.812-1.228 3.742-1.228 5.556 2.398 0 6.141-3.743 9.767-3.743h.644c1.813-.584 4.328-1.812 6.141-2.396 2.457-.645 4.854-.645 6.785.585-.645 1.228 0 1.228 0 1.812-1.287 0-.645 1.229-1.931 1.932 0 0 1.286.584 1.286 0 0 0 0 1.228 1.229 1.228-4.327 2.393-10.409 4.207-15.322 6.663zm49.363-20.238c.176.584.878.994 1.229 2.164-.584.117-.993.819-.993.819-2.341.644-5.731 1.58-7.779 3.334-.175 3.802 5.206 12.458 6.492 14.563-1.345-.234-.644.175-1.228.291.877 1.054.467 1.756.643 2.341-1.169.233-1.169.233-1.93-.117 0 0-.526.176-.41.702-.525.115-1.11.292-1.754.468-3.275-.937-5.967-10.879-7.078-14.973l-.116-.468c-2.104 1.11-4.912 2.455-6.435 3.566-2.688 1.287-1.694.234-2.222 2.866-.353.76-.995.937-1.229 2.164-2.047 1.871-1.987 4.271-4.736 5.614l.175.584c-3.274 1.463-6.198-.233-6.843-2.515.585-.176.468-.702.468-.702.234-3.802 4.388-6.023 6.142-9.064 2.397-4.152 6.435-5.322 5.85-10.061.585-.176.176.584.352 1.111.525-.175-.352-1.111.818-1.402.117.584-.409.76-.818 1.402 1.11-.292.937-.818.818-1.402-.176-.586 0 0 0 0 .877-1.463.936-3.334 1.812-4.854.644.468-.41.76-.116 1.93.409-.702.292-1.345.76-1.462 0 0 .468-.76 1.053-.936-.7 2.104-1.462 3.509-2.339 4.971.701.468.409-.702 1.695-.468-.469-1.755-.059-2.398 1.111-2.749 1.053-.877-.293-1.17.701-2.047l.176.584s.526-.176.41-.76c-.177-.469-.586.176-.703-.352-.644.117.117.525-.468.702-.351-1.111 1.229-2.164.937-3.333 1.111-.352.585-2.633.878-3.393-.06-.526-.468.176-.468.176l-.176-.586c.584-2.573 1.229-4.562 1.87-6.608 1.171-.351 1.054-.937 1.579-1.11.645-.117 1.463.877 1.872.116l.177.585c1.578-.994 1.812 1.989 2.279 1.872.878 5.265-1.286 10.82-.468 16.144 1.696-.469 3.626-.352 4.387-1.756.585-.175.117.526.117.526 1.229-.292 1.755-.468 2.573 0 .117.526-1.229.292-.469.702.117.525 1.111-.352 1.286.234.702.468-.526.117-1.169.291.176.648.819.472 1.287.296zm-20.002 1.112c-.117-.584.818-1.462.643-2.047l-.525.117c.174.643-.879 1.522-.118 1.93zm3.626-.351c.233-1.345 1.755-2.281.937-3.334-.469.702-1.113 2.749-.937 3.334zm2.632-1.404c-.818 1.521-1.755 2.397-1.871 4.211 1.053-.292 1.695-.468 2.105-1.169-.117-.527.115-1.815-.234-3.042zm-.468-4.151c.176.584-.994.877-.819 1.521l.176.526c-.176-.526.994-.877.526-.117.585-.177.702-2.048.117-1.93zm18.365-1.873c0-3.742.644-6.199 1.872-7.428 3.1-1.988 8.771-2.572 13.686-3.802 4.973-1.287 10.645-1.287 14.973 0 0 2.457 1.229 2.457 1.229 3.802-1.229.585-.585 1.229-.585 2.457-.645 0-1.229-1.229-1.229 0s1.229 0 1.229 1.229c-1.872 4.972-8.188-.584-11.873 2.515-2.456 9.358-6.199 14.915-8.656 22.985v3.802c-1.285 1.229-1.285 3.743-2.572 3.101-.645.644 0 .644-.645 1.871-.585-1.229-1.229-.644-1.229-2.455-.644-.645-.644 1.228-1.229.584 0-.584-.645-1.871-.645-2.457-.584-11.229 3.744-14.973 5.031-23.103-3.157.584-8.127 2.456-9.357-3.101z" fill="#555"/></svg>