<svg xmlns="http://www.w3.org/2000/svg" width="240" height="80" viewBox="0 50 240 80"><path d="M50.54 105.772c1.229-1.229 1.229-2.515 1.872-4.328 1.872-6.843 4.972-13.745 7.486-21.173 1.229-3.158 1.813-6.901 2.457-10.645 2.515-1.228 4.387 1.287 6.258 2.515.643 6.2 1.228 12.516 1.872 18.716 2.515-3.159 3.743-6.902 5.556-10.002 2.573-3.743 6.258-6.843 8.13-11.873 0 .643.643.643 1.228.643 1.228-1.228 1.228.644 2.515.644 1.228 7.486-2.515 18.072-3.743 24.916v1.871l-.585.585c-1.287 3.802-1.287 6.258-1.93 9.358 0 .643.644.643.644 1.228-.644 0-.644.644-.644 1.287-.585 0-.585 1.229-1.228 1.229-1.229 0-1.229 0-2.457.643-.702 0-.702-.643-1.287-.643-1.229-5.557 1.287-14.33 2.515-20.53-3.158 4.387-4.386 10.586-8.714 13.686-4.972-1.228-4.972-8.714-6.843-14.271-.643.585-.643 2.457-1.287 3.685 0 .585-.643 1.287-1.228 1.872v3.1c-.644 2.515-1.872 5.614-2.457 8.13-.644 1.812-.644 3.1-2.515 4.328-3.1.001-4.971-1.871-5.615-4.971zm57.435 1.112c-3.041 1.229-5.556 3.1-8.013 3.685-3.626 1.229-6.726 2.456-9.182-.585-.585-6.141 2.457-7.954 2.457-12.926-1.229-1.228-3.042-1.228-3.042-3.626-1.228-4.914 3.042-5.557 5.556-7.37 1.17-4.27 1.17-8.598.585-10.996 1.228-2.457 3.042-4.27 5.439-4.972 6.199 1.287 12.341-3.041 19.651-1.813 0 .585.644 1.229.644 2.515 0 1.228-.644 1.228-.644 3.041-4.913 3.042-11.054 4.27-16.493 6.726-.644 1.229-.644 1.872-.644 3.042 4.27 0 9.826-4.328 14.68-1.813 0 .643-.584.643-.584 1.228 1.169 1.228.584 1.813 1.169 3.626-.585 1.228-2.398 2.456-3.626 1.228-4.913 3.1-9.768 4.972-15.324 7.37-.644 1.812-1.228 3.743-1.228 5.556 2.398 0 6.141-3.743 9.767-3.743h.644c1.813-.585 4.328-1.812 6.141-2.397 2.457-.644 4.854-.644 6.785.585-.644 1.228 0 1.228 0 1.812-1.287 0-.644 1.229-1.931 1.931 0 0 1.287.585 1.287 0 0 0 0 1.228 1.229 1.228-4.328 2.398-10.41 4.212-15.323 6.668zm49.363-20.237c.176.584.878.994 1.229 2.164-.585.117-.994.819-.994.819-2.34.644-5.731 1.58-7.779 3.334-.175 3.802 5.206 12.458 6.492 14.563-1.345-.234-.644.175-1.228.292.877 1.053.468 1.755.643 2.34-1.169.233-1.169.233-1.93-.117 0 0-.526.176-.409.702-.526.116-1.111.292-1.755.468-3.275-.936-5.966-10.879-7.077-14.973l-.117-.468c-2.105 1.111-4.912 2.456-6.434 3.567-2.689 1.287-1.695.234-2.222 2.866-.352.76-.995.936-1.229 2.164-2.047 1.871-1.988 4.27-4.737 5.614l.175.585c-3.274 1.462-6.199-.234-6.843-2.515.585-.176.468-.702.468-.702.234-3.802 4.387-6.024 6.142-9.065 2.397-4.152 6.434-5.322 5.849-10.06.585-.176.176.584.351 1.111.526-.175-.351-1.111.819-1.403.117.584-.409.76-.819 1.403 1.111-.292.937-.819.819-1.403-.176-.585 0 0 0 0 .877-1.462.936-3.334 1.812-4.854.644.468-.409.76-.116 1.93.409-.702.292-1.345.76-1.462 0 0 .468-.76 1.053-.936-.701 2.105-1.462 3.509-2.339 4.971.701.468.409-.702 1.695-.468-.468-1.755-.058-2.398 1.111-2.749 1.053-.877-.292-1.17.702-2.047l.176.585s.526-.176.409-.761c-.176-.468-.585.176-.702-.351-.644.117.117.526-.468.702-.351-1.111 1.229-2.164.936-3.333 1.111-.351.585-2.632.878-3.393-.059-.526-.468.176-.468.176l-.176-.585c.585-2.574 1.229-4.562 1.871-6.609 1.17-.351 1.053-.936 1.579-1.111.644-.117 1.463.877 1.872.117l.176.585c1.579-.994 1.812 1.989 2.28 1.872.878 5.264-1.286 10.82-.468 16.143 1.696-.468 3.626-.351 4.387-1.755.585-.175.117.526.117.526 1.229-.292 1.755-.468 2.573 0 .117.526-1.229.292-.468.702.117.526 1.111-.351 1.286.234.702.468-.526.117-1.169.292.176.644.819.468 1.287.293zm-20.002 1.111c-.117-.584.818-1.462.643-2.047l-.526.117c.175.643-.878 1.521-.117 1.93zm3.626-.351c.233-1.345 1.755-2.281.936-3.334-.468.702-1.112 2.749-.936 3.334zm2.632-1.404c-.818 1.521-1.755 2.398-1.872 4.211 1.054-.292 1.696-.468 2.106-1.169-.117-.527.116-1.814-.234-3.042zm-.468-4.152c.176.585-.994.877-.819 1.521l.176.526c-.176-.526.994-.877.526-.117.585-.176.702-2.047.117-1.93zm18.365-1.872c0-3.743.644-6.199 1.872-7.428 3.1-1.988 8.772-2.573 13.686-3.802 4.972-1.287 10.645-1.287 14.973 0 0 2.457 1.229 2.457 1.229 3.802-1.229.585-.585 1.229-.585 2.457-.644 0-1.229-1.228-1.229 0s1.229 0 1.229 1.228c-1.872 4.972-8.188-.584-11.873 2.515-2.456 9.358-6.199 14.915-8.656 22.986v3.801c-1.286 1.229-1.286 3.743-2.573 3.101-.644.643 0 .643-.644 1.871-.585-1.229-1.228-.644-1.228-2.456-.644-.644-.644 1.228-1.229.585 0-.585-.644-1.872-.644-2.457-.585-11.229 3.743-14.973 5.03-23.103-3.158.585-8.129 2.457-9.358-3.1z" fill="#FFF"/></svg>