<svg xmlns="http://www.w3.org/2000/svg" width="240" height="80" viewBox="0 0 240 80"><path fill="#FFF" d="M54.73 58.121l-.365-.18a.332.332 0 0 1-.129-.149l-6.858-26.881a.345.345 0 0 1 .03-.235l.245-.29a.333.333 0 0 0 .031-.235l-.196-.77c-.022-.085-.076-.117-.161-.095l-4.23 1.079c-.086.021-.118.075-.139.172l-2.069 12.227c-.032.055-.075.064-.128.032l-7.675-9.74c-.064-.074-.161-.095-.203-.084l-4.231 1.079c-.085.022-.117.076-.096.161l.196.77c.022.085.087.16.141.191l.354.138a.243.243 0 0 1 .183.181l6.858 26.881c.022.085-.01.139-.084.203l-.233.333a.33.33 0 0 0-.042.192l.196.77c.021.086.075.117.16.096l4.744-1.21c.085-.022.117-.075.096-.161l-.196-.77c-.011-.043-.076-.117-.172-.139l-.365-.182a.32.32 0 0 1-.129-.146l-4.83-18.935c-.011-.042-.011-.042.043-.011l7.674 9.738c.054.031.097.021.128-.031l2.069-12.226c.032-.054.032-.054.043-.011l4.831 18.933a.33.33 0 0 1-.042.191l-.234.333c-.031.056-.053.15-.041.192l.196.771c.021.086.075.115.16.096l4.701-1.199c.086-.021.117-.076.096-.161l-.196-.771a.357.357 0 0 0-.131-.147zm13.658-26.818c-.131-.738-1.54-5.908-7.142-4.916l-2.042.362c-5.602.992-5.148 6.332-5.018 7.07l3.372 19.021c.131.738 1.54 5.908 7.142 4.915l2.041-.36c5.603-.994 5.148-6.332 5.018-7.069l-3.371-19.023zm-.802 20.746c-.212.575-.562 1.131-1.561 1.307l-2.041.362c-1.042.185-1.562-.217-1.957-.684a3.678 3.678 0 0 1-.445-.996L58.241 33.19a3.797 3.797 0 0 1 .083-1.045c.212-.575.554-1.173 1.597-1.358l2.041-.361c.998-.177 1.525.267 1.922.734.184.281.332.613.438.952l3.34 18.848c.026.399 0 .763-.076 1.089zm21.845-3.863l-.727-6.131a.242.242 0 0 0-.157-.205l-4.175-1.502-.415-.128c-.098-.077-.137-.028-.121.103l.119 1.008c.006.044.06.126.119.252l.423.57a.33.33 0 0 1 .113.209l.731 6.177a3.73 3.73 0 0 1-.138 1.082c-.245.562-.67 1.103-1.677 1.22l-2.015.239c-1.051.124-1.546-.308-1.915-.795a3.737 3.737 0 0 1-.388-1.021l-2.251-19.009c.003-.355.049-.716.144-1.038.245-.562.62-1.14 1.672-1.264l2.015-.238c1.007-.12 1.551.349 1.92.838.168.291.297.631.382.977l.374 3.153a.335.335 0 0 1-.062.229l-.28.255a.242.242 0 0 0-.105.234l.094.789c.01.087.059.126.146.115l.395-.047 3.941-.467c.088-.01.126-.059.116-.146l-.556-4.687c-.088-.744-1.109-5.997-6.847-5.317l-2.015.238c-5.432.644-5.43 5.528-5.432 6.639l2.303 19.446c.262 1.079 1.401 5.829 6.832 5.187l2.015-.237c5.124-.606 5.486-5.047 5.452-6.464l-.03-.264zm19.879 3.271l-.599-.405c-.094-.081-.144-.168-.146-.212L101.3 33.966c-.009-.132-.014-.221.027-.267l4.539-9.558c-.003-.044.039-.091.121-.184.295-.239.835-.803 1.132-.998a.333.333 0 0 0 .075-.225l-.049-.793c-.006-.088-.052-.129-.141-.124l-5.062.311c-.088.006-.13.053-.124.141l.049.792a.334.334 0 0 0 .102.215l.093.083c.047.041.097.126.058.217l-5.239 10.396c.009.132-.035.135-.044.003l-.607-9.905a.338.338 0 0 1 .075-.226l.294-.239c.086-.049.127-.096.119-.228l-.049-.793c-.005-.088-.052-.129-.14-.124l-4.887.3c-.088.006-.129.052-.124.141l.049.792a.341.341 0 0 0 .102.215l.321.201a.241.241 0 0 1 .146.212l1.695 27.644c.009.133-.033.18-.118.229l-.295.238a.341.341 0 0 0-.074.228l.049.792c.005.089.052.13.14.124l4.887-.3c.088-.006.129-.053.124-.142l-.049-.792a.242.242 0 0 0-.146-.212l-.322-.2a.352.352 0 0 1-.102-.216l-.58-9.464c-.003-.044.033-.18.03-.223l1.605-3.368c.041-.047.085-.05.091.038l5.41 12.571c.047.041.008.131-.033.178l-.289.328a.339.339 0 0 0-.075.227l.049.792c.006.088.052.13.141.124l5.062-.312c.088-.004.13-.052.124-.14l-.049-.793a.34.34 0 0 0-.101-.215zm19.251-.172l-.666-.523c-.09-.087-.135-.131-.135-.175l-6.017-28.839c0-.089-.045-.132-.134-.132l-3.88.032c-.089.001-.132.046-.132.134l-5.538 28.934a.456.456 0 0 1-.131.222l-.657.492c-.043.133-.087.176-.086.221l.006.793c.001.091.046.134.134.134l5.424-.045c.089-.003.133-.048.132-.136l-.007-.793a.34.34 0 0 0-.09-.221l-.533-.48a.327.327 0 0 1-.09-.219l.55-2.828c-.001-.088.043-.133.131-.133l6.086-.051c.09-.001.133.043.135.131l.598 2.817c.001.133-.043.177-.086.222l-.525.489a.341.341 0 0 0-.087.222l.007.795c.002.088.047.131.135.131l5.424-.045c.09-.002.133-.045.133-.135l-.008-.793c-.006-.045-.05-.088-.093-.221zm-6.368-7.004l-4.674.039c-.088 0-.133-.043-.133-.088l2.325-12.191c.043-.045.043-.045.088-.001l2.526 12.151c.001.045-.043.088-.132.09zm18.601-22.445l-2.026-.103c-5.461-.273-6.275 4.543-6.465 5.638l-.979 19.556c.075 1.108.405 5.981 5.866 6.257l2.026.103c5.153.259 6.253-4.06 6.456-5.46l.014-.266.311-6.166a.243.243 0 0 0-.121-.229l-3.863-2.181-.389-.196c-.084-.093-.13-.051-.139.082l-.051 1.013c-.002.044.037.135.075.269l.321.635a.338.338 0 0 1 .077.226l-.312 6.209a3.781 3.781 0 0 1-.318 1.045c-.334.515-.844.975-1.856.922l-2.024-.103c-1.059-.053-1.475-.56-1.756-1.104a3.654 3.654 0 0 1-.211-1.068l.959-19.115c.062-.351.168-.698.314-1 .335-.514.802-1.02 1.859-.967l2.024.102c1.015.051 1.472.604 1.752 1.147.117.315.188.672.216 1.026l-.16 3.172a.334.334 0 0 1-.101.216l-.317.204a.245.245 0 0 0-.145.214l-.04.793c-.004.088.037.135.125.139l.396.021 3.965.198c.089.005.135-.037.14-.125l.235-4.713c.039-.752-.09-6.102-5.858-6.391zm26.421 2.63l-4.867-.522c-.088-.009-.137.03-.146.118l-.085.789c-.016.132.023.18.107.233l.282.252a.33.33 0 0 1 .062.229l-1.133 10.568c-.011.088-.06.127-.146.118l-5.876-.631c-.087-.01-.127-.059-.117-.146l1.137-10.568a.34.34 0 0 1 .108-.209l.331-.187c.093-.034.143-.074.154-.205l.084-.79c.011-.087-.028-.136-.116-.146l-4.867-.522c-.088-.009-.137.03-.146.118l-.084.789c-.01.088.023.18.062.229l.283.252a.24.24 0 0 1 .105.233l-2.955 27.539c-.015.132-.062.171-.153.206l-.33.186a.321.321 0 0 0-.111.211l-.085.789c-.01.088.029.138.117.146l4.867.521c.088.01.137-.029.146-.117l.085-.789a.235.235 0 0 0-.107-.233l-.282-.252a.327.327 0 0 1-.063-.229l1.383-12.894c.012-.088.06-.127.146-.118l5.876.631c.088.01.127.059.118.146l-1.385 12.893a.343.343 0 0 1-.11.211l-.331.188a.237.237 0 0 0-.154.205l-.084.789c-.011.088.028.137.116.146l4.867.521c.088.009.138-.03.146-.118l.086-.789a.335.335 0 0 0-.062-.229l-.283-.252c-.082-.055-.121-.104-.107-.232l2.957-27.54a.243.243 0 0 1 .154-.205l.33-.186a.327.327 0 0 0 .11-.21l.084-.79c.009-.089-.03-.137-.118-.147zm9.922 2.902l.338-.171c.094-.029.146-.066.166-.197l.121-.784c.014-.088-.023-.138-.111-.151l-4.838-.747c-.088-.014-.138.023-.149.11l-.121.784a.325.325 0 0 0 .056.231l.271.266c.079.057.11.15.097.237l-4.229 27.373c-.021.131-.07.166-.164.197l-.34.17a.339.339 0 0 0-.119.205l-.121.784c-.014.087.021.138.109.15l4.838.747c.088.014.138-.022.149-.11l.121-.784a.24.24 0 0 0-.099-.238l-.271-.265a.347.347 0 0 1-.054-.231l4.229-27.369a.33.33 0 0 1 .121-.207zm16.858 31.928c-.034-.052-.06-.147-.05-.19l5.688-27.194a.337.337 0 0 1 .122-.155l.354-.195c.098-.025.147-.06.166-.146l.162-.777c.021-.087-.016-.139-.103-.156l-4.792-1.003c-.086-.018-.139.017-.156.103l-.162.777c-.01.043.018.138.051.19l.248.322c.076.062.104.156.095.199l-3.775 18.045c-.026.13-.061.076-.052.033l-3.913-21.141c-.024-.096-.104-.156-.146-.166l-4.272-.894c-.086-.019-.14.016-.155.103l-.164.776a.352.352 0 0 0 .051.191l.248.322c.078.061.104.156.095.199l-5.688 27.197c-.019.086-.07.119-.164.146l-.356.195a.327.327 0 0 0-.123.153l-.162.776c-.019.089.017.14.103.156l4.793 1.003c.086.02.137-.018.155-.104l.162-.775c.011-.044-.017-.141-.093-.2l-.248-.321c-.034-.054-.061-.146-.051-.189l3.773-18.045c.01-.043.02-.087.053-.034l3.914 21.14c-.02.088.017.139.146.166l4.272.896c.086.019.14-.017.155-.104l.163-.775c.01-.043-.016-.139-.094-.199l-.25-.325zm20.122-25.359l-1.991-.574c-5.467-1.573-7.41 3.42-7.617 4.141l-5.344 18.562c-.207.721-1.218 5.98 4.249 7.557l1.992.572c5.467 1.574 7.408-3.42 7.617-4.141l5.344-18.562c.207-.721 1.218-5.982-4.25-7.555zm.242 6.494l-5.297 18.393c-.15.369-.334.685-.547.943-.442.424-1 .769-1.977.485l-1.992-.571c-1.018-.293-1.307-.883-1.457-1.477a3.768 3.768 0 0 1 .039-1.091l5.295-18.393c.141-.327.322-.642.535-.901.441-.424 1.014-.811 2.029-.518l1.992.573c.976.281 1.252.911 1.401 1.506.047.336.034.699-.021 1.051z"/></svg>