<svg xmlns="http://www.w3.org/2000/svg" width="240" height="80" viewBox="0 50 240 80"><path d="M101.539 71.12v35.241h5.152v.412H84.845v-.412h5.152V72.047l-12.314 34.726h-.463c-.688 0-1.451-.575-2.292-1.726-.842-1.15-1.726-2.645-2.654-4.483a130.775 130.775 0 0 1-2.911-6.208 857.585 857.585 0 0 0-3.066-6.878 181.475 181.475 0 0 0-3.091-6.518c-1.03-2.061-2.027-3.778-2.988-5.152v28.079c0 .688.24 1.271.721 1.752a2.384 2.384 0 0 0 1.752.722h3.503v.412H53.88v-.412h3.452c.687 0 1.271-.24 1.752-.722.48-.48.721-1.064.721-1.752V75.242c-.309-.377-.61-.721-.902-1.03a6.857 6.857 0 0 0-.85-.773c-.859-.583-1.657-1.039-2.396-1.365-.739-.326-1.399-.558-1.984-.696a12.613 12.613 0 0 0-1.803-.257v-.412h9.996c.927.035 1.872.154 2.833.36.825.172 1.734.473 2.731.902.996.43 1.975 1.022 2.937 1.777.961.859 1.855 1.924 2.679 3.194a42.023 42.023 0 0 1 2.319 4.07 62.496 62.496 0 0 1 1.983 4.38c.601 1.477 1.15 2.859 1.649 4.147.498 1.288.953 2.421 1.365 3.4.412.979.773 1.657 1.082 2.035l8.604-24.267h16.642v.412h-5.151zm31.481 11.129c1.441.927 2.67 2.327 3.684 4.199 1.012 1.873 1.52 4.147 1.52 6.826 0 2.68-.508 4.964-1.52 6.853-1.014 1.89-2.242 3.28-3.684 4.174-1.1.721-2.035 1.271-2.809 1.648s-1.494.661-2.164.85-1.34.301-2.01.335-1.467.052-2.395.052h-.516c-.928 0-1.744-.018-2.447-.052a10.408 10.408 0 0 1-2.139-.335 13.407 13.407 0 0 1-2.292-.85c-.808-.378-1.761-.928-2.86-1.648-1.442-.894-2.671-2.284-3.684-4.174-1.014-1.889-1.52-4.173-1.52-6.853 0-2.679.506-4.954 1.52-6.826 1.013-1.872 2.241-3.272 3.684-4.199 1.099-.721 2.043-1.271 2.834-1.649.79-.377 1.52-.661 2.19-.85a9.18 9.18 0 0 1 2.009-.335 48.21 48.21 0 0 1 2.396-.051h.824c.928 0 1.725.018 2.395.051a9.14 9.14 0 0 1 2.01.335c.67.189 1.391.473 2.164.85.774.379 1.71.928 2.81 1.649zm-6.905 22.979c.309-.445.566-1.073.773-1.881.205-.807.367-1.733.488-2.782a39.8 39.8 0 0 0 .232-3.426c.033-1.236.051-2.524.051-3.864s-.025-2.627-.076-3.864a49.163 49.163 0 0 0-.258-3.426c-.121-1.047-.301-1.966-.541-2.756-.24-.79-.551-1.391-.928-1.803-.756-.825-1.332-1.305-1.727-1.443-.395-.137-.695-.206-.9-.206-.207 0-.516.069-.928.206-.412.138-.979.618-1.701 1.443-.378.412-.687 1.013-.927 1.803-.241.791-.43 1.709-.567 2.756a33.365 33.365 0 0 0-.258 3.426c-.034 1.237-.051 2.524-.051 3.864s.017 2.628.051 3.864.12 2.379.258 3.426c.137 1.049.326 1.967.567 2.757.24.791.549 1.409.927 1.854.48.516.971.911 1.469 1.186.498.275.885.412 1.16.412h.412c.929-.001 1.754-.516 2.474-1.546zm47.607 1.545h-4.534c-1.684 0-3.101-.197-4.251-.593-1.151-.395-2.087-.944-2.808-1.648a6.051 6.051 0 0 1-1.546-2.447 9.372 9.372 0 0 1-.464-2.988V84.773c0-.687-.077-1.373-.231-2.061a4.815 4.815 0 0 0-.799-1.804 1.544 1.544 0 0 0-.799-.489c-.327-.085-.644-.129-.953-.129s-.602.095-.876.284a4.136 4.136 0 0 0-.772.695c-.31.309-.567.739-.773 1.288-.206.55-.386 1.143-.541 1.777-.154.636-.267 1.263-.335 1.881s-.103 1.133-.103 1.545v18.6h3.864v.412h-18.239v-.412h3.864V80.549h-3.916v-.412c.962 0 2.13-.017 3.504-.052 1.373-.034 2.747-.094 4.122-.18a77.021 77.021 0 0 0 3.89-.335c1.219-.137 2.189-.309 2.911-.515v3.916c.274-.583.566-1.064.876-1.442.309-.378.721-.755 1.236-1.134.824-.687 1.691-1.185 2.602-1.494s1.881-.463 2.911-.463 2.13.086 3.298.257c1.167.172 2.197.55 3.091 1.134.894.584 1.58 1.391 2.062 2.421.171.378.317.765.438 1.159.12.396.181.799.181 1.211v15.147c0 2.026.231 3.632.695 4.817.464 1.185 1.263 1.777 2.396 1.777v.412zm14.013-4.173c.343.928.79 1.675 1.34 2.242.549.566 1.134.962 1.752 1.185a5.273 5.273 0 0 0 1.803.335v.412h-5.771c-1.683 0-3.108-.12-4.276-.36s-2.112-.652-2.833-1.237c-.722-.583-1.237-1.365-1.546-2.344-.31-.979-.464-2.224-.464-3.735V80.549h-3.864v-.412h1.648c1.442 0 2.842-.361 4.199-1.082a14.25 14.25 0 0 0 3.581-2.679c1.03-1.064 1.862-2.19 2.499-3.375.635-1.185.953-2.224.953-3.117h.464v10.253h4.533v.412h-4.533v18.496c.001 1.442.172 2.628.515 3.555zm-73.548-29.5h18.207v2.654h-18.207z" fill="#FFF"/></svg>