<svg xmlns="http://www.w3.org/2000/svg" width="240" height="80" viewBox="0 0 240 80"><path d="M101.539 22.62v35.241h5.152v.412H84.845v-.412h5.152V23.547L77.683 58.273h-.463c-.688 0-1.451-.575-2.292-1.727-.842-1.15-1.726-2.645-2.654-4.482a130.84 130.84 0 0 1-2.911-6.209 857.361 857.361 0 0 0-3.066-6.877 181.543 181.543 0 0 0-3.091-6.519c-1.03-2.062-2.027-3.778-2.988-5.151v28.078c0 .688.24 1.271.721 1.752a2.385 2.385 0 0 0 1.752.723h3.503v.412H53.88v-.412h3.452c.687 0 1.271-.24 1.752-.723.48-.479.721-1.063.721-1.752V26.742c-.309-.377-.61-.721-.902-1.03s-.576-.567-.85-.772c-.859-.584-1.657-1.039-2.396-1.365-.739-.326-1.399-.559-1.984-.696a12.472 12.472 0 0 0-1.803-.257v-.412h9.996c.927.035 1.872.154 2.833.359.825.173 1.734.474 2.731.902.996.43 1.975 1.022 2.937 1.777.961.859 1.855 1.924 2.679 3.193a42.142 42.142 0 0 1 2.319 4.07 62.31 62.31 0 0 1 1.983 4.381c.601 1.477 1.15 2.858 1.649 4.146.498 1.288.953 2.421 1.365 3.4.412.979.773 1.656 1.082 2.035l8.604-24.268h16.642v.412l-5.151.003zm31.481 11.129c1.441.927 2.67 2.327 3.685 4.199 1.012 1.872 1.521 4.147 1.521 6.825 0 2.681-.509 4.965-1.521 6.854-1.015 1.891-2.242 3.28-3.685 4.174-1.1.721-2.035 1.271-2.809 1.648s-1.494.66-2.164.85-1.34.301-2.01.335-1.467.052-2.395.052h-.517a51.19 51.19 0 0 1-2.446-.052 10.417 10.417 0 0 1-2.14-.335 13.407 13.407 0 0 1-2.292-.85c-.808-.379-1.761-.928-2.86-1.648-1.442-.894-2.671-2.283-3.684-4.174-1.014-1.889-1.52-4.173-1.52-6.854 0-2.678.506-4.953 1.52-6.825 1.013-1.872 2.241-3.272 3.684-4.199 1.099-.722 2.043-1.271 2.834-1.649.79-.377 1.52-.66 2.19-.85a9.18 9.18 0 0 1 2.009-.335c.67-.034 1.47-.051 2.396-.051h.824c.928 0 1.726.018 2.396.051.67.035 1.34.146 2.01.335s1.392.473 2.164.85c.774.379 1.71.927 2.81 1.649zm-6.905 22.98c.309-.445.566-1.074.773-1.881.204-.808.366-1.733.487-2.783.121-1.047.197-2.188.231-3.426.033-1.236.052-2.523.052-3.863s-.025-2.627-.076-3.864a50.501 50.501 0 0 0-.258-3.427c-.121-1.047-.302-1.965-.541-2.756-.24-.789-.552-1.391-.929-1.803-.756-.824-1.332-1.305-1.727-1.443-.395-.137-.695-.205-.9-.205-.207 0-.516.068-.928.205-.412.139-.979.619-1.701 1.443-.377.412-.687 1.014-.927 1.803-.241.791-.43 1.709-.567 2.756a33.386 33.386 0 0 0-.258 3.427c-.034 1.237-.051 2.524-.051 3.864s.017 2.627.051 3.863c.034 1.236.12 2.379.258 3.426.137 1.05.326 1.968.567 2.758.24.791.549 1.408.927 1.854.48.516.971.911 1.469 1.186.498.275.886.412 1.16.412h.412c.931-.002 1.756-.517 2.476-1.546zm47.608 1.544h-4.535c-1.684 0-3.101-.197-4.25-.594-1.151-.395-2.088-.943-2.809-1.647a6.069 6.069 0 0 1-1.546-2.447 9.37 9.37 0 0 1-.464-2.987V36.273c0-.688-.077-1.373-.23-2.062a4.832 4.832 0 0 0-.8-1.804 1.544 1.544 0 0 0-.799-.489c-.327-.085-.644-.129-.953-.129s-.603.095-.876.284a4.1 4.1 0 0 0-.771.695c-.311.309-.567.738-.773 1.287a15.625 15.625 0 0 0-.541 1.777 14.825 14.825 0 0 0-.335 1.881 14.892 14.892 0 0 0-.103 1.545v18.6h3.863v.412h-18.238v-.412h3.863V32.049h-3.916v-.412c.963 0 2.131-.017 3.504-.052 1.373-.034 2.747-.094 4.122-.181a75.817 75.817 0 0 0 3.89-.334c1.22-.137 2.189-.31 2.912-.516v3.916c.273-.582.565-1.063.875-1.441.31-.379.722-.756 1.236-1.135.824-.687 1.691-1.185 2.602-1.494a9.007 9.007 0 0 1 2.912-.463c1.029 0 2.129.086 3.297.258s2.197.55 3.092 1.134c.894.584 1.58 1.392 2.062 2.421.17.378.316.766.438 1.159.119.396.181.799.181 1.211v15.147c0 2.025.231 3.631.695 4.816s1.263 1.777 2.396 1.777v.413h-.001zm14.011-4.173c.344.928.791 1.676 1.341 2.242.549.566 1.134.963 1.752 1.186a5.271 5.271 0 0 0 1.803.334v.412h-5.771c-1.684 0-3.108-.119-4.276-.359s-2.112-.652-2.833-1.237c-.723-.583-1.236-1.364-1.546-2.344s-.464-2.224-.464-3.735v-18.55h-3.864v-.412h1.647c1.442 0 2.843-.361 4.199-1.082s2.551-1.613 3.582-2.679c1.029-1.063 1.861-2.19 2.498-3.375.635-1.185.953-2.224.953-3.117h.465v10.253h4.532v.412h-4.532v18.496c.001 1.441.173 2.628.514 3.555zm-73.547-29.5h18.208v2.654h-18.208z" fill="#555"/></svg>