<svg xmlns="http://www.w3.org/2000/svg" width="240" height="80" viewBox="0 50 240 80"><path fill="#333" d="M63.236 110.528l-16.32-.028V65.83l22.669 10.591 22.517-10.682.152 44.67-16.19.032-1.3-.032-4.673-4.637V82.339h-.577v23.433l-4.703 4.77-1.575-.014zm85.158-44.515v39.419l-5.188 5.009h-34.354l-5.159-5.009V66.013h17.328l4.673 4.702v34.743h.578V70.715l4.703-4.702h17.419zm9.867 44.951V93.836l4.703-4.673h29.991v-.577h-29.991l-4.703-4.703V66.464s-.002 14.739-.002-.13h34.582l5.302 5.21v34.492l-5.302 4.995h-34.582"/></svg>