<svg xmlns="http://www.w3.org/2000/svg" width="240" height="80" viewBox="0 0 240 80"><path d="M23.656 29.959c1.016-.786 2.257-1.178 3.724-1.178h.157c.817 0 1.591.052 2.325.157.733.105 1.435.22 2.105.346l1.32.251c.44.084.869.147 1.289.188.23.042.466.068.707.079.24.011.487.016.738.016h.079c.032 0 .058-.01.079-.031h.314c.021.021.042.031.063.031h.063c.293 0 .639-.036 1.037-.11.398-.073.806-.246 1.226-.519a4.19 4.19 0 0 1-1.005 1.666c-.482.503-1.005.87-1.571 1.1v12.318c.209-.146.403-.309.582-.487.178-.178.351-.371.519-.581a7.69 7.69 0 0 0 .361-.456c.115-.157.235-.318.361-.486v.062c0 2.116-.838 3.817-2.514 5.106-1.676 1.288-3.509 1.995-5.499 2.121h-.534c-2.095 0-3.918-.729-5.468-2.185-1.55-1.455-2.325-3.272-2.325-5.451v-.062c0-.021.01-.043.031-.063v-.125a9.484 9.484 0 0 1 .251-2.136 11.67 11.67 0 0 1 2.074-4.352c1.006-1.33 2.126-2.068 3.362-2.215a12.775 12.775 0 0 0-1.791 2.561 7.756 7.756 0 0 0-.88 2.781 5.912 5.912 0 0 0-.063.88c0 1.802.571 3.441 1.713 4.917 1.142 1.477 2.697 2.215 4.666 2.215h.11a.25.25 0 0 0 .11-.031h.219c.67 0 1.32-.109 1.948-.33a7.858 7.858 0 0 0 1.823-.927V32.3c-.126.063-.257.11-.393.142a5.318 5.318 0 0 1-.424.079c-.23.042-.456.068-.675.078-.22.011-.393.016-.519.016h-.157c-.021.021-.042.031-.063.031h-.062a15.92 15.92 0 0 1-2.168-.142 36.071 36.071 0 0 1-2.011-.33 47.935 47.935 0 0 0-1.901-.33 11.812 11.812 0 0 0-2.466-.126 3.77 3.77 0 0 0-.754.11 3.368 3.368 0 0 0-.99.361 3.053 3.053 0 0 0-.896.77c.165-1.213.756-2.214 1.773-3zm9.128 3.284v8.453c-.021.649-.289 1.262-.801 1.838-.514.576-1.074.989-1.681 1.241a3.116 3.116 0 0 1-.55.188 2.252 2.252 0 0 1-.518.062h-.063c-.021 0-.031-.01-.031-.031h-.126c.063-.083.11-.157.142-.22a.563.563 0 0 1 .11-.157c.021-.063.047-.126.079-.188.031-.063.057-.126.079-.188a.972.972 0 0 0 .047-.11.355.355 0 0 0 .016-.11v-8.044l-.942.472v-1.037l3.708-2.168h.531zm13.025-3.739a6.885 6.885 0 0 0-.267 1.037c-.042.231-.079.456-.11.676-.031.22-.047.424-.047.613v5.939l4.085-3.08c.167.272.34.514.519.723.178.209.351.377.519.503a1.55 1.55 0 0 0 1.038.408c.251 0 .502-.057.754-.173.251-.115.492-.267.723-.456a4.029 4.029 0 0 1-.125.976c-.084.315-.215.62-.393.914a1.945 1.945 0 0 1-.707.692v8.127c0 .043.005.09.016.143a3.094 3.094 0 0 0 .33.819 5 5 0 0 0 .456.677c.01.021.026.042.047.062a5.595 5.595 0 0 0-.707-.173 7.666 7.666 0 0 0-.864-.109h-.22c-.461 0-.875.062-1.241.188-.367.126-.55.335-.55.628l.031.063h-.031c0 .146.12.312.361.5s.497.416.77.688c.272.249.518.546.738.891.22.343.351.743.393 1.202-.021.541-.199.994-.534 1.359-.335.363-.712.599-1.131.702a2.518 2.518 0 0 1-.236.047 1.602 1.602 0 0 1-.236.016c-.23 0-.451-.058-.66-.173a1.076 1.076 0 0 1-.471-.519c.293-.104.534-.26.723-.468s.283-.447.283-.717a1.929 1.929 0 0 0-.126-.484 33.216 33.216 0 0 1-.188-.483.606.606 0 0 1-.11-.155 1.445 1.445 0 0 1-.079-.188 5.18 5.18 0 0 1-.377-.795 2.804 2.804 0 0 1-.157-.983l-.031-.062c0-.23.031-.419.094-.565.063-.147.136-.283.22-.409.021 0 .037-.005.047-.016.01-.01.016-.025.016-.047.063-.104.131-.225.204-.361.073-.136.121-.288.142-.455v-8.328a2.654 2.654 0 0 1-.377-.11 2.667 2.667 0 0 1-.44-.204 2.513 2.513 0 0 1-.377-.236 12.812 12.812 0 0 1-.345-.267 1.03 1.03 0 0 1-.142-.11l-.11-.11-1.54 1.225v6.725c.105.021.22.047.346.078.126.031.251.068.377.11.251.104.502.24.754.408s.471.366.66.597l-2.796 2.608c-.587-.607-1.152-1.053-1.697-1.336-.545-.282-1.048-.424-1.508-.424-.105 0-.209.006-.314.016a1.168 1.168 0 0 0-.314.079c-.105.021-.209.052-.314.094s-.209.095-.314.157a3.335 3.335 0 0 1 2.011-2.234V32.652c0-.251-.047-.545-.141-.881s-.226-.671-.393-1.007a3.98 3.98 0 0 0 1.493-.283c.472-.188.938-.43 1.398-.724.251-.147.503-.315.754-.504l.754-.567c-.111.21-.221.483-.336.818zm9.787 7.332c.042.01.083.015.125.015s.079.005.11.016a.335.335 0 0 0 .11.016.349.349 0 0 0 .157.031h.157c.628 0 1.293-.104 1.996-.313a12.615 12.615 0 0 0 2.152-.878c.23-.125.466-.261.707-.408.241-.146.476-.292.707-.439.083.292.188.59.314.893.126.303.262.601.409.893.23.481.481.956.754 1.426.272.471.545.915.817 1.332.042.083.089.162.141.235s.11.151.173.235a14.84 14.84 0 0 1-.628.329 9.415 9.415 0 0 0-.848.486l-3.865 2.35v2.537c.251.021.534.059.849.11.314.053.639.131.974.235.314.084.628.188.942.314.314.126.597.251.849.377l.723-.691.628.534-2.765 3.111a9.22 9.22 0 0 0-2.263-1.068 9.349 9.349 0 0 0-1.681-.456 9.694 9.694 0 0 0-1.618-.142c-.209 0-.424.006-.644.016-.22.012-.435.037-.644.079.188-.355.403-.679.644-.972.241-.293.55-.554.927-.783v-7.681c0-.167-.026-.355-.079-.564a4.973 4.973 0 0 0-.204-.627 6.805 6.805 0 0 0-.251-.564.603.603 0 0 1 .125.016zm3.488 5.049l2.105-1.32a7.814 7.814 0 0 1-.424-.676c-.137-.24-.267-.487-.393-.738a9.408 9.408 0 0 1-.487-.99 12.28 12.28 0 0 1-.33-.864l-.471.188v4.4zm19.891-12.24c.335.346.67.603 1.006.77.125.084.256.141.393.173.136.031.267.047.393.047.105 0 .209-.016.314-.047.104-.032.209-.068.314-.11l.157-.079.157-.079a3.001 3.001 0 0 1-.063.628 2.098 2.098 0 0 1-.298.644c-.137.199-.33.372-.582.519v13.701c-.105.963-.523 1.718-1.257 2.262a5.84 5.84 0 0 1-2.388 1.068 2.452 2.452 0 0 1-.786.126h-.456c-.157 0-.309.011-.456.031a9.018 9.018 0 0 0-2.561.472c-.786.271-1.231.732-1.335 1.383v.124a.736.736 0 0 0 .188.394c.104.114.24.173.408.173l.188.031c.251-.021.477-.074.676-.157.199-.084.393-.179.582-.283.146-.104.288-.209.424-.314.136-.104.288-.209.456-.313a7.49 7.49 0 0 1 1.21-.66c.471-.21 1.063-.325 1.775-.346h.204c.073 0 .142.011.205.031.628.063 1.209.299 1.744.707s.822.99.864 1.744c0 .649-.231 1.163-.691 1.54a3.103 3.103 0 0 1-1.508.691c-.084 0-.163.005-.235.016-.074.01-.142.016-.205.016a2.391 2.391 0 0 1-1.069-.251v-.659c.146.021.309.052.487.094s.361.062.55.062h.158c.272-.021.523-.104.754-.251s.356-.388.377-.723c-.021-.21-.089-.372-.204-.487a.93.93 0 0 0-.487-.235 2.928 2.928 0 0 0-1.335.377c-.409.23-.812.481-1.21.754l-.063.063c-.021.021-.042.031-.062.031-.44.314-.885.602-1.335.864a2.975 2.975 0 0 1-1.524.393c-.084 0-.162-.006-.235-.016a1.393 1.393 0 0 0-.205-.016 3.646 3.646 0 0 1-1.87-.88c-.555-.482-.833-1.079-.833-1.791.021-.691.283-1.272.786-1.744s1.068-.812 1.697-1.021a4.407 4.407 0 0 1-2.357-1.162c-.67-.629-1.005-1.394-1.005-2.294v-5.279a.646.646 0 0 0-.204-.409.757.757 0 0 0-.424-.188h-.125a.938.938 0 0 0-.691.283c-.188.189-.304.388-.346.598a.25.25 0 0 0-.031.109v.11a1.103 1.103 0 0 1-.566-.503 2.297 2.297 0 0 1-.251-.754 4.23 4.23 0 0 1-.047-.393 4.509 4.509 0 0 1-.016-.361c0-.628.225-1.178.675-1.65.45-.471 1.011-.707 1.681-.707h.346v-4.273a1.255 1.255 0 0 0-.377-.518 1.294 1.294 0 0 0-.534-.267.28.28 0 0 0-.126-.032h-.283c-.335.063-.644.236-.927.519s-.435.624-.456 1.021a1.522 1.522 0 0 1-.314-.55 2.292 2.292 0 0 1 .032-1.398c.188-.628.57-1.205 1.146-1.729.576-.523 1.273-.786 2.09-.786.984 0 1.744.351 2.278 1.053s.801 1.671.801 2.907v.283a.785.785 0 0 0 .125-.079.959.959 0 0 1 .125-.079.84.84 0 0 0 .126-.079.854.854 0 0 1 .125-.078c.126-.083.241-.167.346-.251a3.07 3.07 0 0 0 .251-.22v-3.394h.911v2.734a17.113 17.113 0 0 0 1.885-1.32 65.483 65.483 0 0 0 1.854-1.54c.378.46.734.863 1.069 1.209zm-5.986 3.661l-.33.22a6.563 6.563 0 0 1-.22.141c-.084.053-.168.1-.251.142v12.978c0 .042.005.09.016.142.01.053.026.109.047.173.062.209.173.408.33.597.157.188.33.325.519.408.021 0 .047.006.079.017s.058.016.079.016V33.117a7.833 7.833 0 0 1-.269.189zm2.278-1.65a9.813 9.813 0 0 0-.377.298c-.125.084-.246.173-.361.267s-.235.173-.361.236v3.708c.083.062.199.11.346.141.146.032.293.058.44.079.209.021.398.031.565.031h.44v.032h.094c.105 0 .225-.005.361-.016s.278-.026.424-.047c.126-.021.251-.052.377-.094.125-.042.24-.094.345-.157v-3.739a3.89 3.89 0 0 1-.408-.079 1.277 1.277 0 0 1-.346-.141 4.535 4.535 0 0 1-.582-.314 6.503 6.503 0 0 1-.644-.471 2.878 2.878 0 0 1-.313.266zm-1.1 9.788l.314-.078c.125-.031.251-.058.377-.079l.55-.062c.178-.021.288-.031.33-.031.104 0 .319.016.644.047s.676.09 1.053.173c.021 0 .042.006.063.016a.133.133 0 0 0 .062.016V37.14a6.9 6.9 0 0 1-.848.188 4.411 4.411 0 0 1-.628.062h-.094v-.031h-.188v.031h-.094c-.105 0-.251-.01-.44-.031a6.902 6.902 0 0 1-.597-.094l-.251-.063a30.48 30.48 0 0 0-.251-.062v4.304zm0 6.913c.083.021.193.036.33.047.136.011.288.016.456.016.146 0 .293-.011.44-.031.146-.021.303-.053.471-.094a2.44 2.44 0 0 0 1.068-.472c.335-.252.544-.618.628-1.1v-4.368a6.372 6.372 0 0 0-1.005-.204 7.005 7.005 0 0 0-.66-.048h-.314a5.154 5.154 0 0 0-1.414.252v6.002zM84.96 36.81c.262.031.529.047.801.047h.471a11.264 11.264 0 0 0 3.032-.613 8.86 8.86 0 0 0 2.75-1.555c.398.524.806.985 1.226 1.383.419.398.859.597 1.32.597.083 0 .167-.005.251-.016a.745.745 0 0 0 .251-.079c.083-.021.167-.052.251-.094l.251-.125c0 .084-.005.163-.016.235a2.616 2.616 0 0 1-.503 1.179c-.22.293-.456.492-.707.597v7.259c0 .125.01.267.032.424.021.157.052.319.094.487.042.188.099.361.173.519.073.156.162.298.267.424a5.199 5.199 0 0 0-.613-.095l-.676-.062h-.346c-.398 0-.807.026-1.226.078a8.595 8.595 0 0 0-1.288.268c-.608.188-1.2.43-1.775.723a6.764 6.764 0 0 0-1.618 1.163c-.671-.713-1.252-1.194-1.744-1.446-.492-.251-.948-.377-1.367-.377-.188 0-.377.021-.566.063-.188.042-.388.084-.597.125.042-.418.214-.785.519-1.1a3.252 3.252 0 0 1 1.021-.723v-8.327a13.415 13.415 0 0 0-.189-.503.25.25 0 0 0-.063-.158 22.438 22.438 0 0 1-.11-.22l-.079-.157c.255.021.511.047.773.079zm2.844 8.814c.146.021.298.052.456.094s.309.095.456.157c.272.105.534.23.786.377s.45.335.597.565c.062-.042.136-.078.22-.109a2.14 2.14 0 0 1 .251-.079l.298-.062c.094-.02.183-.031.267-.031v-7.919a2.761 2.761 0 0 1-1.131-.456 2.568 2.568 0 0 1-.817-.864 1.21 1.21 0 0 1-.283.126 2.335 2.335 0 0 1-.377.094 3.293 3.293 0 0 1-.722.125v7.982zm17.376-9.372c.293.319.607.479.943.479.104 0 .214-.017.33-.051.115-.034.236-.085.361-.152a.621.621 0 0 1 .157-.118c.063-.034.126-.073.188-.119v.508c0 .804-.246 1.444-.738 1.92-.492.477-1.042.714-1.649.714a1.979 1.979 0 0 1-.502-.063 2.92 2.92 0 0 1-.738-.299 3.11 3.11 0 0 1-.676-.519l-1.005 1.068v5.908a1.783 1.783 0 0 1 .786.189c.209.084.414.188.613.314s.372.262.519.408l.566-.503.534.565-3.143 3.08c-.628-.629-1.226-1.079-1.791-1.352-.565-.271-1.089-.408-1.571-.408a2.61 2.61 0 0 0-1.383.377c.021-.44.183-.855.487-1.244s.623-.688.958-.897c.063-.042.12-.073.173-.095.052-.021.099-.042.142-.062v-6.709a1.686 1.686 0 0 0-.487-.614 2.872 2.872 0 0 0-1.021-.535 3.354 3.354 0 0 0-.314-.079c.733-.42 1.314-.882 1.744-1.386a9.444 9.444 0 0 0 1.147-1.701c.502.251.927.603 1.272 1.053.346.451.623 1.137.833 2.058.146-.146.304-.309.472-.487.167-.178.324-.372.471-.582a6.572 6.572 0 0 0 .691-.817c.167-.209.324-.419.471-.628.146-.209.283-.409.409-.597.206.598.458 1.056.751 1.376zm4.148-4.973a.487.487 0 0 0 .125.016c.021 0 .042.005.063.016a.134.134 0 0 0 .063.016h.156c.503 0 1.089-.173 1.76-.519s1.424-.853 2.263-1.524a4.13 4.13 0 0 0-.158.377 14.784 14.784 0 0 0-.251.691l-.125.566a2.234 2.234 0 0 0-.063.471v6.599l3.928-2.828c.126.251.272.529.44.833.167.304.335.613.503.927.062.084.125.178.188.283l.188.314c.209.356.419.691.628 1.005.209.314.398.577.565.786l-3.048 2.012c.482.796.859 1.555 1.131 2.277.272.723.534 1.347.786 1.87.209.481.435.863.675 1.146s.55.424.927.424c.083 0 .178-.01.283-.031l.314-.062a.335.335 0 0 0 .11-.016.966.966 0 0 0 .109-.047l-2.985 2.891c-.796-.294-1.351-.691-1.665-1.194-.314-.503-.587-1.12-.817-1.854a45.832 45.832 0 0 0-.518-1.775c-.2-.639-.477-1.325-.833-2.059l-.911.66v2.451c.063.021.13.042.204.062.073.021.142.042.205.062.272.105.534.263.785.472.251.21.429.43.534.66l-2.451 2.419a4.599 4.599 0 0 0-1.068-1.037 4.427 4.427 0 0 0-1.257-.628 4.092 4.092 0 0 0-.55-.142 3.022 3.022 0 0 0-.518-.047h-.22c-.042 0-.079.005-.11.016s-.068.016-.11.016c.021-.355.151-.67.393-.942.241-.272.55-.514.927-.723V32.615c-.021-.251-.079-.472-.173-.66s-.205-.346-.33-.471a1.12 1.12 0 0 1-.11-.125.329.329 0 0 0-.11-.095.498.498 0 0 1 .128.015zm3.834 7.871v3.331l3.394-2.231a3.316 3.316 0 0 1-.346-.424l-.408-.582a86.819 86.819 0 0 1-.377-.628l-.188-.377a4.954 4.954 0 0 0-.188-.346l-1.887 1.257zm10.338-2.314c.041.01.083.015.125.015s.079.005.11.016a.327.327 0 0 0 .11.016.344.344 0 0 0 .156.031h.157c.629 0 1.294-.104 1.996-.313a12.648 12.648 0 0 0 2.152-.878c.23-.125.466-.261.707-.408.24-.146.477-.292.707-.439.083.292.188.59.314.893.125.303.262.601.408.893.23.481.481.956.754 1.426.272.471.545.915.817 1.332.042.083.089.162.142.235.052.073.109.151.173.235-.147.083-.356.193-.629.329a9.426 9.426 0 0 0-.849.486l-3.864 2.35v2.537c.251.021.534.059.848.11.314.053.639.131.975.235.314.084.628.188.942.314s.597.251.849.377l.723-.691.628.534-2.765 3.111a9.22 9.22 0 0 0-2.263-1.068 9.349 9.349 0 0 0-1.681-.456 9.715 9.715 0 0 0-1.619-.142c-.209 0-.424.006-.644.016a4.512 4.512 0 0 0-.645.079c.188-.355.403-.679.645-.972.24-.293.55-.554.927-.783v-7.681c0-.167-.026-.355-.079-.564a4.816 4.816 0 0 0-.204-.627 8.634 8.634 0 0 0-.251-.564.614.614 0 0 1 .128.016zm3.488 5.049l2.104-1.32a8.333 8.333 0 0 1-.424-.676c-.137-.24-.268-.487-.393-.738a9.408 9.408 0 0 1-.487-.99 12.28 12.28 0 0 1-.33-.864l-.471.188v4.4zm14.895-5.633c.293.319.606.479.942.479.104 0 .215-.017.33-.051.114-.034.235-.085.361-.152a.587.587 0 0 1 .157-.118c.062-.034.125-.073.188-.119v.508c0 .804-.247 1.444-.738 1.92-.493.477-1.043.714-1.65.714a2.028 2.028 0 0 1-.503-.063 2.934 2.934 0 0 1-.738-.299 3.135 3.135 0 0 1-.676-.519l-1.005 1.068v5.908a1.776 1.776 0 0 1 .786.189c.209.084.414.188.613.314.198.126.371.262.519.408l.565-.503.534.565-3.143 3.08c-.628-.629-1.226-1.079-1.791-1.352-.565-.271-1.09-.408-1.571-.408a2.625 2.625 0 0 0-1.383.377c.021-.44.184-.855.487-1.244s.623-.688.959-.897a.982.982 0 0 1 .173-.095c.052-.021.099-.042.141-.062v-6.709a1.683 1.683 0 0 0-.486-.614 2.89 2.89 0 0 0-1.021-.535 3.354 3.354 0 0 0-.314-.079c.733-.42 1.314-.882 1.744-1.386a9.389 9.389 0 0 0 1.146-1.701c.503.251.928.603 1.272 1.053.346.451.623 1.137.833 2.058.146-.146.304-.309.472-.487.167-.178.324-.372.471-.582a6.148 6.148 0 0 0 .691-.817c.168-.209.325-.419.472-.628s.283-.409.408-.597c.209.598.461 1.056.755 1.376zm5.482-6.293c1.016-.786 2.257-1.178 3.724-1.178h.157c.816 0 1.592.052 2.325.157.732.105 1.435.22 2.105.346l1.319.251c.44.084.869.147 1.288.188.23.042.466.068.707.079.241.011.487.016.738.016h.079c.031 0 .058-.01.078-.031h.313c.021.021.042.031.062.031h.063c.293 0 .639-.036 1.037-.11.397-.073.806-.246 1.226-.519a4.182 4.182 0 0 1-1.006 1.666c-.482.503-1.006.87-1.571 1.1v12.318a4.32 4.32 0 0 0 .581-.487c.178-.178.351-.371.519-.581.126-.146.246-.299.361-.456s.236-.318.361-.486v.062c0 2.116-.838 3.817-2.514 5.106-1.676 1.288-3.509 1.995-5.499 2.121h-.534c-2.095 0-3.917-.729-5.468-2.185-1.55-1.455-2.325-3.272-2.325-5.451v-.062c0-.021.011-.043.032-.063v-.125a9.341 9.341 0 0 1 .25-2.136 11.67 11.67 0 0 1 2.074-4.352c1.005-1.33 2.126-2.068 3.362-2.215a12.734 12.734 0 0 0-1.791 2.561 7.756 7.756 0 0 0-.88 2.781 6.5 6.5 0 0 0-.064.88c0 1.802.57 3.441 1.713 4.917 1.142 1.477 2.697 2.215 4.666 2.215h.11a.25.25 0 0 0 .109-.031h.221c.67 0 1.319-.109 1.948-.33a7.851 7.851 0 0 0 1.822-.927V32.3c-.126.063-.257.11-.393.142a5.344 5.344 0 0 1-.425.079c-.23.042-.455.068-.676.078-.22.011-.393.016-.519.016h-.156c-.021.021-.043.031-.063.031h-.062c-.754 0-1.477-.047-2.168-.142s-1.362-.204-2.012-.33a47.578 47.578 0 0 0-1.9-.33 11.822 11.822 0 0 0-2.466-.126 3.76 3.76 0 0 0-.754.11 3.348 3.348 0 0 0-.99.361 3.053 3.053 0 0 0-.896.77c.174-1.213.766-2.214 1.782-3zm9.128 3.284v8.453c-.021.649-.288 1.262-.801 1.838-.514.576-1.074.989-1.682 1.241-.188.084-.372.146-.55.188s-.351.062-.519.062h-.062c-.021 0-.031-.01-.031-.031h-.125a1.58 1.58 0 0 0 .142-.22.582.582 0 0 1 .109-.157c.021-.063.048-.126.079-.188.031-.063.058-.126.078-.188a1 1 0 0 0 .048-.11.355.355 0 0 0 .016-.11v-8.044l-.943.472v-1.037l3.708-2.168h.533zm11.627 3.284c.314.241.617.361.911.361.126 0 .251-.016.377-.047a4.87 4.87 0 0 0 .377-.11 1.667 1.667 0 0 1 .376-.189c0 .084-.005.173-.016.267s-.037.194-.078.298a2.498 2.498 0 0 1-.55 1.068 2.445 2.445 0 0 1-.99.723v6.945c.084.419.262.712.534.88s.565.262.88.282h.408c.126-.021.241-.041.346-.062.104-.021.199-.052.283-.095l-2.702 2.734a3.218 3.218 0 0 1-1.917-.771c-.565-.471-.87-1.062-.911-1.775v-8.075a1.377 1.377 0 0 1-.456-.283 2.575 2.575 0 0 1-.361-.409l-.472.346-.377-.502a2.096 2.096 0 0 0 .315-.251c.188-.146.377-.299.565-.456.188-.157.366-.309.534-.456.335-.293.66-.576.975-.848.314-.272.597-.523.849-.754.418.546.786.938 1.1 1.179zm-3.158-3.63c.157-.104.309-.199.456-.283.062-.042.12-.079.173-.11.052-.031.109-.067.172-.11.21-.146.425-.303.645-.471.22-.167.466-.356.738-.565.335.439.639.744.911.911.272.168.523.251.755.251.104 0 .209-.016.313-.047s.21-.068.314-.11a.25.25 0 0 0 .079-.016.192.192 0 0 0 .078-.047c.021 0 .047-.01.078-.031.032-.021.058-.032.079-.032v.22c0 .482-.194.901-.581 1.257a3.078 3.078 0 0 1-1.272.723 2.727 2.727 0 0 1-.566.063c-.021 0-.031-.01-.031-.031h-.062c-.084 0-.168-.005-.252-.016a2.128 2.128 0 0 0-.251-.016c-.294-.042-.571-.141-.833-.298s-.445-.403-.55-.739l-.565.346-.314-.534c.167-.105.329-.21.486-.315zm10.195 2.074c.607.188 1.116.577 1.524 1.163.408.587.676 1.215.801 1.885l3.928-3.079a4.262 4.262 0 0 1 1.431 1.178c.408.514.664 1.074.77 1.681l3.487-2.671c.44.524.822.917 1.147 1.178.324.262.645.414.958.456h.157c.188 0 .403-.042.645-.125.24-.083.487-.199.738-.346v.125a3.399 3.399 0 0 1-.126.88 3.836 3.836 0 0 1-.313.66 2.137 2.137 0 0 1-.503.565V46c.104.272.24.492.408.659.167.168.388.252.66.252.083 0 .173-.011.267-.031.095-.021.193-.042.299-.063.042-.021.089-.042.142-.062.052-.021.099-.042.141-.062l-3.048 3.205h-.125c-.524-.021-.975-.241-1.352-.66-.377-.42-.587-.87-.629-1.352v-8.704a2.62 2.62 0 0 1-.502-.189 3.422 3.422 0 0 1-.66-.393 3.4 3.4 0 0 1-.534-.487l-1.383 1.068v7.007c.356.084.696.225 1.021.424.324.199.623.436.896.707l-2.545 2.577c-.608-.608-1.185-1.043-1.729-1.305-.545-.262-1.026-.393-1.445-.393-.168 0-.336.021-.503.062a1.044 1.044 0 0 0-.408.188c.062-.46.256-.868.581-1.225.324-.356.676-.66 1.053-.912v-6.693c0-.377-.084-.723-.252-1.037-.168-.314-.429-.576-.785-.786l-2.199 1.728v6.662c.104.021.209.047.313.078s.221.068.346.11c.188.104.382.226.582.361a2.5 2.5 0 0 1 .486.424l-2.671 2.734c-.188-.294-.382-.54-.581-.739s-.403-.361-.612-.486a2.395 2.395 0 0 0-.817-.377 3.358 3.358 0 0 0-.754-.095c-.188 0-.372.016-.55.047a1.47 1.47 0 0 0-.487.173c.104-.439.304-.832.597-1.178s.649-.613 1.068-.802v-6.976c-.084-.44-.309-.765-.675-.974a3.915 3.915 0 0 0-1.21-.44l2.952-3.074zm19.106 1.865c.042.01.083.015.126.015a.33.33 0 0 1 .109.016.331.331 0 0 0 .11.016.349.349 0 0 0 .157.031h.157c.628 0 1.293-.104 1.995-.313a12.648 12.648 0 0 0 2.152-.878c.23-.125.466-.261.707-.408.24-.146.477-.292.707-.439.083.292.188.59.314.893.125.303.262.601.408.893.23.481.481.956.754 1.426.272.471.545.915.817 1.332.042.083.089.162.142.235.052.073.109.151.173.235-.147.083-.356.193-.629.329a9.426 9.426 0 0 0-.849.486l-3.864 2.35v2.537c.251.021.534.059.848.11.314.053.639.131.975.235.314.084.628.188.942.314s.597.251.849.377l.723-.691.628.534-2.765 3.111a9.22 9.22 0 0 0-2.263-1.068 9.349 9.349 0 0 0-1.681-.456 9.703 9.703 0 0 0-1.618-.142c-.21 0-.425.006-.645.016-.22.012-.435.037-.645.079.188-.355.403-.679.645-.972.24-.293.55-.554.927-.783v-7.681a2.36 2.36 0 0 0-.078-.564 5.14 5.14 0 0 0-.204-.627 6.805 6.805 0 0 0-.252-.564.606.606 0 0 1 .128.016zm3.488 5.049l2.104-1.32a8.333 8.333 0 0 1-.424-.676c-.137-.24-.268-.487-.393-.738a9.408 9.408 0 0 1-.487-.99 12.28 12.28 0 0 1-.33-.864l-.471.188v4.4zm8.358-5.044c.125.011.262.026.408.047.126.021.257.042.393.062.137.021.277.032.425.032.083.021.173.031.267.031h.268c.377 0 .77-.042 1.178-.125a4.51 4.51 0 0 0 1.21-.44c.272-.146.539-.33.802-.55.262-.22.528-.477.801-.77.397.398.754.681 1.068.848.314.168.607.251.88.251.252 0 .472-.047.66-.141s.355-.205.503-.33c.125-.104.262-.251.408-.44h.785a10.132 10.132 0 0 1-1.319 2.624 16.232 16.232 0 0 1-1.854 2.247 2.185 2.185 0 0 1-.267.283 6.618 6.618 0 0 0-.268.251h3.206c-.021.021-.037.053-.048.095s-.026.084-.047.125a1.77 1.77 0 0 0-.062.142.392.392 0 0 0-.032.142 1.809 1.809 0 0 0-.125.534v5.278c0 .063.01.147.031.252.021.104.052.22.094.346a.912.912 0 0 0 .095.235c.042.074.083.142.126.204a4.324 4.324 0 0 0-.519-.094 62.989 62.989 0 0 1-.519-.063 8.335 8.335 0 0 0-1.038-.063 6.084 6.084 0 0 0-1.225.126 6.056 6.056 0 0 0-1.445.519c-.482.24-.933.592-1.352 1.053-.23-.252-.445-.478-.644-.676a3.917 3.917 0 0 0-.581-.487 2.356 2.356 0 0 0-.613-.267 2.5 2.5 0 0 0-.645-.079 2.24 2.24 0 0 0-1.225.361c-.378.241-.682.623-.912 1.147l-.69.031c.188-.88.513-1.707.974-2.482s.953-1.466 1.477-2.074c.168-.209.341-.408.519-.597s.351-.356.519-.503h-2.168a2.51 2.51 0 0 0 .173-.268c.052-.094.089-.193.11-.298.021-.084.041-.162.062-.236a.733.733 0 0 0 .031-.204v-5.31a.972.972 0 0 0-.031-.22 18.405 18.405 0 0 1-.062-.251l-.063-.189a.412.412 0 0 0-.094-.157c.123.022.249.038.375.048zm3.205 6.913c-.356.346-.713.707-1.068 1.084a9.342 9.342 0 0 0-.534.581c-.168.199-.346.404-.534.613.021-.021.047-.036.078-.047s.068-.017.11-.017a4.036 4.036 0 0 1 1.32-.219c.272 0 .565.042.88.126s.639.23.975.439c.167.126.335.263.503.409.167.146.324.313.471.503a.414.414 0 0 1 .157-.095l.188-.062a4.204 4.204 0 0 1 .44-.064v-4.147l-.157-.126h-1.76c-.357.336-.713.676-1.069 1.022zm-.094-1.682h.534c.168-.167.341-.329.519-.486l.519-.456c.397-.397.791-.795 1.179-1.194.387-.397.77-.827 1.146-1.288.084-.083.162-.173.236-.267.072-.095.151-.194.235-.299a6.66 6.66 0 0 1-.707.299 2.361 2.361 0 0 1-.802.141c-.293 0-.612-.079-.958-.236-.346-.157-.729-.413-1.146-.77a7.938 7.938 0 0 0-.157.079.425.425 0 0 1-.188.047.79.79 0 0 1-.252.079 1.688 1.688 0 0 1-.157.016v4.335z" fill="#555"/></svg>