<svg xmlns="http://www.w3.org/2000/svg" width="240" height="80" viewBox="0 50 240 80"><path d="M93.163 98.849c0 .774-.5 6.281-6.372 6.281h-2.14c-5.872 0-6.372-5.507-6.372-6.281V78.913c0-.774.5-6.282 6.372-6.282h2.14c5.872 0 6.372 5.508 6.372 6.282v19.936zm-4.279-19.846a3.972 3.972 0 0 0-.273-1.047c-.318-.546-.773-1.092-1.82-1.092h-2.14c-1.092 0-1.547.546-1.866 1.092a3.934 3.934 0 0 0-.273 1.047v19.754c.045.409.137.773.273 1.093.319.546.774 1.047 1.866 1.047h2.14c1.047 0 1.502-.501 1.82-1.047.137-.319.228-.684.273-1.093V79.003zm7.465-5.917c0-.091.045-.137.136-.137h9.695c2.776.137 4.188 1.593 4.87 3.05.41.865.637 1.82.683 2.867v6.828c0 .455-.046.91-.182 1.411-.182.865-.501 1.821-1.184 2.731-.045.045-.045.137 0 .228.683.911 1.001 1.912 1.184 2.64.136.409.182.819.182 1.229v9.286c0 .091.045.136.136.182l.319.273a.349.349 0 0 1 .091.182v.819c0 .091-.045.137-.136.137h-4.506c-.091 0-.137-.046-.137-.137V93.933a3.906 3.906 0 0 0-.273-1.047c-.319-.546-.819-1.092-1.866-1.092h-4.097c-.091 0-.136.045-.136.137v11.288c0 .045.045.136.091.182l.319.273c.091.045.136.137.136.182v.819c0 .091-.045.137-.136.137h-5.053c-.091 0-.136-.046-.136-.137v-.819c0-.045.045-.137.091-.182l.319-.273c.091-.046.136-.091.136-.182v-28.63a.251.251 0 0 0-.136-.228l-.319-.228a.353.353 0 0 1-.091-.228v-.819zm9.012 14.747c1.047 0 1.547-.5 1.866-1.047.137-.318.228-.683.273-1.092v-7.283c-.045-.228-.091-.41-.228-.592-.228-.318-.546-.637-1.411-.637h-4.597c-.091 0-.136.045-.136.137v10.378c0 .091.045.136.136.136h4.097zm9.649-9.057c.136-1.138.728-6.145 6.373-6.145h2.094c5.963 0 6.372 5.508 6.372 6.282v4.87c0 .091-.046.137-.137.137h-4.506c-.091 0-.137-.046-.137-.137v-.819c0-.091.046-.182.137-.228l.318-.228a.345.345 0 0 0 .091-.228v-3.277a3.97 3.97 0 0 0-.272-1.047c-.319-.546-.819-1.092-1.866-1.092h-2.094c-1.093 0-1.548.546-1.867 1.092a3.934 3.934 0 0 0-.273 1.047v19.754c.045.409.137.773.273 1.093.319.546.774 1.047 1.867 1.047h2.094c1.047 0 1.547-.501 1.866-1.047.136-.319.228-.684.272-1.093V92.34a.347.347 0 0 0-.091-.228l-.364-.638c-.045-.136-.091-.228-.091-.272v-1.047c0-.137.046-.182.137-.091l.409.182 4.097 2.048a.252.252 0 0 1 .137.228v6.645c-.137 1.457-1.047 5.963-6.372 5.963h-2.094c-5.645 0-6.236-5.007-6.373-6.145V78.776zm28.857-5.69c0-.091.046-.137.137-.137h5.053c.091 0 .137.045.137.137v.819a.348.348 0 0 1-.092.228l-.318.228a.25.25 0 0 0-.137.228v28.584c0 .137.046.182.137.228l.318.228a.348.348 0 0 1 .092.228v.819c0 .091-.046.137-.137.137h-5.053c-.091 0-.137-.046-.137-.137v-.819c0-.091.046-.182.137-.228l.318-.228a.348.348 0 0 0 .092-.228V89.791c0-.091-.046-.137-.137-.137h-6.1c-.091 0-.137.045-.137.137v13.382c0 .091.046.182.092.228l.318.228a.252.252 0 0 1 .137.228v.819c0 .091-.046.137-.137.137h-5.053c-.091 0-.137-.046-.137-.137v-.819c0-.091.046-.182.092-.228l.318-.228c.091-.046.137-.091.137-.228V74.588a.252.252 0 0 0-.137-.228l-.318-.228a.348.348 0 0 1-.092-.228v-.819c0-.091.046-.137.137-.137h5.053c.091 0 .137.045.137.137v.819c0 .137-.046.182-.137.228l-.318.228a.344.344 0 0 0-.092.228v10.969c0 .091.046.137.137.137h6.1c.091 0 .137-.045.137-.137V74.588a.348.348 0 0 0-.092-.228l-.318-.228c-.091-.046-.137-.091-.137-.228v-.818zm25.263 31.589c0 .091-.046.137-.137.137h-5.599c-.091 0-.137-.046-.137-.137v-.819c0-.091.046-.182.092-.228l.546-.501c.045-.045.091-.091.091-.228l-.592-2.913c0-.091-.045-.136-.137-.136h-6.281c-.091 0-.137.045-.137.136l-.592 2.913c0 .092.046.183.092.228l.546.501a.347.347 0 0 1 .091.228v.819c0 .091-.045.137-.137.137h-5.599c-.091 0-.136-.046-.136-.137v-.819c0-.045.045-.091.091-.228l.683-.501a.483.483 0 0 0 .137-.228l5.963-29.813c0-.091.045-.137.136-.137h4.006c.091 0 .137.045.137.137l5.963 29.813c0 .046.045.092.137.183l.683.546c.045.137.091.183.091.228v.819zm-11.562-8.421c0 .046.046.092.137.092h4.825c.091 0 .136-.046.136-.092l-2.503-12.562c-.046-.045-.046-.045-.091 0l-2.504 12.562z" fill="#333"/><path fill="none" stroke="#333" stroke-miterlimit="10" d="M61.512 64.223h123.277v49.311H61.512z"/></svg>