<svg xmlns="http://www.w3.org/2000/svg" width="240" height="80" viewBox="0 50 240 80"><g fill="#333"><path d="M159.853 89.67c0 21.195-17.18 38.374-38.375 38.374-21.194 0-38.374-17.179-38.374-38.374 0-21.194 17.18-38.375 38.374-38.375 21.195 0 38.375 17.181 38.375 38.375zm-38.375-32.618c-18.014 0-32.619 14.604-32.619 32.618 0 18.016 14.605 32.618 32.619 32.618 18.015 0 32.619-14.603 32.619-32.618 0-18.014-14.605-32.618-32.619-32.618z"/><path d="M99.413 83.613c0-4.672 2.461-7.342 6.967-7.342 4.505 0 6.967 2.67 6.967 7.342v15.185c0 4.673-2.461 7.343-6.967 7.343s-6.967-2.67-6.967-7.343V83.613zm4.588 15.477c0 2.086.917 2.879 2.378 2.879 1.46 0 2.378-.793 2.378-2.879V83.321c0-2.086-.918-2.878-2.378-2.878s-2.378.792-2.378 2.878V99.09zm18.478-22.819c4.464 0 6.758 2.67 6.758 7.342v.918h-4.339v-1.21c0-2.086-.834-2.878-2.294-2.878s-2.294.792-2.294 2.878c0 6.007 8.969 7.134 8.969 15.477 0 4.673-2.336 7.343-6.842 7.343-4.505 0-6.841-2.67-6.841-7.343v-1.794h4.339v2.086c0 2.086.917 2.837 2.377 2.837s2.378-.751 2.378-2.837c0-6.007-8.969-7.133-8.969-15.477 0-4.673 2.295-7.342 6.758-7.342zm8.091.333h14.184v4.172h-4.798v25.03h-4.589v-25.03h-4.797v-4.172z"/></g></svg>