<svg xmlns="http://www.w3.org/2000/svg" width="240" height="80" viewBox="0 50 240 80"><g fill="#FFF"><path d="M89.599 97.627c-1.715 2.673-5.189 5.767-7.873 4.373-2.004-1.04.731-6.166 1.769-8.242 1.037-2.074 4.958-7.497 7.724-6.39s-1.151 9.15-10.222 8.429c-.312.257-.004.687-.004.687s6.518.931 10.309-3.811c3.792-4.743.922-6.123.182-6.521-.741-.398-8.216-.511-11.991 6.8-2.228 4.319-.593 8.953 1.871 9.718 1.847.576 5.342.556 8.732-4.719 0 0 .149-.295-.071-.445-.222-.149-.426.121-.426.121zm10.639-6.79c-.259 1.59-13.57 27.604-13.57 27.604-.113.23-.297.28-.548.172-.25-.108-2.267-2.834-2.385-3.235a.956.956 0 0 1 .07-.755c.047-.086 12.711-25.703 12.903-26.222.38-1.017.28-1.967-.237-2.89 0 0-.092-.404.315-.399.405.004 3.942 2.727 3.452 5.725z"/><path d="M95.714 98.512s8.086-11.375 11.897-12.41c3.66-.995 3.931 1.954 3.982 2.417.051.448.553 3.187-1.809 7.572-2.359 4.383-7.628 9.016-10.847 7.765-2.993-1.161.84-5.016 2.596-6.409 1.478-1.177 4.351-2.249 6.994-2.744 4.05-.761 9.465-2.208 12.269-3.968 2.104-1.318 3.055-4.045 1.959-4.388-.944-.293-3.787 2.227-5.355 4.986-2.589 4.553-3.482 7.762-2.086 7.841 1.395.081 7.91-5.015 8.404-5.771l.204.668s-6.54 5.717-8.783 6.178c-2.245.463-2.973-2.174-3.089-4.032-.116-1.86 1.39-5.968 3.767-8.183 2.957-2.757 5.924-3.001 6.966-2.675 2.308.72.93 4.278-1.523 5.782-2.096 1.286-6.147 2.94-12.763 4.172-2.171.403-4.94 1.307-6.624 2.644-1.583 1.256-3.83 4.22-2.667 4.599 1.163.378 12.122-14.309 8.624-15.146-3.206-.768-12.671 13.329-12.671 13.329l.555-2.227zm-3.439-19.683s-1.406-1.079.396-1.747c0 0 12.592-4.242 29.665-3.762 17.071.482 20.244 3.96 31.352 3.593 11.107-.365 16.356-2.013 18.798-2.868 0 0 1.013-.308.46.146 0 0-7.779 4.128-19.321 4.637-11.542.509-20.665-1.696-32.269-1.395-11.605.3-19.549 2.782-23.784 4.486 0 0-1.049.482-1.604.125-.655-.42-3.693-3.215-3.693-3.215z"/><path d="M138.445 61.068s3.522 3.14 3.213 5.769c-.455 3.844-19.154 33.778-17.925 34.818 1.229 1.041 12.053-9.738 12.053-9.738l.164.775s-9.92 10.823-12.873 9.838c-2.953-.982-.463-7.536 1.039-10.613 1.499-3.077 14.04-26.585 14.249-27.994.212-1.422-.093-2.136-.234-2.482-.139-.347.17-.482.314-.373zm16.89.365s3.523 3.139 3.213 5.769c-.454 3.844-19.153 33.777-17.925 34.818 1.231 1.04 12.054-9.739 12.054-9.739l.165.776s-9.922 10.82-12.873 9.838-.462-7.537 1.037-10.614c1.502-3.077 14.042-26.585 14.252-27.994.21-1.422-.095-2.137-.234-2.483-.141-.345.167-.48.311-.371z"/><path d="M138.295 79.288c-.055-.098-.015-.543.447-.278.46.265 3.488 3.283 2.957 5.612-.529 2.33-1.793 3.225-2.383 3.043-.588-.183-.868-.968-1.425-1.387-.559-.419-1.521-.628-1.732-1.2-.207-.573.419-1.727 1.436-2.902 1.066-1.234.7-2.888.7-2.888zm-2.941 8.401s2.838 2.504 2.793 4.127c-.042 1.449-1.405 3.209-2.529 4.617-.89 1.118-2.152 3.597-1.562 3.897.947.483 7.44-6.737 7.44-6.737l.18.423s-6.508 8.408-8.963 7.744c-1.811-.487-1.986-2.164-1.964-3.899.027-1.736 3.946-6.799 4.21-7.922.264-1.12.13-1.803.065-1.913-.065-.109 0-.411.33-.337zm20.634-7.083s-.402-1.217.678-.621c1.077.597 3.209 3.635 3.209 5.404 0 1.77-.818 3.5-1.703 3.486-.88-.016-1.705-1.491-2.186-1.802-.48-.312-2.102-.844-2.153-1.56-.144-1.929 2.692-3.091 2.155-4.907zm-3.548 7.462s5.272 2.388 4.146 5.227c-1.127 2.84-5.594 8.863-5.005 9.299.588.436 5.335-3.529 7.673-6.685l.261.406s-6.405 8.152-9.42 7.12c-3.011-1.034-1.753-4.59-.988-6.164.898-1.859 3.379-5.059 3.421-7.04.017-.638-.448-1.623-.448-1.623s-.404-.45.36-.54z"/><path d="M170.402 91.598s.362-3.413-2.207-3.53c-2.571-.117-6.24 1.519-8.471 5.011s-3.114 8.637-.209 9.879c2.906 1.241 7.516-3.365 8.729-5.015 1.21-1.648 2.175-4.392.967-5.19-1.079-.716-1.891.001-2.085.389s-.475 1.55.485 1.94c1.075.437 2.225-.288 4.496-1.823 2.219-1.499 2.876-2.431 3.522-2.077.455.251-5.233 9.882-5.175 10.616.1 1.205 1.576 4.017 2.06 3.79.481-.223 5.43-9.438 5.864-10.458.438-1.019.434-4.612-1.345-5.266-1.17-.431-4.616 2.638-5.2 3.007-.583.369-2.849 2.163-3.688 1.771-.668-.313-.542-.964-.356-1.209.151-.201.575-.411.96-.251.468.195.899 2.141-.992 4.42s-5.141 4.949-6.502 3.98c-1.355-.973 3.718-11.008 6.93-10.901 1.453.05 1.773 1.02 1.773 1.02s.201.291.444-.103z"/><path d="M176.092 98.146s7.461-9.542 9.372-8.079c.427.325 2.231 2.505 1.325 4.397-.727 1.516-6.943 10.122-5.726 11.07 1.217.945 5.829-.991 9.915-7.616 0 0 .701-.785.602.293 0 0-6.642 9.949-11.455 8.42-2.68-.852-2.63-5.296-.602-8.596 1.822-2.962 4.688-6.791 4.236-6.993-.451-.199-6.667 6.401-7.519 7.655l-.148-.551zM82.152 80.33c6.613-.929 7.895-4.54 7.903-6.869.012-2.902-2.57-4.599-5.678-5.405-3.295-.854-26.427-.793-27.794-2.344-1.196-1.355-.621-2.531-.621-2.531.183-.448-.276-.198-.276-.198-.776.834-.744 3.384.433 4.904 2.69 3.475 13.24 2.844 13.24 2.844.147.833-.147 1.668-.54 2.451-.392.785-12.771 24.589-12.771 24.589-.331.993-.036 1.375-.036 1.375s2.065 3.28 2.346 3.626c.281.345.446-.028.446-.028l11.102-22.036c1.653 1.756 2.121 4.634 2.328 6.287.206 1.654-.311 12.604-.311 12.604s-.188 7.938 5.424 10.021c4.77 1.77 9.253-4.554 9.253-4.554.307-1.139-.876-.622-.876-.622-2.142 2.613-5.278 5.691-7.706 4.04-2.428-1.652-1.033-16.271-1.499-21.264-.464-4.994-5.63-6.889-5.63-6.889s4.652.929 11.263-.001zm-11.763-.822s2.011-3.917 2.522-5.437c.511-1.521-.298-3.488-.298-3.488s7.387.195 10.085.49c2.696.294 6.178.882 5.787 4.124-.393 3.242-4.657 3.905-8.533 4.311-3.962.413-9.563 0-9.563 0z"/></g></svg>