<svg xmlns="http://www.w3.org/2000/svg" width="240" height="80" viewBox="0 0 240 80"><g fill="#555"><path d="M89.599 48.615c-1.715 2.673-5.189 5.768-7.873 4.373-2.004-1.04.731-6.166 1.769-8.242 1.037-2.074 4.958-7.497 7.724-6.39 2.766 1.106-1.151 9.149-10.222 8.429-.312.258-.004.688-.004.688s6.518.931 10.309-3.812c3.792-4.743.922-6.123.182-6.521-.741-.398-8.216-.512-11.991 6.8-2.228 4.319-.593 8.953 1.871 9.718 1.847.576 5.342.557 8.732-4.719 0 0 .149-.295-.071-.445-.222-.148-.426.121-.426.121zm10.639-6.79c-.259 1.59-13.57 27.604-13.57 27.604-.113.229-.297.279-.548.172-.25-.108-2.267-2.834-2.385-3.235a.957.957 0 0 1 .07-.755c.047-.086 12.711-25.703 12.903-26.223.38-1.017.28-1.967-.237-2.89 0 0-.092-.403.315-.399.405.005 3.942 2.728 3.452 5.726z"/><path d="M95.714 49.5s8.086-11.375 11.897-12.41c3.66-.994 3.931 1.955 3.982 2.418.051.447.553 3.187-1.809 7.571-2.359 4.384-7.628 9.017-10.847 7.765-2.993-1.16.84-5.016 2.596-6.408 1.478-1.178 4.351-2.249 6.994-2.744 4.05-.762 9.465-2.208 12.269-3.969 2.104-1.317 3.056-4.045 1.959-4.387-.944-.293-3.787 2.227-5.355 4.985-2.589 4.553-3.482 7.763-2.086 7.841 1.395.081 7.911-5.015 8.404-5.771l.204.668s-6.54 5.718-8.783 6.179c-2.245.463-2.973-2.174-3.089-4.032-.116-1.859 1.39-5.968 3.767-8.183 2.957-2.757 5.924-3.001 6.966-2.675 2.308.72.93 4.277-1.523 5.781-2.096 1.286-6.147 2.94-12.763 4.172-2.171.403-4.94 1.308-6.624 2.645-1.583 1.256-3.83 4.22-2.667 4.6 1.163.377 12.122-14.31 8.624-15.146-3.206-.768-12.671 13.328-12.671 13.328l.555-2.228zm-3.439-19.683s-1.406-1.079.396-1.747c0 0 12.592-4.242 29.665-3.762 17.071.481 20.244 3.959 31.352 3.593 11.107-.365 16.356-2.013 18.799-2.868 0 0 1.013-.309.459.146 0 0-7.778 4.127-19.32 4.637-11.542.509-20.665-1.696-32.27-1.395-11.604.299-19.548 2.781-23.783 4.485 0 0-1.049.481-1.604.125-.656-.419-3.694-3.214-3.694-3.214z"/><path d="M138.445 12.057s3.521 3.14 3.213 5.769c-.455 3.845-19.154 33.778-17.926 34.817 1.229 1.041 12.054-9.737 12.054-9.737l.164.774s-9.921 10.824-12.873 9.838c-2.953-.981-.464-7.535 1.039-10.612 1.499-3.077 14.04-26.585 14.249-27.994.212-1.422-.094-2.136-.234-2.481-.139-.349.17-.484.314-.374zm16.89.365s3.522 3.139 3.213 5.769c-.454 3.844-19.153 33.776-17.925 34.817 1.23 1.041 12.054-9.738 12.054-9.738l.165.775s-9.922 10.82-12.873 9.838c-2.951-.981-.462-7.537 1.037-10.613 1.502-3.077 14.042-26.586 14.252-27.994.21-1.422-.095-2.137-.234-2.482-.141-.347.167-.482.311-.372z"/><path d="M138.295 30.276c-.055-.099-.016-.543.447-.278.46.266 3.488 3.283 2.957 5.612-.529 2.33-1.793 3.226-2.383 3.043-.588-.183-.868-.968-1.426-1.388-.559-.418-1.521-.627-1.731-1.199-.207-.573.419-1.727 1.437-2.902 1.065-1.234.699-2.888.699-2.888zm-2.941 8.402s2.838 2.504 2.793 4.127c-.041 1.449-1.404 3.209-2.528 4.617-.89 1.117-2.152 3.596-1.562 3.896.946.482 7.439-6.737 7.439-6.737l.18.423s-6.508 8.408-8.963 7.744c-1.811-.486-1.986-2.164-1.964-3.898.026-1.736 3.946-6.799 4.21-7.922.264-1.121.13-1.804.064-1.914-.064-.109 0-.41.331-.336zm20.634-7.084s-.402-1.217.678-.621c1.077.598 3.209 3.636 3.209 5.404 0 1.771-.818 3.5-1.703 3.486-.88-.016-1.705-1.491-2.186-1.802-.48-.312-2.103-.845-2.153-1.56-.144-1.929 2.692-3.091 2.155-4.907zm-3.549 7.463s5.272 2.388 4.146 5.227c-1.127 2.84-5.594 8.863-5.005 9.299.588.436 5.335-3.529 7.673-6.685l.262.405s-6.406 8.152-9.42 7.121c-3.012-1.035-1.754-4.59-.988-6.164.897-1.859 3.379-5.06 3.42-7.041.018-.638-.447-1.623-.447-1.623s-.404-.45.359-.539z"/><path d="M170.402 42.586s.361-3.412-2.207-3.529c-2.571-.117-6.24 1.519-8.471 5.011-2.231 3.491-3.115 8.637-.209 9.879 2.905 1.241 7.516-3.365 8.729-5.015 1.21-1.648 2.175-4.393.967-5.19-1.079-.716-1.891.001-2.085.39-.194.387-.476 1.549.485 1.939 1.074.438 2.225-.288 4.496-1.823 2.219-1.499 2.875-2.431 3.521-2.077.455.252-5.232 9.883-5.175 10.616.101 1.205 1.575 4.017 2.06 3.79.481-.223 5.43-9.438 5.864-10.458.438-1.019.435-4.612-1.345-5.266-1.17-.431-4.616 2.638-5.2 3.007-.583.369-2.849 2.163-3.688 1.771-.668-.313-.541-.965-.355-1.209.15-.201.574-.412.96-.252.468.195.899 2.142-.992 4.42-1.891 2.279-5.141 4.949-6.502 3.98-1.354-.973 3.718-11.008 6.931-10.9 1.453.049 1.772 1.02 1.772 1.02s.201.29.444-.104z"/><path d="M176.092 49.135s7.461-9.543 9.372-8.08c.427.326 2.231 2.506 1.325 4.397-.727 1.517-6.943 10.122-5.727 11.07 1.217.944 5.83-.991 9.916-7.616 0 0 .701-.785.602.293 0 0-6.643 9.949-11.455 8.42-2.68-.852-2.63-5.296-.602-8.596 1.822-2.962 4.688-6.791 4.235-6.993-.45-.199-6.667 6.401-7.519 7.655l-.147-.55zm-93.94-17.817c6.613-.93 7.895-4.54 7.903-6.869.012-2.902-2.57-4.6-5.678-5.404-3.295-.855-26.427-.793-27.794-2.345-1.196-1.354-.621-2.53-.621-2.53.183-.449-.276-.199-.276-.199-.776.834-.744 3.385.433 4.904 2.69 3.475 13.24 2.844 13.24 2.844.147.834-.147 1.668-.54 2.451-.392.785-12.771 24.59-12.771 24.59-.331.992-.036 1.375-.036 1.375s2.065 3.279 2.346 3.625c.281.346.446-.027.446-.027l11.102-22.036c1.653 1.756 2.121 4.634 2.328 6.287.206 1.653-.311 12.604-.311 12.604s-.188 7.938 5.424 10.021c4.77 1.771 9.253-4.554 9.253-4.554.307-1.14-.876-.623-.876-.623-2.142 2.613-5.278 5.691-7.706 4.041-2.428-1.652-1.033-16.271-1.499-21.264-.464-4.994-5.63-6.89-5.63-6.89s4.652.929 11.263-.001zm-11.763-.822s2.011-3.917 2.522-5.438c.511-1.521-.298-3.487-.298-3.487s7.387.194 10.085.49c2.696.294 6.178.882 5.787 4.124-.393 3.242-4.657 3.904-8.533 4.311-3.962.413-9.563 0-9.563 0z"/></g></svg>