<svg xmlns="http://www.w3.org/2000/svg" width="240" height="80" viewBox="0 50 240 80"><g fill="#FFF"><path d="M79.594 83.103c0 1.386-2.559 3.624-4.901 6.394-1.812 2.132-3.092 3.941-3.624 5.008-.532.96-.532 1.705-.107 2.025.427.319 1.172.211 2.346-.427 1.172-.639 3.09-1.812 4.795-3.195 2.344-1.812 3.624-2.879 5.007-4.157.747-.746 1.387-1.064 1.601-.852.318.319-.428.959-1.278 1.812-1.28 1.172-3.41 3.09-6.074 5.114-2.24 1.705-5.969 4.264-9.485 4.264-2.237 0-3.409-1.174-3.303-2.772.106-2.344 2.77-5.327 5.114-7.565 2.558-2.45 6.606-5.328 6.927-6.073.426-1.173-1.599-.853-4.262-.853-1.065 0-1.92 0-2.452-.212-.852.958-2.345 2.45-4.05 4.047a304.071 304.071 0 0 1-4.262 3.944c-.959.853-1.386 1.065-1.6.853-.213-.214.108-.746 1.173-1.706 1.278-1.173 2.238-2.023 4.156-3.836 1.491-1.385 2.877-2.771 3.73-3.729-.959-.639-1.066-2.132 0-3.41.852-1.065 2.344-1.811 4.049-1.811.854 0 1.812.425 1.918 1.064-.746.532-1.173.854-1.811 1.492-1.386 1.491-1.067 2.237.319 2.345 2.983.106 6.074.213 6.074 2.132v.104z"/><path d="M88.332 98.342c2.343 0 6.606-2.878 9.909-6.501.107-1.064.532-2.664 1.918-4.475 1.173-1.599 2.664-2.452 3.41-2.771.318-.746.318-1.918.318-2.451 0-1.172-.424-1.491-.104-1.705.427-.213 1.064.214 1.491.64.854.853 1.492 2.13 1.278 3.729-.319 2.559-2.77 5.648-6.074 8.63.427.213 1.6.107 2.025 0 .96-.21 2.132-.744 3.624-1.81 1.384-.959 2.237-1.705 3.409-2.771.96-.854 1.492-1.386 1.812-1.066.318.321-.319.959-1.386 1.919-.959.853-2.024 1.812-3.41 2.769-1.705 1.172-2.983 1.707-4.049 1.919-.959.214-2.237.214-2.877-.212-2.771 2.13-7.779 5.22-12.148 5.22-3.303 0-5.328-1.598-5.221-4.688.105-2.132 1.384-4.689 3.41-6.819l-.107-.107c-.746.641-1.173 1.066-1.919 1.705-.745.641-1.172.854-1.384.641-.214-.32.318-.854.745-1.279.746-.745 2.238-1.918 3.303-2.663a45.793 45.793 0 0 1 5.115-3.092c3.091-1.599 6.396-2.77 8.846-2.877.746 0 1.599 0 1.599.427"/><path d="M127.225 93.865c2.986-1.812 5.224-3.729 7.035-5.328.532-.425 1.066-.96 1.385-.639.214.214-.213.852-1.172 1.705a53.992 53.992 0 0 1-5.434 4.262c-2.346 1.599-4.689 2.771-6.715 3.624-1.919.853-5.753 1.916-8.951 1.916-5.648 0-6.82-3.409-6.394-6.393.427-3.09 2.878-5.646 5.435-5.541 1.492.105 2.239 1.173 2.025 2.345-.213 1.065-.959 1.917-2.346 2.662-.958.534-2.343 1.707-2.45 3.198-.106 1.706 1.173 2.665 3.091 2.665 2.133 0 4.797-1.705 7.139-5.756 1.919-3.09 3.837-9.483 5.011-10.868v-.105c-1.068 1.064-3.305 2.769-5.116 4.047-1.491 1.067-3.196 2.132-4.05 2.559-.427.214-.851.427-1.064.105-.107-.319 0-.532.532-.852 1.065-.64 2.77-1.704 4.475-2.983 1.919-1.386 3.836-2.984 6.289-5.114.211-.427.959-1.28 1.705-1.813 1.171-.852 2.344-1.172 3.089-1.172 2.451 0 .852 1.386-.532 2.239-.958.638-2.025 1.065-2.557 1.598-.854.853-.746 1.705-.746 2.877.105 2.984.316 5.755-.959 8.738-.641 1.49-2.134 3.516-3.411 4.368 1.171-.425 2.982-1.276 4.686-2.344z"/><path d="M138.416 99.405c-3.943 0-5.862-1.598-5.647-4.473.213-2.133 1.386-4.37 3.09-6.396l-.106-.105c-.32.318-1.174 1.064-1.812 1.597-.64.534-1.171.854-1.386.641-.212-.319.215-.746.641-1.173 1.384-1.278 2.344-2.024 3.942-3.196 1.173-.853 3.303-2.237 5.115-3.197 3.623-1.918 7.034-3.305 9.804-2.877 2.45.427 3.304 2.024 2.878 4.05-.428 2.024-2.238 3.623-3.624 3.623-1.811 0-1.811-1.491-.853-3.091 1.172-2.024 1.599-3.304.319-3.516-1.172-.214-3.623 1.385-6.605 4.476-2.878 2.877-5.649 6.926-5.968 9.482-.215 1.599.744 2.45 2.45 2.45 1.385 0 5.114-.639 9.804-3.835 2.025-1.387 4.689-3.623 6.394-5.115.64-.532.959-.638 1.174-.427.211.321-.215.746-.854 1.387-1.385 1.278-4.369 3.835-6.288 5.114-3.729 2.559-8.736 4.581-12.36 4.581h-.108z"/><path d="M157.385 89.496c-.746.641-1.171.854-1.385.641-.214-.32.319-.854.745-1.279.746-.745 2.238-1.918 3.303-2.663a45.634 45.634 0 0 1 5.116-3.092c3.09-1.599 6.394-2.77 8.845-2.877.746 0 1.598 0 1.598.427 0 .213-14.706 17.689-13.532 17.689 2.344 0 6.605-2.878 9.908-6.501.109-1.064.534-2.664 1.92-4.475 1.171-1.599 2.664-2.452 3.409-2.771.319-.746.319-1.918.319-2.451 0-1.172-.425-1.491-.105-1.705.427-.213 1.065.214 1.491.64.854.853 1.491 2.13 1.279 3.729-.32 2.559-2.771 5.648-6.075 8.63.427.213 1.599.107 2.026 0 .959-.21 2.129-.744 3.623-1.81 1.385-.959 2.237-1.705 3.41-2.771.959-.854 1.49-1.386 1.811-1.066.319.321-.32.959-1.386 1.919-.959.853-2.024 1.812-3.409 2.769-1.705 1.172-2.984 1.707-4.049 1.919-.96.214-2.238.214-2.879-.212-2.769 2.13-7.779 5.22-12.147 5.22-3.306 0-5.329-1.598-5.221-4.688.105-2.132 1.385-4.689 3.41-6.819l-.108-.107c-.746.64-1.172 1.065-1.917 1.704z"/></g></svg>