<svg xmlns="http://www.w3.org/2000/svg" width="240" height="80" viewBox="0 0 240 80"><g fill="#555"><path d="M79.594 35.604c0 1.386-2.559 3.623-4.901 6.394-1.812 2.132-3.092 3.94-3.624 5.008-.532.96-.532 1.705-.107 2.024.427.32 1.172.212 2.346-.426 1.172-.64 3.09-1.812 4.795-3.195 2.344-1.812 3.624-2.879 5.007-4.157.747-.746 1.387-1.063 1.601-.853.318.319-.428.959-1.278 1.812-1.28 1.172-3.41 3.09-6.074 5.114-2.24 1.704-5.969 4.264-9.485 4.264-2.237 0-3.409-1.174-3.303-2.772.106-2.344 2.77-5.326 5.114-7.564 2.558-2.45 6.606-5.328 6.927-6.072.426-1.174-1.599-.854-4.262-.854-1.065 0-1.92 0-2.452-.212-.852.958-2.345 2.45-4.05 4.047a304.071 304.071 0 0 1-4.262 3.944c-.959.853-1.386 1.064-1.6.853-.213-.214.108-.746 1.173-1.706 1.278-1.173 2.238-2.023 4.156-3.836 1.491-1.385 2.877-2.771 3.73-3.729-.959-.64-1.066-2.133 0-3.41.852-1.065 2.344-1.812 4.049-1.812.854 0 1.812.425 1.918 1.063-.746.533-1.173.854-1.811 1.492-1.386 1.492-1.067 2.237.319 2.346 2.983.105 6.074.213 6.074 2.132v.105z"/><path d="M88.332 50.842c2.343 0 6.606-2.878 9.909-6.501.107-1.063.532-2.664 1.918-4.475 1.173-1.599 2.664-2.452 3.41-2.771.318-.746.318-1.919.318-2.451 0-1.172-.424-1.492-.104-1.705.427-.213 1.064.213 1.491.64.854.853 1.492 2.13 1.278 3.729-.319 2.559-2.77 5.647-6.074 8.629.427.213 1.6.107 2.025 0 .96-.209 2.132-.744 3.624-1.81 1.384-.959 2.237-1.705 3.409-2.771.96-.854 1.492-1.387 1.812-1.066.318.32-.319.959-1.386 1.919-.959.853-2.024 1.812-3.41 2.769-1.705 1.172-2.983 1.707-4.049 1.92-.959.213-2.237.213-2.877-.213-2.771 2.131-7.779 5.221-12.148 5.221-3.303 0-5.328-1.598-5.221-4.688.105-2.132 1.384-4.688 3.41-6.819l-.107-.106c-.746.642-1.173 1.065-1.919 1.705-.745.642-1.172.854-1.384.642-.214-.32.318-.854.745-1.279.746-.746 2.238-1.918 3.303-2.664a46.098 46.098 0 0 1 5.115-3.092c3.091-1.599 6.396-2.77 8.846-2.877.746 0 1.599 0 1.599.428"/><path d="M127.225 46.365c2.986-1.812 5.225-3.729 7.035-5.328.532-.426 1.066-.96 1.385-.639.215.213-.213.852-1.172 1.705a54.02 54.02 0 0 1-5.434 4.262c-2.346 1.599-4.689 2.771-6.715 3.624-1.919.853-5.753 1.915-8.951 1.915-5.648 0-6.82-3.408-6.394-6.393.427-3.09 2.878-5.646 5.435-5.541 1.492.105 2.239 1.174 2.025 2.346-.213 1.064-.959 1.916-2.346 2.662-.958.533-2.343 1.707-2.45 3.197-.106 1.706 1.173 2.665 3.091 2.665 2.133 0 4.797-1.705 7.139-5.756 1.919-3.09 3.837-9.483 5.011-10.868v-.105c-1.067 1.064-3.305 2.77-5.116 4.048-1.491 1.067-3.196 2.132-4.05 2.559-.427.214-.851.427-1.064.105-.107-.319 0-.532.532-.853 1.065-.64 2.77-1.703 4.475-2.982 1.919-1.387 3.836-2.984 6.289-5.114.211-.427.959-1.28 1.704-1.813 1.172-.852 2.345-1.172 3.09-1.172 2.451 0 .852 1.387-.532 2.239-.958.638-2.024 1.065-2.558 1.599-.854.853-.745 1.705-.745 2.877.104 2.983.315 5.754-.959 8.737-.642 1.49-2.134 3.517-3.411 4.368 1.171-.425 2.982-1.275 4.686-2.344z"/><path d="M138.416 51.904c-3.943 0-5.861-1.598-5.646-4.473.213-2.133 1.385-4.369 3.09-6.396l-.106-.104c-.319.317-1.174 1.063-1.812 1.596-.641.535-1.172.854-1.387.642-.212-.319.215-.746.641-1.173 1.385-1.278 2.345-2.023 3.943-3.196 1.172-.853 3.303-2.237 5.114-3.196 3.623-1.918 7.034-3.306 9.804-2.877 2.45.426 3.305 2.023 2.879 4.049-.429 2.024-2.238 3.623-3.625 3.623-1.811 0-1.811-1.49-.853-3.09 1.172-2.024 1.599-3.305.319-3.517-1.172-.214-3.623 1.385-6.605 4.476-2.878 2.877-5.648 6.926-5.968 9.482-.215 1.6.744 2.45 2.45 2.45 1.385 0 5.113-.64 9.804-3.835 2.024-1.387 4.688-3.623 6.394-5.115.641-.532.959-.639 1.174-.427.211.321-.215.745-.854 1.387-1.385 1.278-4.369 3.835-6.288 5.114-3.729 2.559-8.735 4.58-12.36 4.58h-.108z"/><path d="M157.385 41.996c-.746.641-1.171.854-1.385.641-.214-.32.318-.854.745-1.279.746-.744 2.237-1.918 3.303-2.662a45.336 45.336 0 0 1 5.116-3.092c3.09-1.6 6.395-2.771 8.845-2.877.746 0 1.599 0 1.599.426 0 .214-14.707 17.689-13.532 17.689 2.344 0 6.604-2.878 9.907-6.501.109-1.063.535-2.664 1.92-4.475 1.172-1.599 2.664-2.452 3.41-2.771.318-.746.318-1.919.318-2.451 0-1.172-.425-1.492-.105-1.705.428-.213 1.065.213 1.492.64.854.853 1.49 2.13 1.278 3.729-.319 2.559-2.771 5.647-6.075 8.629.428.213 1.6.107 2.026 0 .959-.209 2.129-.744 3.623-1.81 1.385-.959 2.237-1.705 3.409-2.771.96-.854 1.49-1.387 1.812-1.066.319.32-.319.959-1.386 1.919-.959.853-2.023 1.812-3.409 2.769-1.705 1.172-2.983 1.707-4.049 1.92-.96.213-2.238.213-2.879-.213-2.769 2.131-7.779 5.221-12.147 5.221-3.306 0-5.328-1.598-5.221-4.688.105-2.132 1.385-4.688 3.41-6.819l-.107-.106c-.746.639-1.173 1.064-1.918 1.703z"/></g></svg>