<svg xmlns="http://www.w3.org/2000/svg" width="240" height="80" viewBox="0 0 240 80"><path fill="#555" d="M65.921 52.05l-1.967-6.457h-9.89l-1.967 6.457H45.9l9.574-27.238h7.032l9.611 27.238h-6.196zm-3.34-11.28a1998.04 1998.04 0 0 1-3.071-9.928 28.05 28.05 0 0 1-.492-1.818c-.408 1.583-1.577 5.499-3.507 11.746h7.07zm39.373 11.28h-6.55L91.73 37.8c-.136-.507-.368-1.556-.696-3.145-.328-1.589-.517-2.656-.566-3.201-.074.668-.26 1.741-.557 3.219-.297 1.478-.526 2.533-.687 3.164L85.57 52.05h-6.531l-6.921-27.127h5.659l3.47 14.807c.606 2.734 1.045 5.103 1.317 7.106.074-.705.244-1.797.51-3.273.266-1.479.516-2.627.751-3.441l3.952-15.196h5.437l3.952 15.196c.173.681.39 1.72.649 3.115.26 1.398.458 2.6.594 3.602a63 63 0 0 1 .594-3.607c.272-1.44.52-2.606.742-3.499l3.451-14.807h5.659l-6.901 27.124zm26.922 0l-1.967-6.457h-9.89l-1.967 6.457h-6.197l9.574-27.238h7.032l9.611 27.238h-6.196zm-3.34-11.28a1880.964 1880.964 0 0 1-3.071-9.928 26.567 26.567 0 0 1-.49-1.818c-.408 1.583-1.578 5.499-3.508 11.746h7.069zm18.702.871V52.05h-5.752V24.923h7.904c3.688 0 6.414.671 8.184 2.013 1.769 1.342 2.652 3.38 2.652 6.114 0 1.596-.438 3.016-1.316 4.258-.879 1.244-2.121 2.218-3.729 2.923 4.082 6.099 6.739 10.039 7.979 11.819h-6.383L147.3 41.641h-3.062zm0-4.676h1.854c1.818 0 3.16-.303 4.026-.909.863-.605 1.299-1.559 1.299-2.857 0-1.286-.441-2.202-1.326-2.746s-2.255-.816-4.109-.816h-1.744v7.328zm41.842 1.262c0 4.466-1.271 7.886-3.812 10.261-2.543 2.375-6.213 3.562-11.013 3.562h-7.682V24.923h8.517c4.428 0 7.867 1.169 10.316 3.507 2.449 2.338 3.674 5.603 3.674 9.797zm-5.975.148c0-5.826-2.573-8.739-7.719-8.739h-3.062V47.3h2.468c5.542 0 8.313-2.975 8.313-8.925zm27.61 6.143c0 2.448-.881 4.379-2.645 5.789-1.762 1.409-4.215 2.114-7.356 2.114-2.896 0-5.455-.544-7.682-1.633v-5.345c1.831.815 3.38 1.393 4.647 1.727 1.266.334 2.428.501 3.479.501 1.262 0 2.229-.241 2.902-.724.674-.483 1.012-1.199 1.012-2.152 0-.531-.147-1.005-.444-1.419-.297-.415-.731-.813-1.31-1.196-.573-.384-1.746-.996-3.517-1.838-1.657-.779-2.899-1.527-3.729-2.245a8.412 8.412 0 0 1-1.984-2.505c-.495-.952-.74-2.065-.74-3.34 0-2.399.812-4.286 2.438-5.659 1.627-1.373 3.875-2.06 6.744-2.06 1.41 0 2.756.167 4.035.501s2.619.804 4.019 1.41l-1.854 4.472c-1.447-.594-2.645-1.008-3.592-1.243a11.537 11.537 0 0 0-2.792-.353c-1.089 0-1.924.254-2.505.761-.582.507-.872 1.169-.872 1.985 0 .507.117.95.354 1.327.234.377.609.742 1.123 1.095.513.353 1.729.987 3.646 1.902 2.536 1.213 4.272 2.428 5.214 3.646.938 1.218 1.409 2.712 1.409 4.482zM35.112 30.067c0 .645-.232 1.152-.696 1.523s-1.109.557-1.936.557c-.762 0-1.436-.144-2.021-.43v-1.406c.482.215.89.366 1.223.454.333.088.639.132.916.132.332 0 .587-.063.764-.19.177-.127.266-.315.266-.566a.627.627 0 0 0-.117-.374c-.078-.108-.193-.214-.344-.314s-.46-.262-.925-.483c-.436-.205-.763-.402-.981-.591a2.212 2.212 0 0 1-.522-.659 1.886 1.886 0 0 1-.195-.879c0-.632.214-1.128.642-1.489.428-.361 1.02-.542 1.775-.542.371 0 .725.044 1.062.132s.689.212 1.057.371l-.488 1.177c-.381-.156-.696-.266-.945-.327s-.494-.093-.735-.093c-.287 0-.506.066-.659.2a.66.66 0 0 0-.229.522c0 .134.031.25.093.349.062.1.16.195.295.289.135.092.455.259.959.5.667.319 1.125.639 1.372.959.246.32.369.713.369 1.178zm1.294 1.983v-7.139h1.514v7.139h-1.514zm6.065 0h-1.514v-5.879h-1.938v-1.26h5.391v1.26h-1.938l-.001 5.879zm7.148 0h-4.111v-7.139h4.111v1.24h-2.598v1.567h2.417v1.24h-2.417V30.8h2.598v1.25z"/></svg>