<svg xmlns="http://www.w3.org/2000/svg" width="240" height="80" viewBox="0 0 240 80"><g fill="#FFF"><path d="M220.067 55.581c-27.967 1.951-55.846 4.746-83.597 8.579.047-.226.096-.445.142-.666a16.224 16.224 0 0 1 2.905-2.364c2.122.663 4.237.083 6.462-.25.442.341.748.402 1.48.688.265.105.669-.06.786-.317.663-1.49 1.719-2.602 2.762-3.826.729-.856 1.045-1.816 1.482-2.755 2.146.361 3.137-1.129 4.442-2.756.242 1.221.469 2.45.564 3.684.045.574.826 1.084 1.271.527 1.995-2.497 4.311-4.694 6.46-7.045.04.301.107.562.211.742.184.322.542.354.853.224 1.915-.81 3.715-3.048 5.166-5.2.128 3.546 1.127 7.024 3.298 10.308-.586.161-1.168.32-1.73.498-.919.292-.765 1.693.232 1.693h3.531c.697 0 .987-.686.754-1.23 1.849-.586 3.636-1.311 5.155-2.555.257-.209.299-.523.213-.811 6.118-1.184 12.362-1.634 18.608-1.794.845-.021.845-1.3 0-1.311-8.835-.123-17.722.599-26.199 3.204-1.884-3.377-2.492-6.949-2.238-10.567l.21-.347c2.193-3.6 3.199-7.776 3.349-11.949.025-.71-1.046-1.032-1.368-.374-2.033 4.158-3.447 8.448-3.769 12.675-.034.058-.065.119-.099.177-1.224 2.051-2.854 3.812-4.534 5.489-1.722 1.721-.203.037.113-.904.188-.229.38-.457.562-.693.312-.4.223-.945-.296-1.12-.914-.308-1.515.5-1.822 1.534-2.155 2.411-4.543 4.597-6.664 7.034-.19-1.24-.45-2.474-.697-3.701-.108-.541-.864-.71-1.227-.324-.775.823-2.546 3.506-3.918 4.071.05-.084.095-.167.149-.243.309-.461-.103-1.077-.619-1.077-.065-.002-.13-.002-.194-.002-.336 0-.59.223-.692.526-.064.192-.13.382-.194.579-.858 1.469-1.466 2.945-2.673 4.302-.23.256-.75.833-1.132 1.392-.37.005-.716.013-1.048.077-.913.064-1.812.157-2.73.311-.375.063-1.236.112-2.028.153.035-.018.065-.035.101-.049.715-.349.361-1.501-.399-1.475-1.292.041-2.587.134-3.311 1.284a.74.74 0 0 0-.083.491c-.283.188-.55.383-.814.581 1.246-5.189 2.786-10.308 4.512-15.371 5.638-10.507 10.008-24.796 11.012-28.392.265-.948-1.077-1.25-1.432-.394-3.848 9.336-7.775 18.702-11.07 28.251-4.353 8.168-9.272 13.807-13.421 9.519-.519-.532-1.29.259-.81.81 5.244 5.975-5.097 7.404-9.768 7.676.936-1.405 1.978-2.729 2.838-4.191.424-.721-.523-1.373-1.114-.857-2.726 2.366-6.207 3.502-9.288 5.321.074-1.839-.143-3.343-1.097-5.172-.209-.401-.779-.438-1.085-.138-2.192 2.13-4.55 4.076-6.815 6.129-.196-.954-1.028-1.546-2.578-.939-.733.29-.419 1.486.331 1.199.762-.292.799.404.807 1.089-.178.171-.366.334-.543.512a.643.643 0 0 0-.101.776c.018.036.038.064.061.1.214.351.71.428 1.006.131.235-.236.428-.492.586-.765.147-.115.311-.257.507-.446 1.303-1.259 2.706-2.411 4.09-3.574.926-.778 1.841-1.566 2.739-2.377.811-.729.609 4.391.562 4.843-.053.534.656.908 1.082.622 2.4-1.623 5.106-2.706 7.599-4.133-.521.742-1.038 1.486-1.499 2.272-.263.452.071 1.065.605 1.058 4.543-.097 15.77-1.834 13.505-7.505 3.271 1.214 6.606-1.308 9.722-5.607a156.469 156.469 0 0 0-3.09 11.46 13.774 13.774 0 0 0-1.562 1.978 1074.576 1074.576 0 0 0-32.596 5.084c-7.195 1.24-14.278 2.74-21.317 4.376-5.279-.415-10.609-.398-15.715-.23.167-11.926 2.441-24.011 5.721-35.006 2.609-8.755 6.519-19.155 14.956-23.737 2.889-1.568 5.509-1.873 7.86-1.295 1.173 11.02 4.374 22.852 15.451 24.023.526.057.77-.512.71-.931-1.127-7.852-3.792-17.091-10.615-21.967-1.511-1.081-3.087-1.824-4.688-2.271-.48-4.432-.647-8.646-.89-11.778-.042-.526-.862-.534-.829 0 .2 3.189.326 7.268.722 11.544-3.673-.72-7.449.162-10.902 2.544C71 22.125 67.287 38.446 64.904 50.06c-1.396 6.819-2.621 15.198-2.885 23.823-1.819.077-3.61.168-5.35.261C37.64 75.167 17.63 78.684.521 87.406c-1.01.512-.385 1.779.515 1.898 15.725 2.06 31.711-1.404 46.916-5.168 4.715-1.169 9.396-2.376 14.075-3.577.562 17.248 5.729 34.168 21.743 40.462 10.736 4.216 26.807 2.48 32.824-8.508 5.618-10.258-.822-23.016-9.279-29.436-6.119-4.646-13.589-7.099-21.437-8.319a308.78 308.78 0 0 1 12.201-2.421c11.381-1.998 22.802-3.771 34.248-5.382-1.218 3.171-1.167 6.863.349 10.956.348.941 1.63.765 1.718-.234.342-3.796.896-7.537 1.615-11.242 27.925-3.837 55.994-6.671 84.064-9.058 1.135-.096 1.154-1.873-.006-1.796zM107.005 36.189c-9.251-1.47-12.291-12.091-13.529-22.11 7.573 2.769 12.129 14.759 13.529 22.11zm-56.771 45.25c-14.726 3.836-30.206 7.419-45.521 6.196 17.632-8.143 37.976-11.083 57.26-11.594-.009.784-.009 1.565 0 2.349-3.906 1.004-7.814 2.025-11.739 3.049zm13.686-5.443c.194-.004.391-.014.583-.015a214.34 214.34 0 0 1 7.045-.01c-2.535.625-5.068 1.265-7.603 1.908-.017-.625-.02-1.254-.025-1.883zm49.543 17.383c3.271 5.64 4.111 12.782.928 18.624-3.909 7.185-12.892 8.913-20.345 8.823-15.459-.181-24.502-12.067-27.913-25.985-1.177-4.8-1.839-9.771-2.096-14.809 5-1.278 9.996-2.544 15.015-3.729 13.598 1.044 27.307 4.824 34.411 17.076zM134.16 67.13a122.18 122.18 0 0 0-.879 5.26c-.096-1.903.199-3.661.879-5.26z"/><path d="M218.302 43.599c-7.025-.701-14.142-.126-21.196-.884-.669-.069-.65.956 0 1.034 6.878.855 14.279 1.571 21.196.886a.518.518 0 0 0 0-1.036z"/></g></svg>