<svg xmlns="http://www.w3.org/2000/svg" width="230" height="35" viewBox="0 0 230 35"><g fill="none" stroke="#888" stroke-width="1.5" stroke-miterlimit="10"><path d="M0 6.315S33.095-3.354 39.757 7.82C46.419 18.994 13.539 23.938 0 18.136m25.891-7.246s-15.36 8.749-18.369 22.502m37.937-13.687s-8.404-1.904-7.611 2.883c.792 4.787 6.636-3.163 9.645-3.379 3.009-.215-3.009 3.869 0 3.439 3.009-.431 7.588-6.104 10.241-3.59 2.653 2.514-6.019 6.342 3.152 1.526 9.171-4.815 8.193-.637 5.889 2.002-2.305 2.64-22.291 15.317-8.752 6.293 13.539-9.026 17.971-9.922 17.971-9.922s1.799.896.081 3.045-1.075 1.72 4.513-1.505c5.587-3.223 7.721-2.494 6.332.365s.331 4.578 4.844.281c4.513-4.298 2.793-6.02.429-3.87-2.363 2.149-5.587 9.456 2.364 6.232m3.111-15.348s21.92-8.22 27.4-.322c5.479 7.898-8.221 14.829-19.665 10.96 0 0-2.095-.322-1.612 1.451.484 1.773 2.708 4.004 23.458 6.004M107.5 12.348s-6.608 8.22-6.77 10.798"/><ellipse cx="126.25" cy="21.459" rx=".436" ry=".209"/></g></svg>