<svg xmlns="http://www.w3.org/2000/svg" width="240" height="80" viewBox="0 0 240 80"><path fill="#777" d="M88.939 72.271c-.2-.02-.4-.109-.58-.27l-.04-.029-.029-.051c-1.75-1.881 1.49-13.691 3.45-20.32 1.31-4.461 2.8-9.041 4.13-12.65l.6-1.59.28-1.429c1.15-5.871 2.76-14.701-2.26-14.451-2.71.13-5.01 1.88-6.91 4.312l-.87 1.311-.01.471c0 .639-.01 1.188.01 1.639.18 6.381-.47 11.729-2.52 16.979-.4 1.012-.9 2.729-1.5 3.9-.55 1.078-1.64 2.479-3.17 1.328-1.39-1.039-1.1-3.988-.7-6.279.44-2.5 1.19-5.039 1.4-5.84.73-2.82 2.2-7.479 4.53-11.489l.72-1.068.01-1.201c.05-4.479.01-10.67-1.72-12.64-.48-.55-1.83.75-3.38 2.761-2.79 3.629-5.02 7.879-6.67 12.43l-.34 1.061-.1 2.93c-.25 4.74-.68 9.419-1.13 13.939-.1 1.029-.19 2.08-.31 3.109-.5 4.371-.87 6.561-1.19 7.149-.36.649-1.08.528-1.33-.079-.51-1.301-.29-10.223.05-14.012.32-3.68 1.01-7.39 2.04-10.979l.74-2.28.13-4.01c.02-2.38-.01-4.761-.13-7.13-.69-14.66-10.68-12.51-18.1-2.75-6.09 8-4.93 16.55-2.4 22.949l-1.15.448c-2.62-6.619-3.89-15.669 2.56-24.148C61.09 3.73 72.61 1.452 73.38 17.73c.12 2.4.15 4.802.13 7.2l-.02.37.43-1.07c1.49-3.37 3.32-6.521 5.48-9.329.21-.271 1.01-1.391 1.93-2.24.74-.688 2.26-1.84 3.37-.58 1.7 1.951 2.02 6.75 2.04 10.951l-.01 1.858 2.17-2.289c1.61-1.36 3.45-2.25 5.53-2.36 5.37-.27 5.16 6.291 4.23 12.12l-.06.351.38-.51.06-.062.93.221c.28.562.41 1.181.46 1.841l-.05.76.34-.57c.4-.559.81-.988 1.17-1.139.16-.07.34-.111.53-.08l.17.09.34-.031c.16.031.31.08.44.16 1.2.75 1.32 3.891.57 4.891l-.03.028-.15.17-.05.052.12.041c.23.028.47.021.73-.03.34-.068 1.82-.879 3.5-2l1.48-1.049.26-1.19c.57-1.539 1.98-3.47 3.12-3.629.3-.031.62.028.88.288 1.13 1.132-.31 2.851-1.83 4.191l-1.22.969.03.26c.16.381.58.6 1.34.6 3.331 0 3.87-1.558 3.889-2.449l-.02-.17-.029-.109c-.051-.19-.08-.34-.09-.45l.56-.67.05-.011.63.42c.04.091.07.24.091.41l.01.181.14.461.29-.25.3-.41-.18-.291c-.05-.199-.05-.41.03-.629.16-.451.58-.84 1.119-1.201.621-.407 1.16.183 1.08.722-.02.159-.109.43-.25.739l-.06.119.22.021c.991-.01 2.54-.28 3.891-.989l.85-.541.439-.851c.471-.709 1.029-1.25 1.34-1.42-.01.012.41-.27.801.012.459.33.199.89.209.858-.109.291-.41.73-.879 1.31l-.92.892-.18.892c0 .948 1.43.18 1.908-.101l.541-.433.029-.52c.4-1.199 1.621-2.541 2.25-2.779.5-.19 1.102.029 1.16.72.02.13.01.269-.01.399-.09.631-.57 1.33-1.199 1.99l-.41.32.139-.02c1.092-.343 1.871-1.423 2.24-2.173l.121-.327-.201-.152c.121-.239.24-.449.352-.579-.039.051.039-.08.201-.181l.219-.09 6.311-6.58c2.25-2.41 4.459-4.771 6.67-6.99l1.039.591c-.908 3.659-2.17 7.12-3.549 10.5l-1.98 4.719.631-.431.83.83-.67 1.461.318-.521c.881-1.438 1.771-2.899 2.721-4.079l1.08.54c-.148.619-.471 1.339-.779 2.009l-.279.601.229-.129c1.23-.861 2.26-2.75 3.521-4.011l.07-.06.799-.051.17.83c-.1.17-.25.391-.379.61l-.051.1.068-.01c1.781-.621 6.311-3.33 7.131-3.95l.92.78c-.689 1.39-.33 1.72.869 1.77 1.5.07 3.973-.51 6.852-1.398 5.609-1.761 12.76-4.771 15.41-5.58l.369 1.18c-2.859.88-9.48 3.721-15.408 5.58-2.861.891-5.531 1.539-7.281 1.46-1.039-.05-1.801-.38-2.16-.97l-.188-.931-.07.039c-2.131 1.32-5.9 3.479-7.121 3.38a.973.973 0 0 1-.439-.15l-.051-.067-.92 1.119c-.979 1.08-2.148 2.039-3.43 2.039l-.32-.449-.26.431c-.76 1.291-1.51 2.598-2.639 4.11l-1.111-.381c0-1.011.291-2.089.67-3.119l.301-.69-.07.051-.27.289-1.301 3.08c-.029.09-4.57 12.271-5.57 13.42.01-.021-.289.391-.76.25-.49-.148-.48-.699-.48-.682-.01-.17.012-.381.051-.6.66-4.201 2.439-10.643 5.771-14.839l1.219-1.291 2.852-6.75c.67-1.68 1.318-3.359 1.92-5.08l.85-2.859-1.469 1.52c-2.23 2.351-4.59 4.9-6.93 7.351l-2.973 3.06-.033.115c-.371 1.129-1.771 3.68-4.32 3.68-.26 0-.51-.051-.73-.159l-.08-.091-.369.289c-1.83 1.07-3.779 1.261-3.779-.969l-2.23.818c-.85.201-1.661.281-2.34.24l-.62-.1-.59.77c-.271.291-.56.5-.851.58a.98.98 0 0 1-.59.01l-.06-.039-.12.311c-.58 1.068-1.891 2.048-4.69 2.048-1.06 0-1.73-.31-2.13-.798l-.3-.511-.9.64c-1.73 1.16-3.4 2.089-3.98 2.21-2.2.438-3.62-.972-3.98-2.649l-.04-.41-.13.23c-.63 1.208-1.18 2.438-1.28 2.729l-1.17-.392.48-1.562c.31-1.108.56-2.31.51-3.358l-.04-.171-.44.921c-.23.528-.49 1.159-.77 1.88l-.3.77-.153.762c-.14.811-.24 1.459-.25 1.9-.09 2.959-4.68 30.09-7.7 31.74a1.003 1.003 0 0 1-.611.131zm.18-1.419l.23-.26c.98-1.689 2.56-7.5 3.92-14.041.95-4.521 1.76-9.101 2.25-12.279l.14-.961-.63 1.891c-.71 2.143-1.42 4.432-2.11 6.75-1.34 4.57-2.54 9.15-3.25 12.74-.58 2.951-.75 4.859-.66 5.789l.11.371zm-18.87-19.041l.16-1.238c.06-.49.12-1.012.19-1.58.11-1.02.2-2.041.31-3.09.22-2.262.44-4.551.63-6.871l.33-4.619-.18.681c-.52 2.38-.89 4.798-1.1 7.208-.18 1.98-.3 5.111-.33 7.861l-.01 1.648zm10.291-1.239c.27.068.58-.141 1.05-1.041.57-1.119.97-2.59 1.44-3.789 1.98-5.051 2.62-10.229 2.44-16.49v-.129l-1.14 2.209c-1.37 2.97-2.33 6.029-2.91 8.279-1.43 5.541-2.36 9.91-1.16 10.82.089.071.179.12.28.141zm53.8-4.701l.209-.51c.9-2.23 1.891-4.801 2.561-6.551l.359-.959-1.119 2.189c-.74 1.631-1.34 3.359-1.811 5.029l-.199.802zm-31.041-7.789l-.12-.108.12.108zm-.88-.452l-.04-.42c.01-.709.08-1.559-.02-2.18l-.02-.059-.28.539c-.22.68-.12 1.4.2 1.968l.16.152zm14.72-2.419l.04-.25-.23.191.19.059zm-14.37-.85l.27-.439-.42-.061.15.5zm-.51-.23l.26-.25-.39-.06.13.31zm9.02-.048l.15-.121c.88-.819 1.32-1.42 1.47-1.77l.01-.18-.22.141c-.35.289-.81.82-1.2 1.488l-.21.442zm17.44-.291l.23-.469-.5.15.27.319zm-10.219-.101l.289-.33-.41-.139.121.469zm14.469-3.317l-.119-.062.051.05.068.012zm15.822-.151l.068-.081-.17.021.102.06zm.068-.081l.092-.01-.07-.04-.022.05z"/></svg>