<svg xmlns="http://www.w3.org/2000/svg" width="230" height="35" viewBox="0 0 230 35"><g fill="none" stroke="#888" stroke-width="1.5" stroke-miterlimit="10"><path d="M25.422 3.877s23.549-1.611 21.247 2.239c-2.302 3.85-32.365 32.901-42.898 24.825-6.766-5.188-.046-12.465 12.833-11.082 12.878 1.383 23.117 3.772 30.74 2.127 7.623-1.646 9.878-5.479 3.338-4.354-6.541 1.127-4.06 7.217 4.736 4.512s4.962-3.607 4.962-3.607 5.412 2.256 2.029 4.285c-3.383 2.029 4.51-3.836 6.766-3.609 2.256.227 5.696 3.166 1.382 3.613s-1.157-4.062 5.609-4.289 3.431 1.957 3.431 1.957 3.335-3.084 6.492-1.957c3.158 1.127 3.157 3.455 3.157 3.455"/><path d="M98.493 1.397S88.989 26.2 85 27.75c-1.54.6-2.313-.625-2.313-.625S84.5 17.75 122.5 13.5M105 9.458l-6.375 14.751"/><ellipse cx="102.375" cy="24.963" rx=".451" ry=".283"/></g></svg>