<svg xmlns="http://www.w3.org/2000/svg" width="230" height="35" viewBox="0 0 230 35"><g fill="none" stroke="#888" stroke-width="1.5" stroke-miterlimit="10"><path d="M1 29.753S30.941-.555 34.594 3.462c3.651 4.017-17.528 28.481-8.033 19.72 9.494-8.765 26.29-24.467 23.369-16.066-2.921 8.397-23.735 25.925-8.764 19.718 14.971-6.208 19.718-8.216 21.179-6.024 1.461 2.19-4.747 5.11-5.295 3.104-.548-2.008 4.808-4.018 6.269-3.771 1.46.242-.974 4.504 1.217 3.164s5.939-1.541 7.886-1.785m12.562.076l6.276-.031s.914.184.365.914c-.547.729-2.868 3.494.091 2.373 4.45-1.687 5.154-4.381 3.875-3.013-1.278 1.369-12.118 10.89-9.292 10.651 123.335-10.254 19.197-12.654 13.875-9.86"/><path d="M76.403 21.376s-2.011-.123-4.025.138c-2.69.344-5.387 1.202-3.314 2.301 3.626 1.922 7.033-1.973 8.738-3.434 1.705-1.46 8.885-10.711 8.885-10.711m-1.338 11.706s-2.011-.123-4.026.138c-2.69.344-5.387 1.202-3.313 2.301 3.626 1.922 7.034-1.973 8.738-3.434 1.704-1.46 8.885-10.711 8.885-10.711M72.386 24.117s5.173-2.034 8.034-2.399m20.542 4.749S125.016-4.571 126.721 6.14c1.703 10.712-.488 23.125-.488 23.125"/><ellipse cx="135.834" cy="19.386" rx=".286" ry=".114"/></g></svg>