<svg xmlns="http://www.w3.org/2000/svg" width="250" height="120" viewBox="0 0 250 120"><g fill="#FFF"><path d="M239.346 53.081c-26.777 1.868-80.971 4.544-107.539 8.214.045-.218.09-.427.135-.638a15.486 15.486 0 0 1 2.781-2.264c2.031.635 4.057.08 6.186-.239.424.326.717.385 1.418.659.254.1.641-.058.754-.304.635-1.427 1.645-2.492 2.643-3.664.699-.82 1.002-1.738 1.42-2.638 2.055.346 3.004-1.081 4.254-2.639.23 1.169.449 2.346.539 3.527.043.55.791 1.038 1.217.505 1.91-2.391 4.129-4.494 6.186-6.745.037.288.102.539.203.71.176.309.518.338.816.214 1.832-.775 3.557-2.918 4.945-4.979.123 3.396 1.08 6.726 3.158 9.87-.561.153-1.119.307-1.658.477-.879.279-.73 1.621.223 1.621h3.383c.666 0 .943-.656.721-1.177 1.771-.561 3.48-1.255 4.936-2.446.246-.2.287-.501.205-.777 5.857-1.134 11.836-1.564 17.816-1.717.809-.021.809-1.245 0-1.255-8.461-.118-16.969.573-25.084 3.067-1.805-3.233-2.387-6.654-2.145-10.117l.201-.333c2.1-3.446 3.062-7.444 3.207-11.44.023-.68-1.002-.988-1.309-.358-1.947 3.981-3.301 8.089-3.609 12.136-.033.055-.062.113-.096.169-1.172 1.964-2.732 3.65-4.34 5.256-1.65 1.647-.195.036.107-.866.18-.22.363-.438.537-.663.299-.383.215-.905-.283-1.073-.875-.294-1.451.479-1.744 1.47-2.062 2.308-4.35 4.401-6.381 6.734-.182-1.187-.43-2.368-.668-3.543-.102-.518-.826-.679-1.174-.311-.742.789-2.438 3.358-3.752 3.899.049-.08.092-.161.143-.233.297-.441-.098-1.031-.592-1.031l-.186-.001c-.322 0-.564.213-.662.503-.062.184-.125.366-.186.554-.822 1.407-1.404 2.82-2.561 4.119-.221.245-.717.798-1.084 1.333-.354.005-.684.012-1.002.073-.875.062-1.736.151-2.615.298-.359.061-1.184.107-1.941.146.033-.017.062-.034.096-.047.686-.334.346-1.438-.381-1.413-1.236.039-2.477.128-3.17 1.229a.71.71 0 0 0-.08.47c-.271.181-.525.367-.779.557 1.193-4.969 2.668-9.87 4.32-14.717 5.396-10.061 9.582-23.741 10.543-27.185.254-.908-1.031-1.197-1.371-.377-3.684 8.938-7.443 17.906-10.598 27.049-4.168 7.821-8.879 13.22-12.851 9.115-.497-.51-1.234.247-.775.775 5.021 5.721-4.88 7.088-9.353 7.349.896-1.346 1.894-2.613 2.717-4.012.406-.691-.501-1.314-1.066-.821-2.61 2.265-5.943 3.353-8.893 5.094.071-1.76-.137-3.2-1.051-4.952-.2-.383-.746-.419-1.039-.132-2.099 2.039-4.356 3.903-6.525 5.869-.188-.914-.984-1.48-2.468-.899-.702.278-.401 1.424.317 1.148.73-.28.765.387.773 1.043-.171.163-.35.319-.52.489a.618.618 0 0 0-.097.743c.017.034.037.062.059.096.205.337.68.41.963.125a3.62 3.62 0 0 0 .562-.731c.141-.11.297-.246.485-.428 1.247-1.205 2.591-2.309 3.916-3.422a96.034 96.034 0 0 0 2.623-2.276c.776-.698.583 4.204.538 4.637-.051.511.628.87 1.036.595 2.297-1.554 4.889-2.59 7.275-3.957-.499.71-.994 1.423-1.436 2.175-.251.434.068 1.021.579 1.013 4.35-.092 15.098-1.756 12.932-7.186 3.131 1.163 6.325-1.252 9.307-5.368a149.703 149.703 0 0 0-2.959 10.971 13.312 13.312 0 0 0-1.494 1.895 1028.203 1028.203 0 0 0-31.21 4.868c-6.889 1.188-13.67 2.623-20.41 4.189-5.054-.397-10.158-.381-15.046-.22.16-11.418 2.337-22.99 5.478-33.517 2.498-8.383 6.242-18.34 14.32-22.728 2.766-1.501 5.275-1.793 7.526-1.24 1.123 10.551 4.188 21.88 14.793 23.001.504.055.737-.49.68-.891-1.079-7.518-3.631-16.364-10.163-21.033a14.303 14.303 0 0 0-4.489-2.174c-.459-4.243-.619-8.278-.852-11.277-.041-.503-.825-.511-.794 0 .192 3.054.312 6.959.691 11.053-3.517-.69-7.132.155-10.438 2.436-9.969 6.879-13.524 22.506-15.806 33.626-1.336 6.529-2.509 14.551-2.762 22.809-1.741.074-3.456.161-5.123.251-18.22.982-37.379 4.349-53.76 12.701-.967.49-.369 1.704.493 1.817 15.056 1.973 30.362-1.344 44.92-4.949 4.514-1.119 8.996-2.274 13.476-3.425.538 16.515 5.485 32.715 20.818 38.742 10.279 4.035 25.667 2.374 31.428-8.146 5.379-9.822-.788-22.037-8.885-28.184-5.859-4.448-13.011-6.797-20.525-7.966a294.117 294.117 0 0 1 11.682-2.318c10.896-1.913 21.832-3.609 32.791-5.152-1.166 3.036-1.117 6.571.334 10.49.334.9 1.562.731 1.646-.225.326-3.635.857-7.216 1.545-10.764 26.736-3.674 81.113-6.388 107.988-8.673 1.089-.091 1.107-1.793-.004-1.718zM103.593 34.513c-8.857-1.408-11.768-11.577-12.953-21.169 7.251 2.651 11.613 14.131 12.953 21.169zM49.237 77.839c-14.1 3.673-28.921 7.103-43.584 5.932 16.882-7.796 36.36-10.611 54.824-11.101a93.753 93.753 0 0 0 0 2.25c-3.74.961-7.481 1.938-11.24 2.919zm13.104-5.212c.186-.004.375-.013.558-.015 2.182-.036 4.444-.047 6.745-.01-2.427.599-4.852 1.212-7.28 1.827-.015-.598-.018-1.2-.023-1.802zm47.436 16.644c3.132 5.4 3.937 12.238.889 17.832-3.743 6.879-12.344 8.533-19.48 8.447-14.801-.174-23.459-11.554-26.726-24.88-1.127-4.596-1.761-9.354-2.007-14.179 4.788-1.224 9.571-2.436 14.376-3.57 13.02 1 26.146 4.619 32.948 16.35zm19.817-25.133a116.74 116.74 0 0 0-.842 5.037c-.092-1.823.191-3.506.842-5.037z"/><path d="M237.656 41.608c-6.727-.671-41.041-.122-47.795-.847-.639-.065-.621.916 0 .99 6.586.818 41.172 1.504 47.795.848a.496.496 0 0 0 0-.991z"/></g></svg>