<svg xmlns="http://www.w3.org/2000/svg" width="230" height="35" viewBox="0 0 230 35"><text transform="translate(23.166 -71)" font-family="'SignericaFat'" font-size="12">Payne</text><path fill="none" stroke="#888" stroke-width="1.5" stroke-miterlimit="10" d="M0 6.315S33.095-3.354 39.757 7.82 13.539 23.938 0 18.136m25.891-7.246s-15.36 8.749-18.369 22.503m37.937-13.688s-8.404-1.904-7.611 2.883c.792 4.787 6.636-3.163 9.645-3.379 3.009-.215-3.009 3.869 0 3.439s7.588-6.104 10.241-3.59c2.653 2.514-6.019 6.342 3.152 1.527 9.171-4.815 8.193-.637 5.889 2.002-2.305 2.639-22.291 15.318-8.752 6.293 13.539-9.027 17.971-9.922 17.971-9.922s1.799.896.081 3.045-1.075 1.72 4.513-1.505c5.587-3.223 7.721-2.494 6.332.365-1.389 2.859.331 4.578 4.844.281 4.513-4.298 2.793-6.019.429-3.869-2.363 2.149-5.587 9.455 2.364 6.232m3.111-15.35s21.92-8.22 27.4-.322c5.479 7.898-8.221 14.829-19.664 10.96 0 0-2.095-.322-1.612 1.451.484 1.773 12.411 12.895 32.879.967M107.5 12.348s-6.608 8.221-6.77 10.799"/></svg>