<svg xmlns="http://www.w3.org/2000/svg" width="240" height="80" viewBox="0 0 240 80"><path fill="#555" d="M59.611 57.678l-4.281-.011a3.496 3.496 0 0 1-3.496-3.496V28.163a3.496 3.496 0 0 1 3.496-3.496h26.008a3.496 3.496 0 0 1 3.496 3.496v26.008a3.496 3.496 0 0 1-3.496 3.496l-3.395.011c.047-.052.094-.134.141-.187 1.547-1.767 2.554-4.112 3.017-7.037h-5.883c-.277 1.929-.975 3.426-2.092 4.49-1.118 1.067-2.538 1.601-4.257 1.601-1.275 0-2.359-.265-3.253-.8a6.694 6.694 0 0 1-2.193-2.09c-.567-.859-.981-1.84-1.239-2.942a14.428 14.428 0 0 1-.386-3.304c0-2.029.239-3.672.722-4.93.481-1.256 1.084-2.237 1.807-2.942.722-.704 1.514-1.188 2.375-1.445.859-.258 1.668-.387 2.426-.387 1.651 0 3.018.422 4.102 1.265 1.086.845 1.748 2.09 1.989 3.743h5.883c-.137-1.653-.55-3.08-1.239-4.285a9.487 9.487 0 0 0-2.657-2.992c-1.084-.793-2.323-1.387-3.718-1.781a16.065 16.065 0 0 0-4.413-.595c-2.203 0-4.121.37-5.755 1.11-1.636.74-3.003 1.754-4.104 3.046-1.103 1.29-1.928 2.812-2.479 4.566-.55 1.756-.825 3.631-.825 5.627 0 1.961.284 3.786.853 5.471.567 1.687 1.401 3.143 2.504 4.362l.342.436zm35.684-28.547c1.184-1.21 2.69-1.815 4.519-1.815 2.447 0 4.236.812 5.368 2.434.625.911.96 1.825 1.006 2.743h-3.072c-.195-.705-.447-1.236-.752-1.596-.547-.638-1.358-.958-2.433-.958-1.095 0-1.958.45-2.589 1.352-.632.901-.948 2.176-.948 3.825s.334 2.884 1 3.706c.667.821 1.514 1.232 2.542 1.232 1.053 0 1.857-.353 2.409-1.058.306-.379.56-.947.762-1.706h3.051c-.263 1.603-.936 2.906-2.018 3.909-1.082 1.005-2.468 1.507-4.159 1.507-2.092 0-3.736-.679-4.933-2.035-1.198-1.363-1.796-3.231-1.796-5.605 0-2.567.681-4.545 2.043-5.935zm26.708 11.858c-1.109 1.144-2.715 1.716-4.816 1.716s-3.707-.572-4.817-1.716c-1.489-1.403-2.234-3.424-2.234-6.063 0-2.693.745-4.714 2.234-6.064 1.11-1.144 2.717-1.715 4.817-1.715 2.102 0 3.707.572 4.816 1.715 1.482 1.35 2.225 3.371 2.225 6.064 0 2.639-.743 4.66-2.225 6.063zm-1.919-2.234c.714-.897 1.072-2.174 1.072-3.829 0-1.649-.357-2.924-1.072-3.825-.715-.901-1.681-1.352-2.898-1.352-1.216 0-2.187.449-2.912 1.347-.725.897-1.087 2.174-1.087 3.83 0 1.655.363 2.932 1.087 3.829.725.898 1.696 1.347 2.912 1.347 1.218 0 2.184-.449 2.898-1.347zm17.145-10.841a4.855 4.855 0 0 1 2.505 1.865 6.537 6.537 0 0 1 1.049 2.373c.187.852.28 1.663.28 2.434 0 1.955-.395 3.61-1.179 4.967-1.064 1.829-2.709 2.743-4.932 2.743h-6.339V27.595h6.339c.912.013 1.671.119 2.277.319zm-5.632 2.234v9.594h2.837c1.451 0 2.463-.714 3.037-2.144.312-.784.469-1.719.469-2.803 0-1.496-.234-2.645-.705-3.446-.468-.801-1.402-1.201-2.801-1.201h-2.837zm24.683.05h-7.779v3.122h7.141v2.554h-7.141v3.78h8.138v2.643h-11.141V27.595h10.782v2.603zm14.216-2.224c.542.232 1 .575 1.376 1.027.311.373.559.785.738 1.237.183.452.274.967.274 1.546 0 .698-.179 1.385-.53 2.06-.353.675-.935 1.152-1.745 1.431.679.273 1.159.66 1.44 1.162.284.502.425 1.269.425 2.299v.988c0 .671.027 1.127.082 1.366.08.38.27.659.566.838v.369h-3.392a10.986 10.986 0 0 1-.198-.788 7.142 7.142 0 0 1-.13-1.267l-.021-1.366c-.012-.938-.174-1.562-.485-1.875-.312-.312-.895-.469-1.751-.469h-2.999v5.765h-3.003V27.595h7.032c1.007.02 1.78.146 2.321.379zm-6.349 2.174v3.949h3.305c.656 0 1.148-.08 1.479-.239.581-.279.871-.831.871-1.656 0-.891-.28-1.489-.843-1.795-.316-.173-.79-.259-1.421-.259h-3.391zm15.936 7.61c.095.672.28 1.174.559 1.506.51.605 1.383.908 2.619.908.738 0 1.341-.08 1.801-.239.876-.306 1.314-.875 1.314-1.705 0-.486-.214-.861-.645-1.127-.428-.259-1.108-.489-2.041-.688l-1.591-.349c-1.564-.346-2.639-.721-3.225-1.127-.99-.678-1.484-1.739-1.484-3.182 0-1.316.483-2.411 1.452-3.281.971-.872 2.393-1.307 4.271-1.307 1.569 0 2.905.411 4.014 1.231 1.106.821 1.687 2.013 1.741 3.576h-2.951c-.057-.884-.45-1.512-1.187-1.885-.49-.246-1.101-.369-1.831-.369-.811 0-1.459.159-1.942.479-.484.319-.727.765-.727 1.336 0 .525.24.918.716 1.177.307.173.959.375 1.953.608l2.581.609c1.131.266 1.977.622 2.543 1.067.876.692 1.314 1.692 1.314 3.002 0 1.343-.521 2.459-1.559 3.347-1.038.887-2.505 1.331-4.399 1.331-1.938 0-3.458-.437-4.568-1.312-1.108-.874-1.662-2.076-1.662-3.605h2.934zm-85.946 9.139h1.709l2.532 7.445 2.514-7.445h1.697v8.806h-1.139v-5.197c0-.18.004-.478.012-.893.008-.416.012-.861.012-1.337l-2.514 7.427h-1.182l-2.538-7.427v.27c0 .216.006.545.018.986.012.441.018.767.018.974v5.197h-1.139v-8.806zm17.489 0h1.347l3.196 8.806h-1.307l-.919-2.638h-3.455l-.955 2.638h-1.223l3.316-8.806zm1.978 5.198l-1.355-3.891-1.409 3.891h2.764zm14.167-4.946c.862.46 1.391 1.265 1.584 2.416h-1.182c-.141-.644-.433-1.112-.875-1.406-.441-.293-.999-.44-1.672-.44-.799 0-1.471.306-2.017.917s-.819 1.522-.819 2.733c0 1.047.226 1.899.676 2.557s1.185.986 2.203.986c.779 0 1.424-.231 1.936-.692.511-.462.772-1.208.784-2.239h-2.757v-.989h3.866v4.712h-.768l-.287-1.133c-.398.443-.75.751-1.056.923-.516.296-1.17.443-1.964.443-1.026 0-1.908-.337-2.647-1.013-.806-.848-1.209-2.01-1.209-3.488 0-1.475.394-2.647 1.183-3.519.748-.831 1.717-1.247 2.905-1.247.817 0 1.522.16 2.116.479zm10.921-.252h1.347l3.196 8.806h-1.307l-.919-2.638h-3.455l-.955 2.638h-1.223l3.316-8.806zm1.979 5.198l-1.355-3.891-1.409 3.891h2.764zm7.652 2.619l5.415-6.768h-5.02v-1.049h6.558v1.025l-5.446 6.731h5.446v1.049h-6.953v-.988zm13.086-7.817h1.205v8.806h-1.205v-8.806zm7.807 0h1.405l4.391 7.114v-7.114h1.139v8.806h-1.339l-4.457-7.106v7.106h-1.139v-8.806zm13.643 0h6.39v1.079h-5.227v2.674h4.831v1.019h-4.831v2.985h5.316v1.049h-6.479v-8.806z"/></svg>