<svg xmlns="http://www.w3.org/2000/svg" width="240" height="80" viewBox="0 0 240 80"><path d="M91.279 38.186h-3.713V23.764h-4.755v-3.09h13.224v3.09H91.28l-.001 14.422zm17.536 0H98.73V20.674h10.085v3.042h-6.373v3.846h5.929v3.042h-5.929v4.516h6.373v3.066zm11.09-14.673c-1.396 0-2.479.525-3.245 1.575-.768 1.05-1.15 2.514-1.15 4.39 0 3.905 1.465 5.857 4.396 5.857 1.229 0 2.721-.308 4.469-.923v3.113c-1.438.601-3.042.898-4.814.898-2.548 0-4.497-.771-5.846-2.316-1.351-1.545-2.024-3.764-2.024-6.654 0-1.82.332-3.415.994-4.785.664-1.369 1.615-2.419 2.857-3.149 1.242-.731 2.696-1.097 4.366-1.097 1.701 0 3.408.412 5.127 1.234l-1.198 3.019c-.653-.312-1.313-.583-1.978-.815s-1.313-.347-1.954-.347zm22.544 14.673h-3.701v-7.559h-6.938v7.559h-3.713V20.674h3.713v6.863h6.938v-6.863h3.701v17.512zm9.869-10.301l3.652-7.211h4.002L154.16 31.37v6.815h-3.688V31.49l-5.81-10.816h4.024l3.632 7.211zM94.016 57.811l-1.27-4.168h-6.384l-1.27 4.168h-4l6.181-17.583h4.54l6.205 17.583h-4.002zm-2.156-7.284a1213.039 1213.039 0 0 1-1.982-6.407 18.668 18.668 0 0 1-.317-1.175c-.263 1.021-1.018 3.55-2.264 7.582h4.563zm25.417 7.284h-4.229l-2.372-9.199c-.088-.325-.238-1.004-.449-2.028s-.332-1.715-.365-2.065c-.047.433-.166 1.125-.358 2.078-.19.954-.339 1.637-.442 2.043l-2.36 9.176h-4.216L98.016 40.3h3.653l2.24 9.56c.391 1.766.675 3.293.851 4.586.048-.453.158-1.157.33-2.111.171-.954.333-1.693.485-2.225l2.551-9.81h3.51l2.552 9.81c.111.439.25 1.111.418 2.015s.295 1.677.383 2.321c.08-.62.209-1.397.384-2.327.176-.933.335-1.685.479-2.259l2.227-9.56h3.653l-4.455 17.511zm17.38 0l-1.271-4.168h-6.385l-1.271 4.168h-4l6.183-17.583h4.54l6.204 17.583h-4zm-2.156-7.284a1066.551 1066.551 0 0 1-1.981-6.407 18.402 18.402 0 0 1-.315-1.175c-.265 1.021-1.019 3.55-2.265 7.582h4.561zm12.074.564v6.72h-3.714V40.299h5.104c2.381 0 4.141.434 5.282 1.301 1.144.865 1.713 2.183 1.713 3.945 0 1.03-.283 1.946-.853 2.749-.566.804-1.369 1.433-2.405 1.888 2.635 3.938 4.353 6.479 5.149 7.629h-4.121l-4.181-6.72h-1.974zm0-3.019h1.196c1.174 0 2.041-.195 2.601-.588.56-.392.839-1.006.839-1.844 0-.83-.286-1.423-.855-1.772-.57-.353-1.455-.527-2.652-.527h-1.126l-.003 4.731zm27.011.815c0 2.883-.82 5.092-2.462 6.624-1.642 1.533-4.011 2.3-7.106 2.3h-4.959V40.299h5.496c2.858 0 5.079.756 6.659 2.264 1.582 1.507 2.372 3.617 2.372 6.324zm-3.857.095c0-3.762-1.662-5.644-4.982-5.644h-1.979v11.403h1.594c3.577.003 5.367-1.917 5.367-5.759zm17.823 3.965c0 1.58-.567 2.826-1.706 3.736-1.138.909-2.722 1.364-4.748 1.364-1.869 0-3.521-.351-4.959-1.054v-3.45c1.182.526 2.182.897 3 1.114.817.216 1.565.322 2.245.322.814 0 1.439-.154 1.875-.467.437-.312.652-.773.652-1.391 0-.344-.097-.648-.287-.916s-.476-.525-.847-.771c-.37-.248-1.127-.644-2.271-1.188-1.069-.503-1.873-.984-2.407-1.449a5.462 5.462 0 0 1-1.281-1.615c-.317-.615-.479-1.334-.479-2.156 0-1.551.523-2.769 1.575-3.652 1.05-.887 2.501-1.33 4.354-1.33.91 0 1.777.108 2.604.323.827.216 1.689.521 2.593.909l-1.196 2.889c-.935-.384-1.707-.65-2.317-.803s-1.211-.229-1.804-.229c-.701 0-1.24.163-1.615.491-.377.327-.562.754-.562 1.281 0 .326.075.613.229.854.15.244.393.479.725.707.33.229 1.115.638 2.354 1.229 1.639.781 2.761 1.566 3.365 2.354.605.793.908 1.758.908 2.898zM76.167 58h-23V20.5h23l.003 2.253-17.42 2.5v1.648h17.42v1.918l-17.42 2.5v1.648h17.42v2.024l-17.42 2.5v1.647h17.42v1.918l-17.42 2.5v1.646h17.42L76.167 58z" fill="#555"/></svg>