<svg xmlns="http://www.w3.org/2000/svg" width="240" height="80" viewBox="0 0 240 80"><path fill="#555" d="M117.598 34.649l-2.886-2.886 7.477-7.524 4.543 4.543 4.542-4.543 4.495 4.543 4.541-4.543 7.524 7.524-2.886 2.886v17.65l-9.464 9.415-4.543-4.495-4.495 4.495-8.848-8.896V34.649zm.474-3.123l3.879-3.88v-2.177l-5.867 5.867h1.987v.19zm1.75 20.393V34.081l-1.561.71v17.365l1.419-.568.142.331zm5.82-20.156l-3.453-3.408-3.359 3.408 1.656 1.656v18.217l5.961 5.962 2.887-2.887-5.395-5.394V33.418l1.703-1.655zm-3.028-3.976l3.502 3.502h.188V29.35l-3.69-3.738v2.175zm2.224 21.483l3.549 3.501-1.608-3.832-.379-.331-1.562.662zm2.177-17.981h.379l3.596-3.643v-2.13l-3.975 3.975v1.798zm.283 17.271l1.562 3.597v-18.03l-1.562.805V48.56zm3.643 4.543l4.543 4.495 2.935-2.887-5.442-5.394V33.418l1.703-1.656-3.406-3.408-3.407 3.408 1.656 1.656v21.104l1.418-1.419zm.71-27.54v2.083h-.095l3.644 3.69h.236v-1.939l-3.785-3.834zm2.224 23.659l3.407 3.454-1.42-3.643-.426-.426-1.561.615zm6.01-21.387v-2.224l-3.786 3.785v1.893l.237.047 3.549-3.501zm-3.549 20.583l1.562 3.881V34.506l-1.562.426v13.486zm5.679 2.697V33.418l1.703-1.656-3.408-3.408-3.406 3.408 1.656 1.656v21.104l3.455-3.407zm-1.468-25.694v2.177l3.69 3.738h2.225l-5.915-5.915z"/><text transform="translate(22.117 56.533)" fill="#555" font-family="'BebasNeue'" font-size="38.094">Wicked</text><text transform="translate(150.784 56.533)" fill="#555" font-family="'BebasNeue'" font-size="38.094">WEAR</text></svg>